<?xml version="1.0" encoding="UTF-8" standalone="no"?>
<!DOCTYPE score-partwise PUBLIC "-//Recordare//DTD MusicXML 1.0 Partwise//EN" "http://www.musicxml.org/dtds/partwise.dtd">
<score-partwise>
	<work>
		<work-title>Salt Creek</work-title>
	</work>
	<identification>
		<creator type="composer"></creator>
		<encoding>
			<encoder>Mike J Beaumier</encoder>
			<software>TablEdit</software>
		</encoding>
	</identification>
	<part-list>
		<score-part id="P1">
			<part-name>Banjo open G</part-name>
			<score-instrument id="P1-I1">
				<instrument-name>Banjo</instrument-name>
			</score-instrument>
			<midi-instrument id="P1-I1">
				<midi-channel>1</midi-channel>
				<midi-program>106</midi-program>
			</midi-instrument>
		</score-part>
	</part-list>
	<part id="P1">
		<measure number="1">
			<attributes>
				<divisions>240</divisions>
				<key>
					<fifths>0</fifths>
				</key>
				<time>
					<beats>2</beats>
					<beat-type>4</beat-type>
				</time>
				<clef>
					<sign>TAB</sign>
					<line>5</line>
				</clef>
				<staff-details>
					<staff-lines>5</staff-lines>
					<staff-tuning line="1">
						<tuning-step>G</tuning-step>
						<tuning-octave>4</tuning-octave>
					</staff-tuning>
					<staff-tuning line="2">
						<tuning-step>D</tuning-step>
						<tuning-octave>3</tuning-octave>
					</staff-tuning>
					<staff-tuning line="3">
						<tuning-step>G</tuning-step>
						<tuning-octave>3</tuning-octave>
					</staff-tuning>
					<staff-tuning line="4">
						<tuning-step>B</tuning-step>
						<tuning-octave>3</tuning-octave>
					</staff-tuning>
					<staff-tuning line="5">
						<tuning-step>D</tuning-step>
						<tuning-octave>4</tuning-octave>
					</staff-tuning>
				</staff-details>
			</attributes>
			<sound tempo="100"/>
			<note>
				<pitch>
					<step>E</step>
					<octave>3</octave>
				</pitch>
				<duration>30</duration>
				<voice>1</voice>
				<type>32nd</type>
				<stem>none</stem>
				<notations>
					<technical>
						<slide type="start">Sl</slide>
						<string>4</string>
						<fret>2</fret>
					</technical>
						<slide line-type="solid" type="start" number="1">0</slide>
				</notations>
			</note>
			<direction placement="above">
				<direction-type>
					<words>VERSE</words>
				</direction-type>
			</direction>
			<note>
				<pitch>
					<step>G</step>
					<octave>3</octave>
				</pitch>
				<duration>60</duration>
				<voice>1</voice>
				<type>16th</type>
				<stem>none</stem>
				<notations>
					<technical>
						<slide type="stop"></slide>
						<string>4</string>
						<fret>5</fret>
					</technical>
						<slide line-type="solid" type="stop" number="1">0</slide>
				</notations>
			</note>
			<backup>
				<duration>30</duration>
			</backup>
			<note>
				<pitch>
					<step>G</step>
					<octave>3</octave>
				</pitch>
				<duration>60</duration>
				<voice>1</voice>
				<type>16th</type>
				<stem>none</stem>
				<notations>
					<technical>
						<string>3</string>
						<fret>0</fret>
					</technical>
				</notations>
			</note>
			<direction placement="above">
				<direction-type>
					<words>PART 1</words>
				</direction-type>
			</direction>
			<note>
				<pitch>
					<step>D</step>
					<octave>4</octave>
				</pitch>
				<duration>60</duration>
				<voice>1</voice>
				<type>16th</type>
				<stem>none</stem>
				<notations>
					<technical>
						<string>1</string>
						<fret>0</fret>
					</technical>
				</notations>
			</note>
			<note>
				<pitch>
					<step>G</step>
					<octave>4</octave>
				</pitch>
				<duration>60</duration>
				<voice>1</voice>
				<type>16th</type>
				<stem>none</stem>
				<notations>
					<technical>
						<string>5</string>
						<fret>0</fret>
					</technical>
				</notations>
			</note>
			<note>
				<pitch>
					<step>D</step>
					<octave>4</octave>
				</pitch>
				<duration>60</duration>
				<voice>1</voice>
				<type>16th</type>
				<stem>none</stem>
				<notations>
					<technical>
						<string>1</string>
						<fret>0</fret>
					</technical>
				</notations>
			</note>
			<note>
				<pitch>
					<step>B</step>
					<octave>3</octave>
				</pitch>
				<duration>60</duration>
				<voice>1</voice>
				<type>16th</type>
				<stem>none</stem>
				<notations>
					<technical>
						<string>2</string>
						<fret>0</fret>
					</technical>
				</notations>
			</note>
			<note>
				<pitch>
					<step>G</step>
					<octave>3</octave>
				</pitch>
				<duration>60</duration>
				<voice>1</voice>
				<type>16th</type>
				<stem>none</stem>
				<notations>
					<technical>
						<string>3</string>
						<fret>0</fret>
					</technical>
				</notations>
			</note>
			<note>
				<pitch>
					<step>D</step>
					<octave>4</octave>
				</pitch>
				<duration>60</duration>
				<voice>1</voice>
				<type>16th</type>
				<stem>none</stem>
				<notations>
					<technical>
						<string>1</string>
						<fret>0</fret>
					</technical>
				</notations>
			</note>
		</measure>
		<measure number="2">
			<note>
				<pitch>
					<step>A</step>
					<octave>3</octave>
				</pitch>
				<duration>30</duration>
				<voice>1</voice>
				<type>32nd</type>
				<stem>none</stem>
				<notations>
					<technical>
						<pull-off type="start">Po</pull-off>
						<string>3</string>
						<fret>2</fret>
					</technical>
					<slur type="start" number="1"/>
				</notations>
			</note>
			<note>
				<pitch>
					<step>G</step>
					<octave>3</octave>
				</pitch>
				<duration>60</duration>
				<voice>1</voice>
				<type>16th</type>
				<stem>none</stem>
				<notations>
					<technical>
						<pull-off type="stop"></pull-off>
						<string>3</string>
						<fret>0</fret>
					</technical>
					<slur type="stop" number="1"/>
				</notations>
			</note>
			<backup>
				<duration>30</duration>
			</backup>
			<note>
				<pitch>
					<step>D</step>
					<octave>4</octave>
				</pitch>
				<duration>60</duration>
				<voice>1</voice>
				<type>16th</type>
				<stem>none</stem>
				<notations>
					<technical>
						<string>1</string>
						<fret>0</fret>
					</technical>
				</notations>
			</note>
			<note>
				<pitch>
					<step>B</step>
					<octave>3</octave>
				</pitch>
				<duration>60</duration>
				<voice>1</voice>
				<type>16th</type>
				<stem>none</stem>
				<notations>
					<technical>
						<string>2</string>
						<fret>0</fret>
					</technical>
				</notations>
			</note>
			<note>
				<pitch>
					<step>D</step>
					<octave>4</octave>
				</pitch>
				<duration>60</duration>
				<voice>1</voice>
				<type>16th</type>
				<stem>none</stem>
				<notations>
					<technical>
						<string>1</string>
						<fret>0</fret>
					</technical>
				</notations>
			</note>
			<note>
				<pitch>
					<step>C</step>
					<octave>4</octave>
				</pitch>
				<duration>60</duration>
				<voice>1</voice>
				<type>16th</type>
				<stem>none</stem>
				<notations>
					<technical>
						<string>2</string>
						<fret>1</fret>
					</technical>
				</notations>
			</note>
			<forward>
				<duration>60</duration>
			</forward>
			<note>
				<pitch>
					<step>D</step>
					<octave>4</octave>
				</pitch>
				<duration>60</duration>
				<voice>1</voice>
				<type>16th</type>
				<stem>none</stem>
				<notations>
					<technical>
						<string>1</string>
						<fret>0</fret>
					</technical>
				</notations>
			</note>
		</measure>
		<measure number="3">
			<note>
				<pitch>
					<step>A</step>
					<octave>3</octave>
				</pitch>
				<duration>30</duration>
				<voice>1</voice>
				<type>32nd</type>
				<stem>none</stem>
				<notations>
					<technical>
						<pull-off type="start">Po</pull-off>
						<string>3</string>
						<fret>2</fret>
					</technical>
					<slur type="start" number="1"/>
				</notations>
			</note>
			<note>
				<pitch>
					<step>G</step>
					<octave>3</octave>
				</pitch>
				<duration>60</duration>
				<voice>1</voice>
				<type>16th</type>
				<stem>none</stem>
				<notations>
					<technical>
						<pull-off type="stop"></pull-off>
						<string>3</string>
						<fret>0</fret>
					</technical>
					<slur type="stop" number="1"/>
				</notations>
			</note>
			<backup>
				<duration>30</duration>
			</backup>
			<note>
				<pitch>
					<step>C</step>
					<octave>4</octave>
				</pitch>
				<duration>60</duration>
				<voice>1</voice>
				<type>16th</type>
				<stem>none</stem>
				<notations>
					<technical>
						<string>2</string>
						<fret>1</fret>
					</technical>
				</notations>
			</note>
			<note>
				<pitch>
					<step>F</step>
					<octave>3</octave>
				</pitch>
				<duration>60</duration>
				<voice>1</voice>
				<type>16th</type>
				<stem>none</stem>
				<notations>
					<technical>
						<string>4</string>
						<fret>3</fret>
					</technical>
				</notations>
			</note>
			<note>
				<pitch>
					<step>D</step>
					<octave>4</octave>
				</pitch>
				<duration>60</duration>
				<voice>1</voice>
				<type>16th</type>
				<stem>none</stem>
				<notations>
					<technical>
						<string>1</string>
						<fret>0</fret>
					</technical>
				</notations>
			</note>
			<note>
				<pitch>
					<step>A</step>
					<octave>3</octave>
				</pitch>
				<duration>30</duration>
				<voice>1</voice>
				<type>32nd</type>
				<stem>none</stem>
				<notations>
					<technical>
						<pull-off type="start">Po</pull-off>
						<string>3</string>
						<fret>2</fret>
					</technical>
					<slur type="start" number="1"/>
				</notations>
			</note>
			<note>
				<pitch>
					<step>G</step>
					<octave>3</octave>
				</pitch>
				<duration>60</duration>
				<voice>1</voice>
				<type>16th</type>
				<stem>none</stem>
				<notations>
					<technical>
						<pull-off type="stop"></pull-off>
						<string>3</string>
						<fret>0</fret>
					</technical>
					<slur type="stop" number="1"/>
				</notations>
			</note>
			<backup>
				<duration>30</duration>
			</backup>
			<note>
				<pitch>
					<step>C</step>
					<octave>4</octave>
				</pitch>
				<duration>60</duration>
				<voice>1</voice>
				<type>16th</type>
				<stem>none</stem>
				<notations>
					<technical>
						<string>2</string>
						<fret>1</fret>
					</technical>
				</notations>
			</note>
			<note>
				<pitch>
					<step>F</step>
					<octave>3</octave>
				</pitch>
				<duration>60</duration>
				<voice>1</voice>
				<type>16th</type>
				<stem>none</stem>
				<notations>
					<technical>
						<string>4</string>
						<fret>3</fret>
					</technical>
				</notations>
			</note>
			<note>
				<pitch>
					<step>D</step>
					<octave>4</octave>
				</pitch>
				<duration>60</duration>
				<voice>1</voice>
				<type>16th</type>
				<stem>none</stem>
				<notations>
					<technical>
						<string>1</string>
						<fret>0</fret>
					</technical>
				</notations>
			</note>
		</measure>
		<measure number="4">
			<note>
				<pitch>
					<step>A</step>
					<octave>3</octave>
				</pitch>
				<duration>30</duration>
				<voice>1</voice>
				<type>32nd</type>
				<stem>none</stem>
				<notations>
					<technical>
						<pull-off type="start">Po</pull-off>
						<string>3</string>
						<fret>2</fret>
					</technical>
					<slur type="start" number="1"/>
				</notations>
			</note>
			<note>
				<pitch>
					<step>G</step>
					<octave>3</octave>
				</pitch>
				<duration>60</duration>
				<voice>1</voice>
				<type>16th</type>
				<stem>none</stem>
				<notations>
					<technical>
						<pull-off type="stop"></pull-off>
						<string>3</string>
						<fret>0</fret>
					</technical>
					<slur type="stop" number="1"/>
				</notations>
			</note>
			<backup>
				<duration>30</duration>
			</backup>
			<note>
				<pitch>
					<step>C</step>
					<octave>4</octave>
				</pitch>
				<duration>60</duration>
				<voice>1</voice>
				<type>16th</type>
				<stem>none</stem>
				<notations>
					<technical>
						<string>2</string>
						<fret>1</fret>
					</technical>
				</notations>
			</note>
			<note>
				<pitch>
					<step>F</step>
					<octave>3</octave>
				</pitch>
				<duration>60</duration>
				<voice>1</voice>
				<type>16th</type>
				<stem>none</stem>
				<notations>
					<technical>
						<string>4</string>
						<fret>3</fret>
					</technical>
				</notations>
			</note>
			<note>
				<pitch>
					<step>D</step>
					<octave>4</octave>
				</pitch>
				<duration>60</duration>
				<voice>1</voice>
				<type>16th</type>
				<stem>none</stem>
				<notations>
					<technical>
						<string>1</string>
						<fret>0</fret>
					</technical>
				</notations>
			</note>
			<note>
				<pitch>
					<step>D</step>
					<octave>3</octave>
				</pitch>
				<duration>60</duration>
				<voice>2</voice>
				<type>16th</type>
				<stem>none</stem>
				<notations>
					<technical>
						<string>4</string>
						<fret>0</fret>
					</technical>
				</notations>
			</note>
			<forward>
				<duration>60</duration>
			</forward>
			<note>
				<pitch>
					<step>G</step>
					<octave>4</octave>
				</pitch>
				<duration>60</duration>
				<voice>1</voice>
				<type>16th</type>
				<stem>none</stem>
				<notations>
					<technical>
						<string>5</string>
						<fret>0</fret>
					</technical>
				</notations>
			</note>
			<note>
				<chord/>
				<pitch>
					<step>D</step>
					<octave>4</octave>
				</pitch>
				<duration>60</duration>
				<voice>1</voice>
				<type>16th</type>
				<stem>none</stem>
				<notations>
					<technical>
						<string>1</string>
						<fret>0</fret>
					</technical>
				</notations>
			</note>
		</measure>
		<measure number="5">
			<note>
				<pitch>
					<step>E</step>
					<octave>3</octave>
				</pitch>
				<duration>30</duration>
				<voice>1</voice>
				<type>32nd</type>
				<stem>none</stem>
				<notations>
					<technical>
						<slide type="start">Sl</slide>
						<string>4</string>
						<fret>2</fret>
					</technical>
						<slide line-type="solid" type="start" number="1">0</slide>
				</notations>
			</note>
			<note>
				<pitch>
					<step>G</step>
					<octave>3</octave>
				</pitch>
				<duration>60</duration>
				<voice>1</voice>
				<type>16th</type>
				<stem>none</stem>
				<notations>
					<technical>
						<slide type="stop"></slide>
						<string>4</string>
						<fret>5</fret>
					</technical>
						<slide line-type="solid" type="stop" number="1">0</slide>
				</notations>
			</note>
			<backup>
				<duration>30</duration>
			</backup>
			<note>
				<pitch>
					<step>G</step>
					<octave>3</octave>
				</pitch>
				<duration>60</duration>
				<voice>1</voice>
				<type>16th</type>
				<stem>none</stem>
				<notations>
					<technical>
						<string>3</string>
						<fret>0</fret>
					</technical>
				</notations>
			</note>
			<note>
				<pitch>
					<step>D</step>
					<octave>4</octave>
				</pitch>
				<duration>60</duration>
				<voice>1</voice>
				<type>16th</type>
				<stem>none</stem>
				<notations>
					<technical>
						<string>1</string>
						<fret>0</fret>
					</technical>
				</notations>
			</note>
			<note>
				<pitch>
					<step>G</step>
					<octave>4</octave>
				</pitch>
				<duration>60</duration>
				<voice>1</voice>
				<type>16th</type>
				<stem>none</stem>
				<notations>
					<technical>
						<string>5</string>
						<fret>0</fret>
					</technical>
				</notations>
			</note>
			<note>
				<pitch>
					<step>D</step>
					<octave>4</octave>
				</pitch>
				<duration>60</duration>
				<voice>1</voice>
				<type>16th</type>
				<stem>none</stem>
				<notations>
					<technical>
						<string>1</string>
						<fret>0</fret>
					</technical>
				</notations>
			</note>
			<note>
				<pitch>
					<step>B</step>
					<octave>3</octave>
				</pitch>
				<duration>60</duration>
				<voice>1</voice>
				<type>16th</type>
				<stem>none</stem>
				<notations>
					<technical>
						<string>2</string>
						<fret>0</fret>
					</technical>
				</notations>
			</note>
			<note>
				<pitch>
					<step>G</step>
					<octave>3</octave>
				</pitch>
				<duration>60</duration>
				<voice>1</voice>
				<type>16th</type>
				<stem>none</stem>
				<notations>
					<technical>
						<string>3</string>
						<fret>0</fret>
					</technical>
				</notations>
			</note>
			<note>
				<pitch>
					<step>D</step>
					<octave>4</octave>
				</pitch>
				<duration>60</duration>
				<voice>1</voice>
				<type>16th</type>
				<stem>none</stem>
				<notations>
					<technical>
						<string>1</string>
						<fret>0</fret>
					</technical>
				</notations>
			</note>
		</measure>
		<measure number="6">
			<note>
				<pitch>
					<step>A</step>
					<octave>3</octave>
				</pitch>
				<duration>30</duration>
				<voice>1</voice>
				<type>32nd</type>
				<stem>none</stem>
				<notations>
					<technical>
						<pull-off type="start">Po</pull-off>
						<string>3</string>
						<fret>2</fret>
					</technical>
					<slur type="start" number="1"/>
				</notations>
			</note>
			<note>
				<pitch>
					<step>G</step>
					<octave>3</octave>
				</pitch>
				<duration>60</duration>
				<voice>1</voice>
				<type>16th</type>
				<stem>none</stem>
				<notations>
					<technical>
						<pull-off type="stop"></pull-off>
						<string>3</string>
						<fret>0</fret>
					</technical>
					<slur type="stop" number="1"/>
				</notations>
			</note>
			<backup>
				<duration>30</duration>
			</backup>
			<note>
				<pitch>
					<step>D</step>
					<octave>4</octave>
				</pitch>
				<duration>60</duration>
				<voice>1</voice>
				<type>16th</type>
				<stem>none</stem>
				<notations>
					<technical>
						<string>1</string>
						<fret>0</fret>
					</technical>
				</notations>
			</note>
			<note>
				<pitch>
					<step>B</step>
					<octave>3</octave>
				</pitch>
				<duration>60</duration>
				<voice>1</voice>
				<type>16th</type>
				<stem>none</stem>
				<notations>
					<technical>
						<string>2</string>
						<fret>0</fret>
					</technical>
				</notations>
			</note>
			<note>
				<pitch>
					<step>D</step>
					<octave>4</octave>
				</pitch>
				<duration>60</duration>
				<voice>1</voice>
				<type>16th</type>
				<stem>none</stem>
				<notations>
					<technical>
						<string>1</string>
						<fret>0</fret>
					</technical>
				</notations>
			</note>
			<note>
				<pitch>
					<step>C</step>
					<octave>4</octave>
				</pitch>
				<duration>60</duration>
				<voice>1</voice>
				<type>16th</type>
				<stem>none</stem>
				<notations>
					<technical>
						<string>2</string>
						<fret>1</fret>
					</technical>
				</notations>
			</note>
			<forward>
				<duration>60</duration>
			</forward>
			<note>
				<pitch>
					<step>D</step>
					<octave>4</octave>
				</pitch>
				<duration>60</duration>
				<voice>1</voice>
				<type>16th</type>
				<stem>none</stem>
				<notations>
					<technical>
						<string>1</string>
						<fret>0</fret>
					</technical>
				</notations>
			</note>
		</measure>
		<measure number="7">
			<note>
				<pitch>
					<step>G</step>
					<octave>4</octave>
				</pitch>
				<duration>60</duration>
				<voice>1</voice>
				<type>16th</type>
				<stem>none</stem>
				<notations>
					<technical>
						<string>5</string>
						<fret>0</fret>
					</technical>
				</notations>
			</note>
			<note>
				<pitch>
					<step>D</step>
					<octave>4</octave>
				</pitch>
				<duration>60</duration>
				<voice>1</voice>
				<type>16th</type>
				<stem>none</stem>
				<notations>
					<technical>
						<string>2</string>
						<fret>3</fret>
					</technical>
				</notations>
			</note>
			<note>
				<pitch>
					<step>F</step>
					<octave>4</octave>
				</pitch>
				<duration>60</duration>
				<voice>1</voice>
				<type>16th</type>
				<stem>none</stem>
				<notations>
					<technical>
						<string>1</string>
						<fret>3</fret>
					</technical>
				</notations>
			</note>
			<note>
				<pitch>
					<step>G</step>
					<octave>4</octave>
				</pitch>
				<duration>60</duration>
				<voice>1</voice>
				<type>16th</type>
				<stem>none</stem>
				<notations>
					<technical>
						<string>5</string>
						<fret>0</fret>
					</technical>
				</notations>
			</note>
			<note>
				<pitch>
					<step>D</step>
					<octave>4</octave>
				</pitch>
				<duration>60</duration>
				<voice>1</voice>
				<type>16th</type>
				<stem>none</stem>
				<notations>
					<technical>
						<string>1</string>
						<fret>0</fret>
					</technical>
				</notations>
			</note>
			<note>
				<pitch>
					<step>B</step>
					<octave>3</octave>
				</pitch>
				<duration>60</duration>
				<voice>1</voice>
				<type>16th</type>
				<stem>none</stem>
				<notations>
					<technical>
						<string>2</string>
						<fret>0</fret>
					</technical>
				</notations>
			</note>
			<note>
				<pitch>
					<step>A</step>
					<alter>1</alter>
					<octave>3</octave>
				</pitch>
				<duration>30</duration>
				<voice>1</voice>
				<type>32nd</type>
				<stem>none</stem>
				<notations>
					<technical>
						<pull-off type="start">Po</pull-off>
						<string>3</string>
						<fret>3</fret>
					</technical>
					<slur type="start" number="1"/>
				</notations>
			</note>
			<note>
				<pitch>
					<step>A</step>
					<octave>3</octave>
				</pitch>
				<duration>60</duration>
				<voice>1</voice>
				<type>16th</type>
				<stem>none</stem>
				<notations>
					<technical>
						<pull-off type="stop"></pull-off>
						<string>3</string>
						<fret>2</fret>
					</technical>
					<slur type="stop" number="1"/>
				</notations>
			</note>
			<backup>
				<duration>30</duration>
			</backup>
			<note>
				<pitch>
					<step>D</step>
					<octave>4</octave>
				</pitch>
				<duration>60</duration>
				<voice>1</voice>
				<type>16th</type>
				<stem>none</stem>
				<notations>
					<technical>
						<string>1</string>
						<fret>0</fret>
					</technical>
				</notations>
			</note>
		</measure>
		<measure number="8">
			<note>
				<pitch>
					<step>G</step>
					<octave>3</octave>
				</pitch>
				<duration>60</duration>
				<voice>1</voice>
				<type>16th</type>
				<stem>none</stem>
				<notations>
					<technical>
						<string>3</string>
						<fret>0</fret>
					</technical>
				</notations>
			</note>
			<note>
				<pitch>
					<step>D</step>
					<octave>4</octave>
				</pitch>
				<duration>60</duration>
				<voice>1</voice>
				<type>16th</type>
				<stem>none</stem>
				<notations>
					<technical>
						<string>1</string>
						<fret>0</fret>
					</technical>
				</notations>
			</note>
			<note>
				<pitch>
					<step>F</step>
					<octave>3</octave>
				</pitch>
				<duration>60</duration>
				<voice>1</voice>
				<type>16th</type>
				<stem>none</stem>
				<notations>
					<technical>
						<string>4</string>
						<fret>3</fret>
					</technical>
				</notations>
			</note>
			<note>
				<pitch>
					<step>D</step>
					<octave>4</octave>
				</pitch>
				<duration>60</duration>
				<voice>1</voice>
				<type>16th</type>
				<stem>none</stem>
				<notations>
					<technical>
						<string>1</string>
						<fret>0</fret>
					</technical>
				</notations>
			</note>
			<note>
				<pitch>
					<step>G</step>
					<octave>3</octave>
				</pitch>
				<duration>60</duration>
				<voice>2</voice>
				<type>16th</type>
				<stem>none</stem>
				<notations>
					<technical>
						<string>3</string>
						<fret>0</fret>
					</technical>
				</notations>
			</note>
			<forward>
				<duration>60</duration>
			</forward>
			<note>
				<pitch>
					<step>G</step>
					<octave>4</octave>
				</pitch>
				<duration>30</duration>
				<voice>1</voice>
				<type>32nd</type>
				<stem>none</stem>
				<notations>
					<technical>
						<string>5</string>
						<fret>0</fret>
					</technical>
				</notations>
			</note>
			<backup>
				<duration>30</duration>
			</backup>
			<note>
				<pitch>
					<step>D</step>
					<octave>4</octave>
				</pitch>
				<duration>60</duration>
				<voice>1</voice>
				<type>16th</type>
				<stem>none</stem>
				<notations>
					<technical>
						<string>1</string>
						<fret>0</fret>
					</technical>
				</notations>
			</note>
		</measure>
		<measure number="9">
			<note>
				<pitch>
					<step>D</step>
					<octave>4</octave>
				</pitch>
				<duration>60</duration>
				<voice>1</voice>
				<type>16th</type>
				<stem>none</stem>
				<notations>
					<technical>
						<string>3</string>
						<fret>7</fret>
					</technical>
				</notations>
			</note>
			<direction placement="above">
				<direction-type>
					<words>CHORUS</words>
				</direction-type>
			</direction>
			<note>
				<pitch>
					<step>F</step>
					<octave>4</octave>
				</pitch>
				<duration>60</duration>
				<voice>1</voice>
				<type>16th</type>
				<stem>none</stem>
				<notations>
					<technical>
						<string>2</string>
						<fret>6</fret>
					</technical>
				</notations>
			</note>
			<note>
				<pitch>
					<step>G</step>
					<octave>4</octave>
				</pitch>
				<duration>60</duration>
				<voice>1</voice>
				<type>16th</type>
				<stem>none</stem>
				<notations>
					<technical>
						<string>1</string>
						<fret>5</fret>
					</technical>
				</notations>
			</note>
			<note>
				<pitch>
					<step>G</step>
					<octave>4</octave>
				</pitch>
				<duration>60</duration>
				<voice>1</voice>
				<type>16th</type>
				<stem>none</stem>
				<notations>
					<technical>
						<string>5</string>
						<fret>0</fret>
					</technical>
				</notations>
			</note>
			<note>
				<pitch>
					<step>G</step>
					<octave>4</octave>
				</pitch>
				<duration>60</duration>
				<voice>1</voice>
				<type>16th</type>
				<stem>none</stem>
				<notations>
					<technical>
						<string>1</string>
						<fret>5</fret>
					</technical>
				</notations>
			</note>
			<forward>
				<duration>60</duration>
			</forward>
			<note>
				<pitch>
					<step>G</step>
					<octave>4</octave>
				</pitch>
				<duration>60</duration>
				<voice>1</voice>
				<type>16th</type>
				<stem>none</stem>
				<notations>
					<technical>
						<string>5</string>
						<fret>0</fret>
					</technical>
				</notations>
			</note>
			<note>
				<chord/>
				<pitch>
					<step>G</step>
					<octave>4</octave>
				</pitch>
				<duration>60</duration>
				<voice>1</voice>
				<type>16th</type>
				<stem>none</stem>
				<notations>
					<technical>
						<string>1</string>
						<fret>5</fret>
					</technical>
				</notations>
			</note>
		</measure>
		<measure number="10">
			<note>
				<pitch>
					<step>D</step>
					<octave>4</octave>
				</pitch>
				<duration>60</duration>
				<voice>1</voice>
				<type>16th</type>
				<stem>none</stem>
				<notations>
					<technical>
						<string>3</string>
						<fret>7</fret>
					</technical>
				</notations>
			</note>
			<note>
				<pitch>
					<step>F</step>
					<octave>4</octave>
				</pitch>
				<duration>60</duration>
				<voice>1</voice>
				<type>16th</type>
				<stem>none</stem>
				<notations>
					<technical>
						<string>2</string>
						<fret>6</fret>
					</technical>
				</notations>
			</note>
			<note>
				<pitch>
					<step>G</step>
					<octave>4</octave>
				</pitch>
				<duration>60</duration>
				<voice>1</voice>
				<type>16th</type>
				<stem>none</stem>
				<notations>
					<technical>
						<string>1</string>
						<fret>5</fret>
					</technical>
				</notations>
			</note>
			<note>
				<pitch>
					<step>G</step>
					<octave>4</octave>
				</pitch>
				<duration>60</duration>
				<voice>1</voice>
				<type>16th</type>
				<stem>none</stem>
				<notations>
					<technical>
						<string>5</string>
						<fret>0</fret>
					</technical>
				</notations>
			</note>
			<note>
				<pitch>
					<step>G</step>
					<octave>4</octave>
				</pitch>
				<duration>60</duration>
				<voice>1</voice>
				<type>16th</type>
				<stem>none</stem>
				<notations>
					<technical>
						<string>1</string>
						<fret>5</fret>
					</technical>
				</notations>
			</note>
			<note>
				<pitch>
					<step>F</step>
					<octave>4</octave>
				</pitch>
				<duration>60</duration>
				<voice>1</voice>
				<type>16th</type>
				<stem>none</stem>
				<notations>
					<technical>
						<string>2</string>
						<fret>6</fret>
					</technical>
				</notations>
			</note>
			<note>
				<pitch>
					<step>D</step>
					<octave>4</octave>
				</pitch>
				<duration>60</duration>
				<voice>1</voice>
				<type>16th</type>
				<stem>none</stem>
				<notations>
					<technical>
						<string>3</string>
						<fret>7</fret>
					</technical>
				</notations>
			</note>
			<note>
				<pitch>
					<step>G</step>
					<octave>4</octave>
				</pitch>
				<duration>60</duration>
				<voice>1</voice>
				<type>16th</type>
				<stem>none</stem>
				<notations>
					<technical>
						<string>1</string>
						<fret>5</fret>
					</technical>
				</notations>
			</note>
		</measure>
		<measure number="11">
			<note>
				<pitch>
					<step>C</step>
					<octave>4</octave>
				</pitch>
				<duration>60</duration>
				<voice>1</voice>
				<type>16th</type>
				<stem>none</stem>
				<notations>
					<technical>
						<string>3</string>
						<fret>5</fret>
					</technical>
				</notations>
			</note>
			<note>
				<pitch>
					<step>D</step>
					<alter>1</alter>
					<octave>4</octave>
				</pitch>
				<duration>60</duration>
				<voice>1</voice>
				<type>16th</type>
				<stem>none</stem>
				<notations>
					<technical>
						<string>2</string>
						<fret>4</fret>
					</technical>
				</notations>
			</note>
			<note>
				<pitch>
					<step>F</step>
					<octave>4</octave>
				</pitch>
				<duration>60</duration>
				<voice>1</voice>
				<type>16th</type>
				<stem>none</stem>
				<notations>
					<technical>
						<string>1</string>
						<fret>3</fret>
					</technical>
				</notations>
			</note>
			<note>
				<pitch>
					<step>G</step>
					<octave>4</octave>
				</pitch>
				<duration>60</duration>
				<voice>1</voice>
				<type>16th</type>
				<stem>none</stem>
				<notations>
					<technical>
						<string>5</string>
						<fret>0</fret>
					</technical>
				</notations>
			</note>
			<note>
				<pitch>
					<step>F</step>
					<octave>4</octave>
				</pitch>
				<duration>60</duration>
				<voice>1</voice>
				<type>16th</type>
				<stem>none</stem>
				<notations>
					<technical>
						<string>1</string>
						<fret>3</fret>
					</technical>
				</notations>
			</note>
			<forward>
				<duration>60</duration>
			</forward>
			<note>
				<pitch>
					<step>G</step>
					<octave>4</octave>
				</pitch>
				<duration>60</duration>
				<voice>1</voice>
				<type>16th</type>
				<stem>none</stem>
				<notations>
					<technical>
						<string>5</string>
						<fret>0</fret>
					</technical>
				</notations>
			</note>
			<note>
				<chord/>
				<pitch>
					<step>F</step>
					<octave>4</octave>
				</pitch>
				<duration>60</duration>
				<voice>1</voice>
				<type>16th</type>
				<stem>none</stem>
				<notations>
					<technical>
						<string>1</string>
						<fret>3</fret>
					</technical>
				</notations>
			</note>
		</measure>
		<measure number="12">
			<note>
				<pitch>
					<step>C</step>
					<octave>4</octave>
				</pitch>
				<duration>60</duration>
				<voice>1</voice>
				<type>16th</type>
				<stem>none</stem>
				<notations>
					<technical>
						<string>3</string>
						<fret>5</fret>
					</technical>
				</notations>
			</note>
			<note>
				<pitch>
					<step>D</step>
					<alter>1</alter>
					<octave>4</octave>
				</pitch>
				<duration>60</duration>
				<voice>1</voice>
				<type>16th</type>
				<stem>none</stem>
				<notations>
					<technical>
						<string>2</string>
						<fret>4</fret>
					</technical>
				</notations>
			</note>
			<note>
				<pitch>
					<step>F</step>
					<octave>4</octave>
				</pitch>
				<duration>60</duration>
				<voice>1</voice>
				<type>16th</type>
				<stem>none</stem>
				<notations>
					<technical>
						<string>1</string>
						<fret>3</fret>
					</technical>
				</notations>
			</note>
			<note>
				<pitch>
					<step>G</step>
					<octave>4</octave>
				</pitch>
				<duration>60</duration>
				<voice>1</voice>
				<type>16th</type>
				<stem>none</stem>
				<notations>
					<technical>
						<string>5</string>
						<fret>0</fret>
					</technical>
				</notations>
			</note>
			<note>
				<pitch>
					<step>F</step>
					<octave>4</octave>
				</pitch>
				<duration>60</duration>
				<voice>1</voice>
				<type>16th</type>
				<stem>none</stem>
				<notations>
					<technical>
						<string>1</string>
						<fret>3</fret>
					</technical>
				</notations>
			</note>
			<note>
				<pitch>
					<step>D</step>
					<alter>1</alter>
					<octave>4</octave>
				</pitch>
				<duration>60</duration>
				<voice>1</voice>
				<type>16th</type>
				<stem>none</stem>
				<notations>
					<technical>
						<string>2</string>
						<fret>4</fret>
					</technical>
				</notations>
			</note>
			<note>
				<pitch>
					<step>C</step>
					<octave>4</octave>
				</pitch>
				<duration>60</duration>
				<voice>1</voice>
				<type>16th</type>
				<stem>none</stem>
				<notations>
					<technical>
						<string>3</string>
						<fret>5</fret>
					</technical>
				</notations>
			</note>
			<note>
				<pitch>
					<step>F</step>
					<octave>4</octave>
				</pitch>
				<duration>60</duration>
				<voice>1</voice>
				<type>16th</type>
				<stem>none</stem>
				<notations>
					<technical>
						<string>1</string>
						<fret>3</fret>
					</technical>
				</notations>
			</note>
		</measure>
		<measure number="13">
			<note>
				<pitch>
					<step>D</step>
					<octave>4</octave>
				</pitch>
				<duration>60</duration>
				<voice>1</voice>
				<type>16th</type>
				<stem>none</stem>
				<notations>
					<technical>
						<string>3</string>
						<fret>7</fret>
					</technical>
				</notations>
			</note>
			<note>
				<pitch>
					<step>F</step>
					<octave>4</octave>
				</pitch>
				<duration>60</duration>
				<voice>1</voice>
				<type>16th</type>
				<stem>none</stem>
				<notations>
					<technical>
						<string>2</string>
						<fret>6</fret>
					</technical>
				</notations>
			</note>
			<note>
				<pitch>
					<step>G</step>
					<octave>4</octave>
				</pitch>
				<duration>60</duration>
				<voice>1</voice>
				<type>16th</type>
				<stem>none</stem>
				<notations>
					<technical>
						<string>1</string>
						<fret>5</fret>
					</technical>
				</notations>
			</note>
			<note>
				<pitch>
					<step>G</step>
					<octave>4</octave>
				</pitch>
				<duration>60</duration>
				<voice>1</voice>
				<type>16th</type>
				<stem>none</stem>
				<notations>
					<technical>
						<string>5</string>
						<fret>0</fret>
					</technical>
				</notations>
			</note>
			<note>
				<pitch>
					<step>G</step>
					<octave>4</octave>
				</pitch>
				<duration>60</duration>
				<voice>1</voice>
				<type>16th</type>
				<stem>none</stem>
				<notations>
					<technical>
						<string>1</string>
						<fret>5</fret>
					</technical>
				</notations>
			</note>
			<forward>
				<duration>60</duration>
			</forward>
			<note>
				<pitch>
					<step>G</step>
					<octave>4</octave>
				</pitch>
				<duration>60</duration>
				<voice>1</voice>
				<type>16th</type>
				<stem>none</stem>
				<notations>
					<technical>
						<string>5</string>
						<fret>0</fret>
					</technical>
				</notations>
			</note>
			<note>
				<chord/>
				<pitch>
					<step>G</step>
					<octave>4</octave>
				</pitch>
				<duration>60</duration>
				<voice>1</voice>
				<type>16th</type>
				<stem>none</stem>
				<notations>
					<technical>
						<string>1</string>
						<fret>5</fret>
					</technical>
				</notations>
			</note>
		</measure>
		<measure number="14">
			<note>
				<pitch>
					<step>D</step>
					<octave>4</octave>
				</pitch>
				<duration>60</duration>
				<voice>1</voice>
				<type>16th</type>
				<stem>none</stem>
				<notations>
					<technical>
						<string>3</string>
						<fret>7</fret>
					</technical>
				</notations>
			</note>
			<note>
				<pitch>
					<step>F</step>
					<octave>4</octave>
				</pitch>
				<duration>60</duration>
				<voice>1</voice>
				<type>16th</type>
				<stem>none</stem>
				<notations>
					<technical>
						<string>2</string>
						<fret>6</fret>
					</technical>
				</notations>
			</note>
			<note>
				<pitch>
					<step>G</step>
					<octave>4</octave>
				</pitch>
				<duration>60</duration>
				<voice>1</voice>
				<type>16th</type>
				<stem>none</stem>
				<notations>
					<technical>
						<string>1</string>
						<fret>5</fret>
					</technical>
				</notations>
			</note>
			<note>
				<pitch>
					<step>G</step>
					<octave>4</octave>
				</pitch>
				<duration>60</duration>
				<voice>1</voice>
				<type>16th</type>
				<stem>none</stem>
				<notations>
					<technical>
						<string>5</string>
						<fret>0</fret>
					</technical>
				</notations>
			</note>
			<note>
				<pitch>
					<step>G</step>
					<octave>4</octave>
				</pitch>
				<duration>60</duration>
				<voice>1</voice>
				<type>16th</type>
				<stem>none</stem>
				<notations>
					<technical>
						<string>1</string>
						<fret>5</fret>
					</technical>
				</notations>
			</note>
			<note>
				<pitch>
					<step>F</step>
					<octave>4</octave>
				</pitch>
				<duration>60</duration>
				<voice>1</voice>
				<type>16th</type>
				<stem>none</stem>
				<notations>
					<technical>
						<string>2</string>
						<fret>6</fret>
					</technical>
				</notations>
			</note>
			<note>
				<pitch>
					<step>D</step>
					<octave>4</octave>
				</pitch>
				<duration>60</duration>
				<voice>1</voice>
				<type>16th</type>
				<stem>none</stem>
				<notations>
					<technical>
						<string>3</string>
						<fret>7</fret>
					</technical>
				</notations>
			</note>
			<note>
				<pitch>
					<step>G</step>
					<octave>4</octave>
				</pitch>
				<duration>60</duration>
				<voice>1</voice>
				<type>16th</type>
				<stem>none</stem>
				<notations>
					<technical>
						<string>1</string>
						<fret>5</fret>
					</technical>
				</notations>
			</note>
		</measure>
		<measure number="15">
			<note>
				<pitch>
					<step>G</step>
					<octave>4</octave>
				</pitch>
				<duration>60</duration>
				<voice>1</voice>
				<type>16th</type>
				<stem>none</stem>
				<notations>
					<technical>
						<string>5</string>
						<fret>0</fret>
					</technical>
				</notations>
			</note>
			<note>
				<pitch>
					<step>D</step>
					<octave>4</octave>
				</pitch>
				<duration>60</duration>
				<voice>1</voice>
				<type>16th</type>
				<stem>none</stem>
				<notations>
					<technical>
						<string>2</string>
						<fret>3</fret>
					</technical>
				</notations>
			</note>
			<note>
				<pitch>
					<step>F</step>
					<octave>4</octave>
				</pitch>
				<duration>60</duration>
				<voice>1</voice>
				<type>16th</type>
				<stem>none</stem>
				<notations>
					<technical>
						<string>1</string>
						<fret>3</fret>
					</technical>
				</notations>
			</note>
			<note>
				<pitch>
					<step>G</step>
					<octave>4</octave>
				</pitch>
				<duration>60</duration>
				<voice>1</voice>
				<type>16th</type>
				<stem>none</stem>
				<notations>
					<technical>
						<string>5</string>
						<fret>0</fret>
					</technical>
				</notations>
			</note>
			<note>
				<pitch>
					<step>D</step>
					<octave>4</octave>
				</pitch>
				<duration>60</duration>
				<voice>1</voice>
				<type>16th</type>
				<stem>none</stem>
				<notations>
					<technical>
						<string>1</string>
						<fret>0</fret>
					</technical>
				</notations>
			</note>
			<note>
				<pitch>
					<step>B</step>
					<octave>3</octave>
				</pitch>
				<duration>60</duration>
				<voice>1</voice>
				<type>16th</type>
				<stem>none</stem>
				<notations>
					<technical>
						<string>2</string>
						<fret>0</fret>
					</technical>
				</notations>
			</note>
			<note>
				<pitch>
					<step>A</step>
					<alter>1</alter>
					<octave>3</octave>
				</pitch>
				<duration>30</duration>
				<voice>1</voice>
				<type>32nd</type>
				<stem>none</stem>
				<notations>
					<technical>
						<pull-off type="start">Po</pull-off>
						<string>3</string>
						<fret>3</fret>
					</technical>
					<slur type="start" number="1"/>
				</notations>
			</note>
			<note>
				<pitch>
					<step>A</step>
					<octave>3</octave>
				</pitch>
				<duration>60</duration>
				<voice>1</voice>
				<type>16th</type>
				<stem>none</stem>
				<notations>
					<technical>
						<pull-off type="stop"></pull-off>
						<string>3</string>
						<fret>2</fret>
					</technical>
					<slur type="stop" number="1"/>
				</notations>
			</note>
			<backup>
				<duration>30</duration>
			</backup>
			<note>
				<pitch>
					<step>D</step>
					<octave>4</octave>
				</pitch>
				<duration>60</duration>
				<voice>1</voice>
				<type>16th</type>
				<stem>none</stem>
				<notations>
					<technical>
						<string>1</string>
						<fret>0</fret>
					</technical>
				</notations>
			</note>
		</measure>
		<measure number="16">
			<note>
				<pitch>
					<step>G</step>
					<octave>3</octave>
				</pitch>
				<duration>60</duration>
				<voice>1</voice>
				<type>16th</type>
				<stem>none</stem>
				<notations>
					<technical>
						<string>3</string>
						<fret>0</fret>
					</technical>
				</notations>
			</note>
			<note>
				<pitch>
					<step>D</step>
					<octave>4</octave>
				</pitch>
				<duration>60</duration>
				<voice>1</voice>
				<type>16th</type>
				<stem>none</stem>
				<notations>
					<technical>
						<string>1</string>
						<fret>0</fret>
					</technical>
				</notations>
			</note>
			<note>
				<pitch>
					<step>F</step>
					<octave>3</octave>
				</pitch>
				<duration>60</duration>
				<voice>1</voice>
				<type>16th</type>
				<stem>none</stem>
				<notations>
					<technical>
						<string>4</string>
						<fret>3</fret>
					</technical>
				</notations>
			</note>
			<note>
				<pitch>
					<step>D</step>
					<octave>4</octave>
				</pitch>
				<duration>60</duration>
				<voice>1</voice>
				<type>16th</type>
				<stem>none</stem>
				<notations>
					<technical>
						<string>1</string>
						<fret>0</fret>
					</technical>
				</notations>
			</note>
			<note>
				<pitch>
					<step>G</step>
					<octave>3</octave>
				</pitch>
				<duration>60</duration>
				<voice>2</voice>
				<type>16th</type>
				<stem>none</stem>
				<notations>
					<technical>
						<string>3</string>
						<fret>0</fret>
					</technical>
				</notations>
			</note>
			<forward>
				<duration>60</duration>
			</forward>
			<note>
				<pitch>
					<step>G</step>
					<octave>4</octave>
				</pitch>
				<duration>30</duration>
				<voice>1</voice>
				<type>32nd</type>
				<stem>none</stem>
				<notations>
					<technical>
						<string>5</string>
						<fret>0</fret>
					</technical>
				</notations>
			</note>
			<backup>
				<duration>30</duration>
			</backup>
			<note>
				<pitch>
					<step>D</step>
					<octave>4</octave>
				</pitch>
				<duration>60</duration>
				<voice>1</voice>
				<type>16th</type>
				<stem>none</stem>
				<notations>
					<technical>
						<string>1</string>
						<fret>0</fret>
					</technical>
				</notations>
			</note>
		</measure>
		<measure number="17">
			<note>
				<pitch>
					<step>F</step>
					<octave>3</octave>
				</pitch>
				<duration>30</duration>
				<voice>1</voice>
				<type>32nd</type>
				<stem>none</stem>
				<notations>
					<technical>
						<slide type="start">Sl</slide>
						<string>4</string>
						<fret>3</fret>
					</technical>
						<slide line-type="solid" type="start" number="1">0</slide>
				</notations>
			</note>
			<direction placement="above">
				<direction-type>
					<words>VERSE</words>
				</direction-type>
			</direction>
			<note>
				<pitch>
					<step>G</step>
					<octave>3</octave>
				</pitch>
				<duration>60</duration>
				<voice>1</voice>
				<type>16th</type>
				<stem>none</stem>
				<notations>
					<technical>
						<slide type="stop"></slide>
						<string>4</string>
						<fret>5</fret>
					</technical>
						<slide line-type="solid" type="stop" number="1">0</slide>
				</notations>
			</note>
			<backup>
				<duration>30</duration>
			</backup>
			<note>
				<rest/>
				<duration>60</duration>
				<voice>1</voice>
				<type>16th</type>
				<stem>none</stem>
			</note>
			<direction placement="above">
				<direction-type>
					<words>PART 2</words>
				</direction-type>
			</direction>
			<note>
				<pitch>
					<step>G</step>
					<octave>4</octave>
				</pitch>
				<duration>60</duration>
				<voice>1</voice>
				<type>16th</type>
				<stem>none</stem>
				<notations>
					<technical>
						<string>5</string>
						<fret>0</fret>
					</technical>
				</notations>
			</note>
			<note>
				<pitch>
					<step>G</step>
					<octave>3</octave>
				</pitch>
				<duration>60</duration>
				<voice>1</voice>
				<type>16th</type>
				<stem>none</stem>
				<notations>
					<technical>
						<string>3</string>
						<fret>0</fret>
					</technical>
				</notations>
			</note>
			<note>
				<pitch>
					<step>D</step>
					<octave>4</octave>
				</pitch>
				<duration>60</duration>
				<voice>1</voice>
				<type>16th</type>
				<stem>none</stem>
				<notations>
					<technical>
						<string>1</string>
						<fret>0</fret>
					</technical>
				</notations>
			</note>
			<note>
				<pitch>
					<step>G</step>
					<octave>4</octave>
				</pitch>
				<duration>60</duration>
				<voice>1</voice>
				<type>16th</type>
				<stem>none</stem>
				<notations>
					<technical>
						<string>5</string>
						<fret>0</fret>
					</technical>
				</notations>
			</note>
			<note>
				<pitch>
					<step>G</step>
					<octave>3</octave>
				</pitch>
				<duration>60</duration>
				<voice>1</voice>
				<type>16th</type>
				<stem>none</stem>
				<notations>
					<technical>
						<string>3</string>
						<fret>0</fret>
					</technical>
				</notations>
			</note>
			<note>
				<pitch>
					<step>D</step>
					<octave>4</octave>
				</pitch>
				<duration>60</duration>
				<voice>1</voice>
				<type>16th</type>
				<stem>none</stem>
				<notations>
					<technical>
						<string>1</string>
						<fret>0</fret>
					</technical>
				</notations>
			</note>
		</measure>
		<measure number="18">
			<note>
				<pitch>
					<step>A</step>
					<octave>3</octave>
				</pitch>
				<duration>30</duration>
				<voice>1</voice>
				<type>32nd</type>
				<stem>none</stem>
				<notations>
					<technical>
						<slide type="start">Sl</slide>
						<string>3</string>
						<fret>2</fret>
					</technical>
						<slide line-type="solid" type="start" number="1">0</slide>
				</notations>
			</note>
			<note>
				<pitch>
					<step>A</step>
					<alter>1</alter>
					<octave>3</octave>
				</pitch>
				<duration>60</duration>
				<voice>1</voice>
				<type>16th</type>
				<stem>none</stem>
				<notations>
					<technical>
						<slide type="stop"></slide>
						<string>3</string>
						<fret>3</fret>
					</technical>
						<slide line-type="solid" type="stop" number="1">0</slide>
				</notations>
			</note>
			<backup>
				<duration>30</duration>
			</backup>
			<note>
				<pitch>
					<step>B</step>
					<octave>3</octave>
				</pitch>
				<duration>60</duration>
				<voice>1</voice>
				<type>16th</type>
				<stem>none</stem>
				<notations>
					<technical>
						<string>2</string>
						<fret>0</fret>
					</technical>
				</notations>
			</note>
			<note>
				<pitch>
					<step>G</step>
					<octave>4</octave>
				</pitch>
				<duration>60</duration>
				<voice>1</voice>
				<type>16th</type>
				<stem>none</stem>
				<notations>
					<technical>
						<string>5</string>
						<fret>0</fret>
					</technical>
				</notations>
			</note>
			<note>
				<pitch>
					<step>D</step>
					<octave>4</octave>
				</pitch>
				<duration>60</duration>
				<voice>1</voice>
				<type>16th</type>
				<stem>none</stem>
				<notations>
					<technical>
						<string>1</string>
						<fret>0</fret>
					</technical>
				</notations>
			</note>
			<note>
				<pitch>
					<step>C</step>
					<octave>4</octave>
				</pitch>
				<duration>60</duration>
				<voice>1</voice>
				<type>16th</type>
				<stem>none</stem>
				<notations>
					<technical>
						<string>2</string>
						<fret>1</fret>
					</technical>
				</notations>
			</note>
			<forward>
				<duration>60</duration>
			</forward>
			<note>
				<pitch>
					<step>G</step>
					<octave>4</octave>
				</pitch>
				<duration>60</duration>
				<voice>1</voice>
				<type>16th</type>
				<stem>none</stem>
				<notations>
					<technical>
						<string>5</string>
						<fret>0</fret>
					</technical>
				</notations>
			</note>
			<note>
				<pitch>
					<step>D</step>
					<octave>4</octave>
				</pitch>
				<duration>60</duration>
				<voice>1</voice>
				<type>16th</type>
				<stem>none</stem>
				<notations>
					<technical>
						<string>1</string>
						<fret>0</fret>
					</technical>
				</notations>
			</note>
		</measure>
		<measure number="19">
			<note>
				<pitch>
					<step>A</step>
					<octave>3</octave>
				</pitch>
				<duration>30</duration>
				<voice>1</voice>
				<type>32nd</type>
				<stem>none</stem>
				<notations>
					<technical>
						<pull-off type="start">Po</pull-off>
						<string>3</string>
						<fret>2</fret>
					</technical>
					<slur type="start" number="1"/>
				</notations>
			</note>
			<note>
				<pitch>
					<step>G</step>
					<octave>3</octave>
				</pitch>
				<duration>60</duration>
				<voice>1</voice>
				<type>16th</type>
				<stem>none</stem>
				<notations>
					<technical>
						<pull-off type="stop"></pull-off>
						<string>3</string>
						<fret>0</fret>
					</technical>
					<slur type="stop" number="1"/>
				</notations>
			</note>
			<backup>
				<duration>30</duration>
			</backup>
			<note>
				<pitch>
					<step>C</step>
					<octave>4</octave>
				</pitch>
				<duration>60</duration>
				<voice>1</voice>
				<type>16th</type>
				<stem>none</stem>
				<notations>
					<technical>
						<string>2</string>
						<fret>1</fret>
					</technical>
				</notations>
			</note>
			<note>
				<pitch>
					<step>F</step>
					<octave>3</octave>
				</pitch>
				<duration>60</duration>
				<voice>1</voice>
				<type>16th</type>
				<stem>none</stem>
				<notations>
					<technical>
						<string>4</string>
						<fret>3</fret>
					</technical>
				</notations>
			</note>
			<note>
				<pitch>
					<step>D</step>
					<octave>4</octave>
				</pitch>
				<duration>60</duration>
				<voice>1</voice>
				<type>16th</type>
				<stem>none</stem>
				<notations>
					<technical>
						<string>1</string>
						<fret>0</fret>
					</technical>
				</notations>
			</note>
			<note>
				<pitch>
					<step>A</step>
					<octave>3</octave>
				</pitch>
				<duration>30</duration>
				<voice>1</voice>
				<type>32nd</type>
				<stem>none</stem>
				<notations>
					<technical>
						<pull-off type="start">Po</pull-off>
						<string>3</string>
						<fret>2</fret>
					</technical>
					<slur type="start" number="1"/>
				</notations>
			</note>
			<note>
				<pitch>
					<step>G</step>
					<octave>3</octave>
				</pitch>
				<duration>60</duration>
				<voice>1</voice>
				<type>16th</type>
				<stem>none</stem>
				<notations>
					<technical>
						<pull-off type="stop"></pull-off>
						<string>3</string>
						<fret>0</fret>
					</technical>
					<slur type="stop" number="1"/>
				</notations>
			</note>
			<backup>
				<duration>30</duration>
			</backup>
			<note>
				<pitch>
					<step>C</step>
					<octave>4</octave>
				</pitch>
				<duration>60</duration>
				<voice>1</voice>
				<type>16th</type>
				<stem>none</stem>
				<notations>
					<technical>
						<string>2</string>
						<fret>1</fret>
					</technical>
				</notations>
			</note>
			<note>
				<pitch>
					<step>F</step>
					<octave>3</octave>
				</pitch>
				<duration>60</duration>
				<voice>1</voice>
				<type>16th</type>
				<stem>none</stem>
				<notations>
					<technical>
						<string>4</string>
						<fret>3</fret>
					</technical>
				</notations>
			</note>
			<note>
				<pitch>
					<step>D</step>
					<octave>4</octave>
				</pitch>
				<duration>60</duration>
				<voice>1</voice>
				<type>16th</type>
				<stem>none</stem>
				<notations>
					<technical>
						<string>1</string>
						<fret>0</fret>
					</technical>
				</notations>
			</note>
		</measure>
		<measure number="20">
			<note>
				<pitch>
					<step>A</step>
					<octave>3</octave>
				</pitch>
				<duration>60</duration>
				<voice>1</voice>
				<type>16th</type>
				<stem>none</stem>
				<notations>
					<technical>
						<string>3</string>
						<fret>2</fret>
					</technical>
				</notations>
			</note>
			<note>
				<pitch>
					<step>D</step>
					<octave>4</octave>
				</pitch>
				<duration>60</duration>
				<voice>1</voice>
				<type>16th</type>
				<stem>none</stem>
				<notations>
					<technical>
						<string>1</string>
						<fret>0</fret>
					</technical>
				</notations>
			</note>
			<note>
				<pitch>
					<step>G</step>
					<octave>4</octave>
				</pitch>
				<duration>60</duration>
				<voice>1</voice>
				<type>16th</type>
				<stem>none</stem>
				<notations>
					<technical>
						<string>5</string>
						<fret>0</fret>
					</technical>
				</notations>
			</note>
			<note>
				<pitch>
					<step>A</step>
					<octave>3</octave>
				</pitch>
				<duration>30</duration>
				<voice>1</voice>
				<type>32nd</type>
				<stem>none</stem>
				<notations>
					<technical>
						<pull-off type="start">Po</pull-off>
						<string>3</string>
						<fret>2</fret>
					</technical>
					<slur type="start" number="1"/>
				</notations>
			</note>
			<note>
				<pitch>
					<step>G</step>
					<octave>3</octave>
				</pitch>
				<duration>60</duration>
				<voice>1</voice>
				<type>16th</type>
				<stem>none</stem>
				<notations>
					<technical>
						<pull-off type="stop"></pull-off>
						<string>3</string>
						<fret>0</fret>
					</technical>
					<slur type="stop" number="1"/>
				</notations>
			</note>
			<backup>
				<duration>30</duration>
			</backup>
			<note>
				<pitch>
					<step>D</step>
					<octave>4</octave>
				</pitch>
				<duration>60</duration>
				<voice>1</voice>
				<type>16th</type>
				<stem>none</stem>
				<notations>
					<technical>
						<string>1</string>
						<fret>0</fret>
					</technical>
				</notations>
			</note>
			<note>
				<pitch>
					<step>G</step>
					<octave>3</octave>
				</pitch>
				<duration>60</duration>
				<voice>1</voice>
				<type>16th</type>
				<stem>none</stem>
				<notations>
					<technical>
						<string>3</string>
						<fret>0</fret>
					</technical>
				</notations>
			</note>
			<note>
				<pitch>
					<step>F</step>
					<octave>3</octave>
				</pitch>
				<duration>60</duration>
				<voice>1</voice>
				<type>16th</type>
				<stem>none</stem>
				<notations>
					<technical>
						<string>4</string>
						<fret>3</fret>
					</technical>
				</notations>
			</note>
			<note>
				<pitch>
					<step>D</step>
					<octave>4</octave>
				</pitch>
				<duration>60</duration>
				<voice>1</voice>
				<type>16th</type>
				<stem>none</stem>
				<notations>
					<technical>
						<string>1</string>
						<fret>0</fret>
					</technical>
				</notations>
			</note>
		</measure>
		<measure number="21">
			<note>
				<pitch>
					<step>F</step>
					<octave>3</octave>
				</pitch>
				<duration>30</duration>
				<voice>1</voice>
				<type>32nd</type>
				<stem>none</stem>
				<notations>
					<technical>
						<slide type="start">Sl</slide>
						<string>4</string>
						<fret>3</fret>
					</technical>
						<slide line-type="solid" type="start" number="1">0</slide>
				</notations>
			</note>
			<note>
				<pitch>
					<step>G</step>
					<octave>3</octave>
				</pitch>
				<duration>30</duration>
				<voice>1</voice>
				<type>32nd</type>
				<stem>none</stem>
				<notations>
					<technical>
						<slide type="stop"></slide>
						<string>4</string>
						<fret>5</fret>
					</technical>
						<slide line-type="solid" type="stop" number="1">0</slide>
				</notations>
			</note>
			<note>
				<rest/>
				<duration>60</duration>
				<voice>1</voice>
				<type>16th</type>
				<stem>none</stem>
			</note>
			<note>
				<pitch>
					<step>G</step>
					<octave>4</octave>
				</pitch>
				<duration>60</duration>
				<voice>1</voice>
				<type>16th</type>
				<stem>none</stem>
				<notations>
					<technical>
						<string>5</string>
						<fret>0</fret>
					</technical>
				</notations>
			</note>
			<note>
				<pitch>
					<step>G</step>
					<octave>3</octave>
				</pitch>
				<duration>60</duration>
				<voice>1</voice>
				<type>16th</type>
				<stem>none</stem>
				<notations>
					<technical>
						<string>3</string>
						<fret>0</fret>
					</technical>
				</notations>
			</note>
			<note>
				<pitch>
					<step>D</step>
					<octave>4</octave>
				</pitch>
				<duration>60</duration>
				<voice>1</voice>
				<type>16th</type>
				<stem>none</stem>
				<notations>
					<technical>
						<string>1</string>
						<fret>0</fret>
					</technical>
				</notations>
			</note>
			<note>
				<pitch>
					<step>G</step>
					<octave>4</octave>
				</pitch>
				<duration>60</duration>
				<voice>1</voice>
				<type>16th</type>
				<stem>none</stem>
				<notations>
					<technical>
						<string>5</string>
						<fret>0</fret>
					</technical>
				</notations>
			</note>
			<note>
				<pitch>
					<step>G</step>
					<octave>3</octave>
				</pitch>
				<duration>60</duration>
				<voice>1</voice>
				<type>16th</type>
				<stem>none</stem>
				<notations>
					<technical>
						<string>3</string>
						<fret>0</fret>
					</technical>
				</notations>
			</note>
			<note>
				<pitch>
					<step>D</step>
					<octave>4</octave>
				</pitch>
				<duration>60</duration>
				<voice>1</voice>
				<type>16th</type>
				<stem>none</stem>
				<notations>
					<technical>
						<string>1</string>
						<fret>0</fret>
					</technical>
				</notations>
			</note>
		</measure>
		<measure number="22">
			<note>
				<pitch>
					<step>A</step>
					<octave>3</octave>
				</pitch>
				<duration>30</duration>
				<voice>1</voice>
				<type>32nd</type>
				<stem>none</stem>
				<notations>
					<technical>
						<slide type="start">Sl</slide>
						<string>3</string>
						<fret>2</fret>
					</technical>
						<slide line-type="solid" type="start" number="1">0</slide>
				</notations>
			</note>
			<note>
				<pitch>
					<step>A</step>
					<alter>1</alter>
					<octave>3</octave>
				</pitch>
				<duration>60</duration>
				<voice>1</voice>
				<type>16th</type>
				<stem>none</stem>
				<notations>
					<technical>
						<slide type="stop"></slide>
						<string>3</string>
						<fret>3</fret>
					</technical>
						<slide line-type="solid" type="stop" number="1">0</slide>
				</notations>
			</note>
			<backup>
				<duration>30</duration>
			</backup>
			<note>
				<pitch>
					<step>B</step>
					<octave>3</octave>
				</pitch>
				<duration>60</duration>
				<voice>1</voice>
				<type>16th</type>
				<stem>none</stem>
				<notations>
					<technical>
						<string>2</string>
						<fret>0</fret>
					</technical>
				</notations>
			</note>
			<note>
				<pitch>
					<step>G</step>
					<octave>4</octave>
				</pitch>
				<duration>60</duration>
				<voice>1</voice>
				<type>16th</type>
				<stem>none</stem>
				<notations>
					<technical>
						<string>5</string>
						<fret>0</fret>
					</technical>
				</notations>
			</note>
			<note>
				<pitch>
					<step>D</step>
					<octave>4</octave>
				</pitch>
				<duration>60</duration>
				<voice>1</voice>
				<type>16th</type>
				<stem>none</stem>
				<notations>
					<technical>
						<string>1</string>
						<fret>0</fret>
					</technical>
				</notations>
			</note>
			<note>
				<pitch>
					<step>C</step>
					<octave>4</octave>
				</pitch>
				<duration>60</duration>
				<voice>1</voice>
				<type>16th</type>
				<stem>none</stem>
				<notations>
					<technical>
						<string>2</string>
						<fret>1</fret>
					</technical>
				</notations>
			</note>
			<forward>
				<duration>60</duration>
			</forward>
			<note>
				<pitch>
					<step>G</step>
					<octave>4</octave>
				</pitch>
				<duration>60</duration>
				<voice>1</voice>
				<type>16th</type>
				<stem>none</stem>
				<notations>
					<technical>
						<string>5</string>
						<fret>0</fret>
					</technical>
				</notations>
			</note>
			<note>
				<pitch>
					<step>D</step>
					<octave>4</octave>
				</pitch>
				<duration>60</duration>
				<voice>1</voice>
				<type>16th</type>
				<stem>none</stem>
				<notations>
					<technical>
						<string>1</string>
						<fret>0</fret>
					</technical>
				</notations>
			</note>
		</measure>
		<measure number="23">
			<note>
				<pitch>
					<step>G</step>
					<octave>4</octave>
				</pitch>
				<duration>60</duration>
				<voice>1</voice>
				<type>16th</type>
				<stem>none</stem>
				<notations>
					<technical>
						<string>5</string>
						<fret>0</fret>
					</technical>
				</notations>
			</note>
			<note>
				<pitch>
					<step>C</step>
					<octave>4</octave>
				</pitch>
				<duration>60</duration>
				<voice>1</voice>
				<type>16th</type>
				<stem>none</stem>
				<notations>
					<technical>
						<string>2</string>
						<fret>1</fret>
					</technical>
				</notations>
			</note>
			<note>
				<pitch>
					<step>F</step>
					<octave>4</octave>
				</pitch>
				<duration>60</duration>
				<voice>1</voice>
				<type>16th</type>
				<stem>none</stem>
				<notations>
					<technical>
						<string>1</string>
						<fret>3</fret>
					</technical>
				</notations>
			</note>
			<note>
				<pitch>
					<step>G</step>
					<octave>4</octave>
				</pitch>
				<duration>60</duration>
				<voice>1</voice>
				<type>16th</type>
				<stem>none</stem>
				<notations>
					<technical>
						<string>5</string>
						<fret>0</fret>
					</technical>
				</notations>
			</note>
			<note>
				<pitch>
					<step>D</step>
					<octave>4</octave>
				</pitch>
				<duration>60</duration>
				<voice>1</voice>
				<type>16th</type>
				<stem>none</stem>
				<notations>
					<technical>
						<string>1</string>
						<fret>0</fret>
					</technical>
				</notations>
			</note>
			<note>
				<pitch>
					<step>C</step>
					<octave>4</octave>
				</pitch>
				<duration>60</duration>
				<voice>1</voice>
				<type>16th</type>
				<stem>none</stem>
				<notations>
					<technical>
						<string>2</string>
						<fret>1</fret>
					</technical>
				</notations>
			</note>
			<note>
				<pitch>
					<step>A</step>
					<alter>1</alter>
					<octave>3</octave>
				</pitch>
				<duration>60</duration>
				<voice>1</voice>
				<type>16th</type>
				<stem>none</stem>
				<notations>
					<technical>
						<string>3</string>
						<fret>3</fret>
					</technical>
				</notations>
			</note>
			<note>
				<pitch>
					<step>D</step>
					<octave>4</octave>
				</pitch>
				<duration>60</duration>
				<voice>1</voice>
				<type>16th</type>
				<stem>none</stem>
				<notations>
					<technical>
						<string>1</string>
						<fret>0</fret>
					</technical>
				</notations>
			</note>
		</measure>
		<measure number="24">
			<note>
				<pitch>
					<step>G</step>
					<octave>3</octave>
				</pitch>
				<duration>60</duration>
				<voice>1</voice>
				<type>16th</type>
				<stem>none</stem>
				<notations>
					<technical>
						<string>3</string>
						<fret>0</fret>
					</technical>
				</notations>
			</note>
			<note>
				<pitch>
					<step>C</step>
					<octave>4</octave>
				</pitch>
				<duration>60</duration>
				<voice>1</voice>
				<type>16th</type>
				<stem>none</stem>
				<notations>
					<technical>
						<string>2</string>
						<fret>1</fret>
					</technical>
				</notations>
			</note>
			<note>
				<pitch>
					<step>F</step>
					<octave>3</octave>
				</pitch>
				<duration>60</duration>
				<voice>1</voice>
				<type>16th</type>
				<stem>none</stem>
				<notations>
					<technical>
						<string>4</string>
						<fret>3</fret>
					</technical>
				</notations>
			</note>
			<note>
				<pitch>
					<step>D</step>
					<octave>4</octave>
				</pitch>
				<duration>60</duration>
				<voice>1</voice>
				<type>16th</type>
				<stem>none</stem>
				<notations>
					<technical>
						<string>1</string>
						<fret>0</fret>
					</technical>
				</notations>
			</note>
			<note>
				<pitch>
					<step>G</step>
					<octave>3</octave>
				</pitch>
				<duration>60</duration>
				<voice>2</voice>
				<type>16th</type>
				<stem>none</stem>
				<notations>
					<technical>
						<string>3</string>
						<fret>0</fret>
					</technical>
				</notations>
			</note>
			<forward>
				<duration>60</duration>
			</forward>
			<note>
				<pitch>
					<step>G</step>
					<octave>4</octave>
				</pitch>
				<duration>30</duration>
				<voice>1</voice>
				<type>32nd</type>
				<stem>none</stem>
				<notations>
					<technical>
						<string>5</string>
						<fret>0</fret>
					</technical>
				</notations>
			</note>
			<backup>
				<duration>30</duration>
			</backup>
			<note>
				<pitch>
					<step>D</step>
					<octave>4</octave>
				</pitch>
				<duration>60</duration>
				<voice>1</voice>
				<type>16th</type>
				<stem>none</stem>
				<notations>
					<technical>
						<string>1</string>
						<fret>0</fret>
					</technical>
				</notations>
			</note>
		</measure>
		<measure number="25">
			<note>
				<pitch>
					<step>D</step>
					<octave>4</octave>
				</pitch>
				<duration>60</duration>
				<voice>1</voice>
				<type>16th</type>
				<stem>none</stem>
				<notations>
					<technical>
						<string>3</string>
						<fret>7</fret>
					</technical>
				</notations>
			</note>
			<direction placement="above">
				<direction-type>
					<words>CHORUS</words>
				</direction-type>
			</direction>
			<note>
				<pitch>
					<step>F</step>
					<octave>4</octave>
				</pitch>
				<duration>60</duration>
				<voice>1</voice>
				<type>16th</type>
				<stem>none</stem>
				<notations>
					<technical>
						<string>2</string>
						<fret>6</fret>
					</technical>
				</notations>
			</note>
			<note>
				<pitch>
					<step>G</step>
					<octave>4</octave>
				</pitch>
				<duration>60</duration>
				<voice>1</voice>
				<type>16th</type>
				<stem>none</stem>
				<notations>
					<technical>
						<string>1</string>
						<fret>5</fret>
					</technical>
				</notations>
			</note>
			<note>
				<pitch>
					<step>G</step>
					<octave>4</octave>
				</pitch>
				<duration>60</duration>
				<voice>1</voice>
				<type>16th</type>
				<stem>none</stem>
				<notations>
					<technical>
						<string>5</string>
						<fret>0</fret>
					</technical>
				</notations>
			</note>
			<note>
				<pitch>
					<step>G</step>
					<octave>4</octave>
				</pitch>
				<duration>60</duration>
				<voice>1</voice>
				<type>16th</type>
				<stem>none</stem>
				<notations>
					<technical>
						<string>1</string>
						<fret>5</fret>
					</technical>
				</notations>
			</note>
			<forward>
				<duration>60</duration>
			</forward>
			<note>
				<pitch>
					<step>G</step>
					<octave>4</octave>
				</pitch>
				<duration>60</duration>
				<voice>1</voice>
				<type>16th</type>
				<stem>none</stem>
				<notations>
					<technical>
						<string>5</string>
						<fret>0</fret>
					</technical>
				</notations>
			</note>
			<note>
				<chord/>
				<pitch>
					<step>G</step>
					<octave>4</octave>
				</pitch>
				<duration>60</duration>
				<voice>1</voice>
				<type>16th</type>
				<stem>none</stem>
				<notations>
					<technical>
						<string>1</string>
						<fret>5</fret>
					</technical>
				</notations>
			</note>
		</measure>
		<measure number="26">
			<note>
				<pitch>
					<step>D</step>
					<octave>4</octave>
				</pitch>
				<duration>60</duration>
				<voice>1</voice>
				<type>16th</type>
				<stem>none</stem>
				<notations>
					<technical>
						<string>3</string>
						<fret>7</fret>
					</technical>
				</notations>
			</note>
			<note>
				<pitch>
					<step>F</step>
					<octave>4</octave>
				</pitch>
				<duration>60</duration>
				<voice>1</voice>
				<type>16th</type>
				<stem>none</stem>
				<notations>
					<technical>
						<string>2</string>
						<fret>6</fret>
					</technical>
				</notations>
			</note>
			<note>
				<pitch>
					<step>G</step>
					<octave>4</octave>
				</pitch>
				<duration>60</duration>
				<voice>1</voice>
				<type>16th</type>
				<stem>none</stem>
				<notations>
					<technical>
						<string>1</string>
						<fret>5</fret>
					</technical>
				</notations>
			</note>
			<note>
				<pitch>
					<step>G</step>
					<octave>4</octave>
				</pitch>
				<duration>60</duration>
				<voice>1</voice>
				<type>16th</type>
				<stem>none</stem>
				<notations>
					<technical>
						<string>5</string>
						<fret>0</fret>
					</technical>
				</notations>
			</note>
			<note>
				<pitch>
					<step>G</step>
					<octave>4</octave>
				</pitch>
				<duration>60</duration>
				<voice>1</voice>
				<type>16th</type>
				<stem>none</stem>
				<notations>
					<technical>
						<string>1</string>
						<fret>5</fret>
					</technical>
				</notations>
			</note>
			<note>
				<pitch>
					<step>F</step>
					<octave>4</octave>
				</pitch>
				<duration>60</duration>
				<voice>1</voice>
				<type>16th</type>
				<stem>none</stem>
				<notations>
					<technical>
						<string>2</string>
						<fret>6</fret>
					</technical>
				</notations>
			</note>
			<note>
				<pitch>
					<step>D</step>
					<octave>4</octave>
				</pitch>
				<duration>60</duration>
				<voice>1</voice>
				<type>16th</type>
				<stem>none</stem>
				<notations>
					<technical>
						<string>3</string>
						<fret>7</fret>
					</technical>
				</notations>
			</note>
			<note>
				<pitch>
					<step>G</step>
					<octave>4</octave>
				</pitch>
				<duration>60</duration>
				<voice>1</voice>
				<type>16th</type>
				<stem>none</stem>
				<notations>
					<technical>
						<string>1</string>
						<fret>5</fret>
					</technical>
				</notations>
			</note>
		</measure>
		<measure number="27">
			<note>
				<pitch>
					<step>C</step>
					<octave>4</octave>
				</pitch>
				<duration>60</duration>
				<voice>1</voice>
				<type>16th</type>
				<stem>none</stem>
				<notations>
					<technical>
						<string>3</string>
						<fret>5</fret>
					</technical>
				</notations>
			</note>
			<note>
				<pitch>
					<step>F</step>
					<octave>4</octave>
				</pitch>
				<duration>60</duration>
				<voice>1</voice>
				<type>16th</type>
				<stem>none</stem>
				<notations>
					<technical>
						<string>2</string>
						<fret>6</fret>
					</technical>
				</notations>
			</note>
			<note>
				<pitch>
					<step>A</step>
					<octave>4</octave>
				</pitch>
				<duration>60</duration>
				<voice>1</voice>
				<type>16th</type>
				<stem>none</stem>
				<notations>
					<technical>
						<string>1</string>
						<fret>7</fret>
					</technical>
				</notations>
			</note>
			<note>
				<pitch>
					<step>G</step>
					<octave>4</octave>
				</pitch>
				<duration>60</duration>
				<voice>1</voice>
				<type>16th</type>
				<stem>none</stem>
				<notations>
					<technical>
						<string>5</string>
						<fret>0</fret>
					</technical>
				</notations>
			</note>
			<note>
				<pitch>
					<step>A</step>
					<octave>4</octave>
				</pitch>
				<duration>60</duration>
				<voice>1</voice>
				<type>16th</type>
				<stem>none</stem>
				<notations>
					<technical>
						<string>1</string>
						<fret>7</fret>
					</technical>
				</notations>
			</note>
			<forward>
				<duration>60</duration>
			</forward>
			<note>
				<pitch>
					<step>G</step>
					<octave>4</octave>
				</pitch>
				<duration>60</duration>
				<voice>1</voice>
				<type>16th</type>
				<stem>none</stem>
				<notations>
					<technical>
						<string>5</string>
						<fret>0</fret>
					</technical>
				</notations>
			</note>
			<note>
				<chord/>
				<pitch>
					<step>A</step>
					<octave>4</octave>
				</pitch>
				<duration>60</duration>
				<voice>1</voice>
				<type>16th</type>
				<stem>none</stem>
				<notations>
					<technical>
						<string>1</string>
						<fret>7</fret>
					</technical>
				</notations>
			</note>
		</measure>
		<measure number="28">
			<note>
				<pitch>
					<step>C</step>
					<octave>4</octave>
				</pitch>
				<duration>60</duration>
				<voice>1</voice>
				<type>16th</type>
				<stem>none</stem>
				<notations>
					<technical>
						<string>3</string>
						<fret>5</fret>
					</technical>
				</notations>
			</note>
			<note>
				<pitch>
					<step>F</step>
					<octave>4</octave>
				</pitch>
				<duration>60</duration>
				<voice>1</voice>
				<type>16th</type>
				<stem>none</stem>
				<notations>
					<technical>
						<string>2</string>
						<fret>6</fret>
					</technical>
				</notations>
			</note>
			<note>
				<pitch>
					<step>A</step>
					<octave>4</octave>
				</pitch>
				<duration>60</duration>
				<voice>1</voice>
				<type>16th</type>
				<stem>none</stem>
				<notations>
					<technical>
						<string>1</string>
						<fret>7</fret>
					</technical>
				</notations>
			</note>
			<note>
				<pitch>
					<step>G</step>
					<octave>4</octave>
				</pitch>
				<duration>60</duration>
				<voice>1</voice>
				<type>16th</type>
				<stem>none</stem>
				<notations>
					<technical>
						<string>5</string>
						<fret>0</fret>
					</technical>
				</notations>
			</note>
			<note>
				<pitch>
					<step>A</step>
					<octave>4</octave>
				</pitch>
				<duration>60</duration>
				<voice>1</voice>
				<type>16th</type>
				<stem>none</stem>
				<notations>
					<technical>
						<string>1</string>
						<fret>7</fret>
					</technical>
				</notations>
			</note>
			<note>
				<pitch>
					<step>F</step>
					<octave>4</octave>
				</pitch>
				<duration>60</duration>
				<voice>1</voice>
				<type>16th</type>
				<stem>none</stem>
				<notations>
					<technical>
						<string>2</string>
						<fret>6</fret>
					</technical>
				</notations>
			</note>
			<note>
				<pitch>
					<step>C</step>
					<octave>4</octave>
				</pitch>
				<duration>60</duration>
				<voice>1</voice>
				<type>16th</type>
				<stem>none</stem>
				<notations>
					<technical>
						<string>3</string>
						<fret>5</fret>
					</technical>
				</notations>
			</note>
			<note>
				<pitch>
					<step>A</step>
					<octave>4</octave>
				</pitch>
				<duration>60</duration>
				<voice>1</voice>
				<type>16th</type>
				<stem>none</stem>
				<notations>
					<technical>
						<string>1</string>
						<fret>7</fret>
					</technical>
				</notations>
			</note>
		</measure>
		<measure number="29">
			<note>
				<pitch>
					<step>D</step>
					<octave>4</octave>
				</pitch>
				<duration>60</duration>
				<voice>1</voice>
				<type>16th</type>
				<stem>none</stem>
				<notations>
					<technical>
						<string>3</string>
						<fret>7</fret>
					</technical>
				</notations>
			</note>
			<note>
				<pitch>
					<step>G</step>
					<octave>4</octave>
				</pitch>
				<duration>60</duration>
				<voice>1</voice>
				<type>16th</type>
				<stem>none</stem>
				<notations>
					<technical>
						<string>2</string>
						<fret>8</fret>
					</technical>
				</notations>
			</note>
			<note>
				<pitch>
					<step>B</step>
					<octave>4</octave>
				</pitch>
				<duration>60</duration>
				<voice>1</voice>
				<type>16th</type>
				<stem>none</stem>
				<notations>
					<technical>
						<string>1</string>
						<fret>9</fret>
					</technical>
				</notations>
			</note>
			<note>
				<pitch>
					<step>G</step>
					<octave>4</octave>
				</pitch>
				<duration>60</duration>
				<voice>1</voice>
				<type>16th</type>
				<stem>none</stem>
				<notations>
					<technical>
						<string>5</string>
						<fret>0</fret>
					</technical>
				</notations>
			</note>
			<note>
				<pitch>
					<step>B</step>
					<octave>4</octave>
				</pitch>
				<duration>60</duration>
				<voice>1</voice>
				<type>16th</type>
				<stem>none</stem>
				<notations>
					<technical>
						<string>1</string>
						<fret>9</fret>
					</technical>
				</notations>
			</note>
			<forward>
				<duration>60</duration>
			</forward>
			<note>
				<pitch>
					<step>G</step>
					<octave>4</octave>
				</pitch>
				<duration>60</duration>
				<voice>1</voice>
				<type>16th</type>
				<stem>none</stem>
				<notations>
					<technical>
						<string>5</string>
						<fret>0</fret>
					</technical>
				</notations>
			</note>
			<note>
				<chord/>
				<pitch>
					<step>B</step>
					<octave>4</octave>
				</pitch>
				<duration>60</duration>
				<voice>1</voice>
				<type>16th</type>
				<stem>none</stem>
				<notations>
					<technical>
						<string>1</string>
						<fret>9</fret>
					</technical>
				</notations>
			</note>
		</measure>
		<measure number="30">
			<note>
				<pitch>
					<step>D</step>
					<octave>4</octave>
				</pitch>
				<duration>60</duration>
				<voice>1</voice>
				<type>16th</type>
				<stem>none</stem>
				<notations>
					<technical>
						<string>3</string>
						<fret>7</fret>
					</technical>
				</notations>
			</note>
			<note>
				<pitch>
					<step>G</step>
					<octave>4</octave>
				</pitch>
				<duration>60</duration>
				<voice>1</voice>
				<type>16th</type>
				<stem>none</stem>
				<notations>
					<technical>
						<string>2</string>
						<fret>8</fret>
					</technical>
				</notations>
			</note>
			<note>
				<pitch>
					<step>B</step>
					<octave>4</octave>
				</pitch>
				<duration>60</duration>
				<voice>1</voice>
				<type>16th</type>
				<stem>none</stem>
				<notations>
					<technical>
						<string>1</string>
						<fret>9</fret>
					</technical>
				</notations>
			</note>
			<note>
				<pitch>
					<step>G</step>
					<octave>4</octave>
				</pitch>
				<duration>60</duration>
				<voice>1</voice>
				<type>16th</type>
				<stem>none</stem>
				<notations>
					<technical>
						<string>5</string>
						<fret>0</fret>
					</technical>
				</notations>
			</note>
			<note>
				<pitch>
					<step>B</step>
					<octave>4</octave>
				</pitch>
				<duration>60</duration>
				<voice>1</voice>
				<type>16th</type>
				<stem>none</stem>
				<notations>
					<technical>
						<string>1</string>
						<fret>9</fret>
					</technical>
				</notations>
			</note>
			<note>
				<pitch>
					<step>G</step>
					<octave>4</octave>
				</pitch>
				<duration>60</duration>
				<voice>1</voice>
				<type>16th</type>
				<stem>none</stem>
				<notations>
					<technical>
						<string>2</string>
						<fret>8</fret>
					</technical>
				</notations>
			</note>
			<note>
				<pitch>
					<step>D</step>
					<octave>4</octave>
				</pitch>
				<duration>60</duration>
				<voice>1</voice>
				<type>16th</type>
				<stem>none</stem>
				<notations>
					<technical>
						<string>3</string>
						<fret>7</fret>
					</technical>
				</notations>
			</note>
			<note>
				<pitch>
					<step>B</step>
					<octave>4</octave>
				</pitch>
				<duration>60</duration>
				<voice>1</voice>
				<type>16th</type>
				<stem>none</stem>
				<notations>
					<technical>
						<string>1</string>
						<fret>9</fret>
					</technical>
				</notations>
			</note>
		</measure>
		<measure number="31">
			<note>
				<pitch>
					<step>G</step>
					<octave>4</octave>
				</pitch>
				<duration>60</duration>
				<voice>1</voice>
				<type>16th</type>
				<stem>none</stem>
				<notations>
					<technical>
						<string>5</string>
						<fret>0</fret>
					</technical>
				</notations>
			</note>
			<note>
				<pitch>
					<step>C</step>
					<octave>4</octave>
				</pitch>
				<duration>60</duration>
				<voice>1</voice>
				<type>16th</type>
				<stem>none</stem>
				<notations>
					<technical>
						<string>2</string>
						<fret>1</fret>
					</technical>
				</notations>
			</note>
			<note>
				<pitch>
					<step>F</step>
					<octave>4</octave>
				</pitch>
				<duration>60</duration>
				<voice>1</voice>
				<type>16th</type>
				<stem>none</stem>
				<notations>
					<technical>
						<string>1</string>
						<fret>3</fret>
					</technical>
				</notations>
			</note>
			<note>
				<pitch>
					<step>G</step>
					<octave>4</octave>
				</pitch>
				<duration>60</duration>
				<voice>1</voice>
				<type>16th</type>
				<stem>none</stem>
				<notations>
					<technical>
						<string>5</string>
						<fret>0</fret>
					</technical>
				</notations>
			</note>
			<note>
				<pitch>
					<step>D</step>
					<octave>4</octave>
				</pitch>
				<duration>60</duration>
				<voice>1</voice>
				<type>16th</type>
				<stem>none</stem>
				<notations>
					<technical>
						<string>1</string>
						<fret>0</fret>
					</technical>
				</notations>
			</note>
			<note>
				<pitch>
					<step>C</step>
					<octave>4</octave>
				</pitch>
				<duration>60</duration>
				<voice>1</voice>
				<type>16th</type>
				<stem>none</stem>
				<notations>
					<technical>
						<string>2</string>
						<fret>1</fret>
					</technical>
				</notations>
			</note>
			<note>
				<pitch>
					<step>A</step>
					<alter>1</alter>
					<octave>3</octave>
				</pitch>
				<duration>60</duration>
				<voice>1</voice>
				<type>16th</type>
				<stem>none</stem>
				<notations>
					<technical>
						<string>3</string>
						<fret>3</fret>
					</technical>
				</notations>
			</note>
			<note>
				<pitch>
					<step>D</step>
					<octave>4</octave>
				</pitch>
				<duration>60</duration>
				<voice>1</voice>
				<type>16th</type>
				<stem>none</stem>
				<notations>
					<technical>
						<string>1</string>
						<fret>0</fret>
					</technical>
				</notations>
			</note>
		</measure>
		<measure number="32">
			<note>
				<pitch>
					<step>G</step>
					<octave>3</octave>
				</pitch>
				<duration>60</duration>
				<voice>1</voice>
				<type>16th</type>
				<stem>none</stem>
				<notations>
					<technical>
						<string>3</string>
						<fret>0</fret>
					</technical>
				</notations>
			</note>
			<note>
				<pitch>
					<step>C</step>
					<octave>4</octave>
				</pitch>
				<duration>60</duration>
				<voice>1</voice>
				<type>16th</type>
				<stem>none</stem>
				<notations>
					<technical>
						<string>2</string>
						<fret>1</fret>
					</technical>
				</notations>
			</note>
			<note>
				<pitch>
					<step>F</step>
					<octave>3</octave>
				</pitch>
				<duration>60</duration>
				<voice>1</voice>
				<type>16th</type>
				<stem>none</stem>
				<notations>
					<technical>
						<string>4</string>
						<fret>3</fret>
					</technical>
				</notations>
			</note>
			<note>
				<pitch>
					<step>D</step>
					<octave>4</octave>
				</pitch>
				<duration>60</duration>
				<voice>1</voice>
				<type>16th</type>
				<stem>none</stem>
				<notations>
					<technical>
						<string>1</string>
						<fret>0</fret>
					</technical>
				</notations>
			</note>
			<note>
				<pitch>
					<step>G</step>
					<octave>3</octave>
				</pitch>
				<duration>60</duration>
				<voice>2</voice>
				<type>16th</type>
				<stem>none</stem>
				<notations>
					<technical>
						<string>3</string>
						<fret>0</fret>
					</technical>
				</notations>
			</note>
			<forward>
				<duration>60</duration>
			</forward>
			<note>
				<pitch>
					<step>G</step>
					<octave>4</octave>
				</pitch>
				<duration>30</duration>
				<voice>1</voice>
				<type>32nd</type>
				<stem>none</stem>
				<notations>
					<technical>
						<string>5</string>
						<fret>0</fret>
					</technical>
				</notations>
			</note>
			<backup>
				<duration>30</duration>
			</backup>
			<note>
				<pitch>
					<step>D</step>
					<octave>4</octave>
				</pitch>
				<duration>60</duration>
				<voice>1</voice>
				<type>16th</type>
				<stem>none</stem>
				<notations>
					<technical>
						<string>1</string>
						<fret>0</fret>
					</technical>
				</notations>
			</note>
		</measure>
	</part>
</score-partwise>
