<?xml version="1.0" encoding="UTF-8" standalone="no"?>
<!DOCTYPE score-partwise PUBLIC "-//Recordare//DTD MusicXML 1.0 Partwise//EN" "http://www.musicxml.org/dtds/partwise.dtd">
<score-partwise>
	<work>
		<work-title>Ducks on Millpond</work-title>
	</work>
	<identification>
		<creator type="composer"></creator>
		<encoding>
			<encoder>Mike J Beaumier</encoder>
			<software>TablEdit</software>
		</encoding>
	</identification>
	<part-list>
		<score-part id="P1">
			<part-name>Grand Piano</part-name>
			<score-instrument id="P1-I1">
				<instrument-name>Acoustic Guitar (steel)</instrument-name>
			</score-instrument>
			<midi-instrument id="P1-I1">
				<midi-channel>1</midi-channel>
				<midi-program>26</midi-program>
			</midi-instrument>
		</score-part>
	</part-list>
	<part id="P1">
		<measure number="1">
			<attributes>
				<divisions>240</divisions>
				<key>
					<fifths>2</fifths>
				</key>
				<time>
					<beats>2</beats>
					<beat-type>2</beat-type>
				</time>
				<clef>
					<sign>TAB</sign>
					<line>5</line>
				</clef>
				<staff-details>
					<staff-lines>5</staff-lines>
					<staff-tuning line="1">
						<tuning-step>G</tuning-step>
						<tuning-octave>4</tuning-octave>
					</staff-tuning>
					<staff-tuning line="2">
						<tuning-step>C</tuning-step>
						<tuning-octave>3</tuning-octave>
					</staff-tuning>
					<staff-tuning line="3">
						<tuning-step>G</tuning-step>
						<tuning-octave>3</tuning-octave>
					</staff-tuning>
					<staff-tuning line="4">
						<tuning-step>C</tuning-step>
						<tuning-octave>4</tuning-octave>
					</staff-tuning>
					<staff-tuning line="5">
						<tuning-step>D</tuning-step>
						<tuning-octave>4</tuning-octave>
					</staff-tuning>
					<capo>2</capo>
				</staff-details>
			</attributes>
			<sound tempo="180"/>
			<barline location="left">
				<repeat direction="forward"/>
			</barline>
			<note>
				<pitch>
					<step>D</step>
					<octave>4</octave>
				</pitch>
				<duration>240</duration>
				<voice>1</voice>
				<type>quarter</type>
				<stem>down</stem>
				<notations>
					<technical>
						<string>2</string>
						<fret>0</fret>
					</technical>
				</notations>
			</note>
			<note>
				<pitch>
					<step>E</step>
					<octave>4</octave>
				</pitch>
				<duration>240</duration>
				<voice>1</voice>
				<type>quarter</type>
				<stem>down</stem>
				<notations>
					<technical>
						<string>1</string>
						<fret>0</fret>
					</technical>
				</notations>
			</note>
			<note>
				<pitch>
					<step>F</step>
					<alter>1</alter>
					<octave>4</octave>
				</pitch>
				<duration>240</duration>
				<voice>1</voice>
				<type>quarter</type>
				<stem>down</stem>
				<notations>
					<technical>
						<string>1</string>
						<fret>2</fret>
					</technical>
				</notations>
			</note>
			<note>
				<pitch>
					<step>E</step>
					<octave>4</octave>
				</pitch>
				<duration>240</duration>
				<voice>1</voice>
				<type>quarter</type>
				<stem>down</stem>
				<notations>
					<technical>
						<string>1</string>
						<fret>0</fret>
					</technical>
				</notations>
			</note>
		</measure>
		<measure number="2">
			<note>
				<pitch>
					<step>D</step>
					<octave>4</octave>
				</pitch>
				<duration>120</duration>
				<voice>1</voice>
				<type>eighth</type>
				<stem>down</stem>
				<beam number="1">begin</beam>
				<notations>
					<technical>
						<string>2</string>
						<fret>0</fret>
					</technical>
				</notations>
			</note>
			<note>
				<pitch>
					<step>E</step>
					<octave>4</octave>
				</pitch>
				<duration>120</duration>
				<voice>1</voice>
				<type>eighth</type>
				<stem>down</stem>
				<beam number="1">continue</beam>
				<notations>
					<technical>
						<string>1</string>
						<fret>0</fret>
					</technical>
				</notations>
			</note>
			<note>
				<pitch>
					<step>F</step>
					<alter>1</alter>
					<octave>4</octave>
				</pitch>
				<duration>120</duration>
				<voice>1</voice>
				<type>eighth</type>
				<stem>down</stem>
				<beam number="1">continue</beam>
				<notations>
					<technical>
						<string>1</string>
						<fret>2</fret>
					</technical>
				</notations>
			</note>
			<note>
				<pitch>
					<step>D</step>
					<octave>4</octave>
				</pitch>
				<duration>120</duration>
				<voice>1</voice>
				<type>eighth</type>
				<stem>down</stem>
				<beam number="1">end</beam>
				<notations>
					<technical>
						<string>2</string>
						<fret>0</fret>
					</technical>
				</notations>
			</note>
			<note>
				<pitch>
					<step>E</step>
					<octave>4</octave>
				</pitch>
				<duration>120</duration>
				<voice>1</voice>
				<type>eighth</type>
				<stem>down</stem>
				<beam number="1">begin</beam>
				<notations>
					<technical>
						<string>1</string>
						<fret>0</fret>
					</technical>
				</notations>
			</note>
			<note>
				<pitch>
					<step>D</step>
					<octave>4</octave>
				</pitch>
				<duration>120</duration>
				<voice>1</voice>
				<type>eighth</type>
				<stem>down</stem>
				<beam number="1">continue</beam>
				<notations>
					<technical>
						<string>2</string>
						<fret>0</fret>
					</technical>
				</notations>
			</note>
			<note>
				<pitch>
					<step>B</step>
					<octave>3</octave>
				</pitch>
				<duration>120</duration>
				<voice>1</voice>
				<type>eighth</type>
				<stem>down</stem>
				<beam number="1">continue</beam>
				<notations>
					<technical>
						<hammer-on type="start">H</hammer-on>
						<string>3</string>
						<fret>2</fret>
					</technical>
					<slur type="start" number="1"/>
				</notations>
			</note>
			<note>
				<pitch>
					<step>A</step>
					<octave>3</octave>
				</pitch>
				<duration>120</duration>
				<voice>1</voice>
				<type>eighth</type>
				<stem>down</stem>
				<beam number="1">end</beam>
				<notations>
					<technical>
						<hammer-on type="stop"></hammer-on>
						<string>3</string>
						<fret>0</fret>
					</technical>
					<slur type="stop" number="1"/>
				</notations>
			</note>
		</measure>
		<measure number="3">
			<note>
				<pitch>
					<step>D</step>
					<octave>4</octave>
				</pitch>
				<duration>240</duration>
				<voice>1</voice>
				<type>quarter</type>
				<stem>down</stem>
				<notations>
					<technical>
						<string>2</string>
						<fret>0</fret>
					</technical>
				</notations>
			</note>
			<note>
				<pitch>
					<step>G</step>
					<octave>4</octave>
				</pitch>
				<duration>240</duration>
				<voice>1</voice>
				<type>quarter</type>
				<stem>down</stem>
				<notations>
					<technical>
						<string>1</string>
						<fret>3</fret>
					</technical>
				</notations>
			</note>
			<note>
				<pitch>
					<step>F</step>
					<alter>1</alter>
					<octave>4</octave>
				</pitch>
				<duration>80</duration>
				<voice>1</voice>
				<type>eighth</type>
				<time-modification>
					<actual-notes>3</actual-notes>
					<normal-notes>2</normal-notes>
				</time-modification>
				<stem>down</stem>
				<beam number="1">begin</beam>
				<notations>
					<technical>
						<pull-off type="start">Po</pull-off>
						<string>1</string>
						<fret>2</fret>
					</technical>
					<slur type="start" number="1"/>
				</notations>
			</note>
			<note>
				<pitch>
					<step>G</step>
					<octave>4</octave>
				</pitch>
				<duration>80</duration>
				<voice>1</voice>
				<type>eighth</type>
				<time-modification>
					<actual-notes>3</actual-notes>
					<normal-notes>2</normal-notes>
				</time-modification>
				<stem>down</stem>
				<beam number="1">continue</beam>
				<notations>
					<technical>
						<pull-off type="stop"></pull-off>
						<pull-off type="start">Po</pull-off>
						<string>1</string>
						<fret>3</fret>
					</technical>
					<slur type="stop" number="1"/>
					<slur type="start" number="2"/>
				</notations>
			</note>
			<note>
				<pitch>
					<step>F</step>
					<alter>1</alter>
					<octave>4</octave>
				</pitch>
				<duration>80</duration>
				<voice>1</voice>
				<type>eighth</type>
				<time-modification>
					<actual-notes>3</actual-notes>
					<normal-notes>2</normal-notes>
				</time-modification>
				<stem>down</stem>
				<beam number="1">end</beam>
				<notations>
					<technical>
						<pull-off type="stop"></pull-off>
						<string>1</string>
						<fret>2</fret>
					</technical>
					<slur type="stop" number="2"/>
				</notations>
			</note>
			<note>
				<pitch>
					<step>E</step>
					<octave>4</octave>
				</pitch>
				<duration>120</duration>
				<voice>1</voice>
				<type>eighth</type>
				<stem>down</stem>
				<beam number="1">begin</beam>
				<notations>
					<technical>
						<string>1</string>
						<fret>0</fret>
					</technical>
				</notations>
			</note>
			<note>
				<pitch>
					<step>D</step>
					<octave>4</octave>
				</pitch>
				<duration>120</duration>
				<voice>1</voice>
				<type>eighth</type>
				<stem>down</stem>
				<beam number="1">end</beam>
				<notations>
					<technical>
						<string>2</string>
						<fret>0</fret>
					</technical>
				</notations>
			</note>
		</measure>
		<measure number="4">
			<note>
				<pitch>
					<step>B</step>
					<octave>3</octave>
				</pitch>
				<duration>120</duration>
				<voice>1</voice>
				<type>eighth</type>
				<stem>down</stem>
				<beam number="1">begin</beam>
				<notations>
					<technical>
						<hammer-on type="start">H</hammer-on>
						<string>3</string>
						<fret>2</fret>
					</technical>
					<slur type="start" number="1"/>
				</notations>
			</note>
			<note>
				<pitch>
					<step>A</step>
					<octave>3</octave>
				</pitch>
				<duration>120</duration>
				<voice>1</voice>
				<type>eighth</type>
				<stem>down</stem>
				<beam number="1">continue</beam>
				<notations>
					<technical>
						<hammer-on type="stop"></hammer-on>
						<string>3</string>
						<fret>0</fret>
					</technical>
					<slur type="stop" number="1"/>
				</notations>
			</note>
			<note>
				<pitch>
					<step>B</step>
					<octave>3</octave>
				</pitch>
				<duration>120</duration>
				<voice>1</voice>
				<type>eighth</type>
				<stem>down</stem>
				<beam number="1">continue</beam>
				<notations>
					<technical>
						<string>3</string>
						<fret>2</fret>
					</technical>
				</notations>
			</note>
			<note>
				<pitch>
					<step>D</step>
					<octave>4</octave>
				</pitch>
				<duration>120</duration>
				<voice>1</voice>
				<type>eighth</type>
				<stem>down</stem>
				<beam number="1">end</beam>
				<notations>
					<technical>
						<string>2</string>
						<fret>0</fret>
					</technical>
				</notations>
			</note>
			<note>
				<pitch>
					<step>E</step>
					<octave>4</octave>
				</pitch>
				<duration>120</duration>
				<voice>1</voice>
				<type>eighth</type>
				<stem>down</stem>
				<beam number="1">begin</beam>
				<notations>
					<technical>
						<string>1</string>
						<fret>0</fret>
					</technical>
				</notations>
			</note>
			<note>
				<pitch>
					<step>D</step>
					<octave>4</octave>
				</pitch>
				<duration>120</duration>
				<voice>1</voice>
				<type>eighth</type>
				<stem>down</stem>
				<beam number="1">continue</beam>
				<notations>
					<technical>
						<string>2</string>
						<fret>0</fret>
					</technical>
				</notations>
			</note>
			<note>
				<pitch>
					<step>B</step>
					<octave>3</octave>
				</pitch>
				<duration>120</duration>
				<voice>1</voice>
				<type>eighth</type>
				<stem>down</stem>
				<beam number="1">continue</beam>
				<notations>
					<technical>
						<pull-off type="start">Po</pull-off>
						<string>3</string>
						<fret>2</fret>
					</technical>
					<slur type="start" number="1"/>
				</notations>
			</note>
			<note>
				<pitch>
					<step>A</step>
					<octave>3</octave>
				</pitch>
				<duration>120</duration>
				<voice>1</voice>
				<type>eighth</type>
				<stem>down</stem>
				<beam number="1">end</beam>
				<notations>
					<technical>
						<pull-off type="stop"></pull-off>
						<string>3</string>
						<fret>0</fret>
					</technical>
					<slur type="stop" number="1"/>
				</notations>
			</note>
		</measure>
		<measure number="5">
			<note>
				<pitch>
					<step>D</step>
					<octave>4</octave>
				</pitch>
				<duration>240</duration>
				<voice>1</voice>
				<type>quarter</type>
				<stem>down</stem>
				<notations>
					<technical>
						<string>2</string>
						<fret>0</fret>
					</technical>
				</notations>
			</note>
			<note>
				<pitch>
					<step>E</step>
					<octave>4</octave>
				</pitch>
				<duration>240</duration>
				<voice>1</voice>
				<type>quarter</type>
				<stem>down</stem>
				<notations>
					<technical>
						<string>1</string>
						<fret>0</fret>
					</technical>
				</notations>
			</note>
			<note>
				<pitch>
					<step>F</step>
					<alter>1</alter>
					<octave>4</octave>
				</pitch>
				<duration>240</duration>
				<voice>1</voice>
				<type>quarter</type>
				<stem>down</stem>
				<notations>
					<technical>
						<string>1</string>
						<fret>2</fret>
					</technical>
				</notations>
			</note>
			<note>
				<pitch>
					<step>E</step>
					<octave>4</octave>
				</pitch>
				<duration>240</duration>
				<voice>1</voice>
				<type>quarter</type>
				<stem>down</stem>
				<notations>
					<technical>
						<string>1</string>
						<fret>0</fret>
					</technical>
				</notations>
			</note>
		</measure>
		<measure number="6">
			<note>
				<pitch>
					<step>D</step>
					<octave>4</octave>
				</pitch>
				<duration>120</duration>
				<voice>1</voice>
				<type>eighth</type>
				<stem>down</stem>
				<beam number="1">begin</beam>
				<notations>
					<technical>
						<string>2</string>
						<fret>0</fret>
					</technical>
				</notations>
			</note>
			<note>
				<pitch>
					<step>E</step>
					<octave>4</octave>
				</pitch>
				<duration>120</duration>
				<voice>1</voice>
				<type>eighth</type>
				<stem>down</stem>
				<beam number="1">continue</beam>
				<notations>
					<technical>
						<string>1</string>
						<fret>0</fret>
					</technical>
				</notations>
			</note>
			<note>
				<pitch>
					<step>F</step>
					<alter>1</alter>
					<octave>4</octave>
				</pitch>
				<duration>120</duration>
				<voice>1</voice>
				<type>eighth</type>
				<stem>down</stem>
				<beam number="1">continue</beam>
				<notations>
					<technical>
						<string>1</string>
						<fret>2</fret>
					</technical>
				</notations>
			</note>
			<note>
				<pitch>
					<step>D</step>
					<octave>4</octave>
				</pitch>
				<duration>120</duration>
				<voice>1</voice>
				<type>eighth</type>
				<stem>down</stem>
				<beam number="1">end</beam>
				<notations>
					<technical>
						<string>2</string>
						<fret>0</fret>
					</technical>
				</notations>
			</note>
			<note>
				<pitch>
					<step>E</step>
					<octave>4</octave>
				</pitch>
				<duration>120</duration>
				<voice>1</voice>
				<type>eighth</type>
				<stem>down</stem>
				<beam number="1">begin</beam>
				<notations>
					<technical>
						<string>1</string>
						<fret>0</fret>
					</technical>
				</notations>
			</note>
			<note>
				<pitch>
					<step>D</step>
					<octave>4</octave>
				</pitch>
				<duration>120</duration>
				<voice>1</voice>
				<type>eighth</type>
				<stem>down</stem>
				<beam number="1">continue</beam>
				<notations>
					<technical>
						<string>2</string>
						<fret>0</fret>
					</technical>
				</notations>
			</note>
			<note>
				<pitch>
					<step>B</step>
					<octave>3</octave>
				</pitch>
				<duration>120</duration>
				<voice>1</voice>
				<type>eighth</type>
				<stem>down</stem>
				<beam number="1">continue</beam>
				<notations>
					<technical>
						<pull-off type="start">Po</pull-off>
						<string>3</string>
						<fret>2</fret>
					</technical>
					<slur type="start" number="1"/>
				</notations>
			</note>
			<note>
				<pitch>
					<step>A</step>
					<octave>3</octave>
				</pitch>
				<duration>120</duration>
				<voice>1</voice>
				<type>eighth</type>
				<stem>down</stem>
				<beam number="1">end</beam>
				<notations>
					<technical>
						<pull-off type="stop"></pull-off>
						<string>3</string>
						<fret>0</fret>
					</technical>
					<slur type="stop" number="1"/>
				</notations>
			</note>
		</measure>
		<measure number="7">
			<note>
				<pitch>
					<step>D</step>
					<octave>4</octave>
				</pitch>
				<duration>240</duration>
				<voice>1</voice>
				<type>quarter</type>
				<stem>down</stem>
				<notations>
					<technical>
						<string>2</string>
						<fret>0</fret>
					</technical>
				</notations>
			</note>
			<note>
				<pitch>
					<step>G</step>
					<octave>4</octave>
				</pitch>
				<duration>240</duration>
				<voice>1</voice>
				<type>quarter</type>
				<stem>down</stem>
				<notations>
					<technical>
						<string>1</string>
						<fret>3</fret>
					</technical>
				</notations>
			</note>
			<note>
				<pitch>
					<step>F</step>
					<alter>1</alter>
					<octave>4</octave>
				</pitch>
				<duration>80</duration>
				<voice>1</voice>
				<type>eighth</type>
				<time-modification>
					<actual-notes>3</actual-notes>
					<normal-notes>2</normal-notes>
				</time-modification>
				<stem>down</stem>
				<beam number="1">begin</beam>
				<notations>
					<technical>
						<hammer-on type="start">H</hammer-on>
						<string>1</string>
						<fret>2</fret>
					</technical>
					<slur type="start" number="1"/>
				</notations>
			</note>
			<note>
				<pitch>
					<step>G</step>
					<octave>4</octave>
				</pitch>
				<duration>80</duration>
				<voice>1</voice>
				<type>eighth</type>
				<time-modification>
					<actual-notes>3</actual-notes>
					<normal-notes>2</normal-notes>
				</time-modification>
				<stem>down</stem>
				<beam number="1">continue</beam>
				<notations>
					<technical>
						<hammer-on type="stop"></hammer-on>
						<pull-off type="start">Po</pull-off>
						<string>1</string>
						<fret>3</fret>
					</technical>
					<slur type="stop" number="1"/>
					<slur type="start" number="2"/>
				</notations>
			</note>
			<note>
				<pitch>
					<step>F</step>
					<alter>1</alter>
					<octave>4</octave>
				</pitch>
				<duration>80</duration>
				<voice>1</voice>
				<type>eighth</type>
				<time-modification>
					<actual-notes>3</actual-notes>
					<normal-notes>2</normal-notes>
				</time-modification>
				<stem>down</stem>
				<beam number="1">end</beam>
				<notations>
					<technical>
						<pull-off type="stop"></pull-off>
						<string>1</string>
						<fret>2</fret>
					</technical>
					<slur type="stop" number="2"/>
				</notations>
			</note>
			<note>
				<pitch>
					<step>E</step>
					<octave>4</octave>
				</pitch>
				<duration>120</duration>
				<voice>1</voice>
				<type>eighth</type>
				<stem>down</stem>
				<beam number="1">begin</beam>
				<notations>
					<technical>
						<string>1</string>
						<fret>0</fret>
					</technical>
				</notations>
			</note>
			<note>
				<pitch>
					<step>D</step>
					<octave>4</octave>
				</pitch>
				<duration>120</duration>
				<voice>1</voice>
				<type>eighth</type>
				<stem>down</stem>
				<beam number="1">end</beam>
				<notations>
					<technical>
						<string>2</string>
						<fret>0</fret>
					</technical>
				</notations>
			</note>
		</measure>
		<measure number="8">
			<barline location="right">
				<repeat direction="backward"/>
			</barline>
			<note>
				<pitch>
					<step>B</step>
					<octave>3</octave>
				</pitch>
				<duration>120</duration>
				<voice>1</voice>
				<type>eighth</type>
				<stem>down</stem>
				<beam number="1">begin</beam>
				<notations>
					<technical>
						<hammer-on type="start">H</hammer-on>
						<string>3</string>
						<fret>2</fret>
					</technical>
					<slur type="start" number="1"/>
				</notations>
			</note>
			<note>
				<pitch>
					<step>A</step>
					<octave>3</octave>
				</pitch>
				<duration>120</duration>
				<voice>1</voice>
				<type>eighth</type>
				<stem>down</stem>
				<beam number="1">continue</beam>
				<notations>
					<technical>
						<hammer-on type="stop"></hammer-on>
						<string>3</string>
						<fret>0</fret>
					</technical>
					<slur type="stop" number="1"/>
				</notations>
			</note>
			<note>
				<pitch>
					<step>B</step>
					<octave>3</octave>
				</pitch>
				<duration>120</duration>
				<voice>1</voice>
				<type>eighth</type>
				<stem>down</stem>
				<beam number="1">continue</beam>
				<notations>
					<technical>
						<string>3</string>
						<fret>2</fret>
					</technical>
				</notations>
			</note>
			<note>
				<pitch>
					<step>D</step>
					<octave>4</octave>
				</pitch>
				<duration>120</duration>
				<voice>1</voice>
				<type>eighth</type>
				<stem>down</stem>
				<beam number="1">end</beam>
				<notations>
					<technical>
						<string>2</string>
						<fret>0</fret>
					</technical>
				</notations>
			</note>
			<note>
				<pitch>
					<step>E</step>
					<octave>4</octave>
				</pitch>
				<duration>120</duration>
				<voice>1</voice>
				<type>eighth</type>
				<stem>down</stem>
				<beam number="1">begin</beam>
				<notations>
					<technical>
						<string>1</string>
						<fret>0</fret>
					</technical>
				</notations>
			</note>
			<note>
				<pitch>
					<step>D</step>
					<octave>4</octave>
				</pitch>
				<duration>120</duration>
				<voice>1</voice>
				<type>eighth</type>
				<stem>down</stem>
				<beam number="1">end</beam>
				<notations>
					<technical>
						<string>2</string>
						<fret>0</fret>
					</technical>
				</notations>
			</note>
			<note>
				<pitch>
					<step>D</step>
					<octave>4</octave>
				</pitch>
				<duration>240</duration>
				<voice>1</voice>
				<type>quarter</type>
				<stem>down</stem>
				<notations>
					<technical>
						<string>2</string>
						<fret>0</fret>
					</technical>
				</notations>
			</note>
		</measure>
		<measure number="9">
			<barline location="left">
				<repeat direction="forward"/>
			</barline>
			<note>
				<grace/>
				<pitch>
					<step>G</step>
					<octave>4</octave>
				</pitch>
				<type>eighth</type>
				<stem>down</stem>
				<notations>
					<technical>
						<string>1</string>
						<fret>3</fret>
					</technical>
				</notations>
			</note>
			<note>
				<pitch>
					<step>A</step>
					<octave>4</octave>
				</pitch>
				<duration>360</duration>
				<voice>1</voice>
				<type>quarter</type>
				<dot/>
				<stem>down</stem>
				<notations>
					<technical>
						<string>1</string>
						<fret>5</fret>
					</technical>
				</notations>
			</note>
			<note>
				<pitch>
					<step>A</step>
					<octave>4</octave>
				</pitch>
				<duration>120</duration>
				<voice>1</voice>
				<type>eighth</type>
				<stem>down</stem>
				<notations>
					<technical>
						<string>1</string>
						<fret>5</fret>
					</technical>
				</notations>
			</note>
			<note>
				<pitch>
					<step>A</step>
					<octave>4</octave>
				</pitch>
				<duration>240</duration>
				<voice>1</voice>
				<type>quarter</type>
				<stem>down</stem>
				<notations>
					<technical>
						<string>1</string>
						<fret>5</fret>
					</technical>
				</notations>
			</note>
			<note>
				<pitch>
					<step>E</step>
					<octave>4</octave>
				</pitch>
				<duration>120</duration>
				<voice>1</voice>
				<type>eighth</type>
				<stem>down</stem>
				<beam number="1">begin</beam>
				<notations>
					<technical>
						<pull-off type="start">Po</pull-off>
						<string>1</string>
						<fret>0</fret>
					</technical>
					<slur type="start" number="1"/>
				</notations>
			</note>
			<note>
				<pitch>
					<step>F</step>
					<alter>1</alter>
					<octave>4</octave>
				</pitch>
				<duration>120</duration>
				<voice>1</voice>
				<type>eighth</type>
				<stem>down</stem>
				<beam number="1">end</beam>
				<notations>
					<technical>
						<pull-off type="stop"></pull-off>
						<string>1</string>
						<fret>2</fret>
					</technical>
					<slur type="stop" number="1"/>
				</notations>
			</note>
		</measure>
		<measure number="10">
			<note>
				<pitch>
					<step>A</step>
					<octave>4</octave>
				</pitch>
				<duration>120</duration>
				<voice>1</voice>
				<type>eighth</type>
				<stem>down</stem>
				<beam number="1">begin</beam>
				<notations>
					<technical>
						<pull-off type="start">Po</pull-off>
						<string>1</string>
						<fret>5</fret>
					</technical>
					<slur type="start" number="1"/>
				</notations>
			</note>
			<note>
				<pitch>
					<step>E</step>
					<octave>4</octave>
				</pitch>
				<duration>120</duration>
				<voice>1</voice>
				<type>eighth</type>
				<stem>down</stem>
				<beam number="1">continue</beam>
				<notations>
					<technical>
						<pull-off type="stop"></pull-off>
						<string>1</string>
						<fret>0</fret>
					</technical>
					<slur type="stop" number="1"/>
				</notations>
			</note>
			<note>
				<pitch>
					<step>F</step>
					<alter>1</alter>
					<octave>4</octave>
				</pitch>
				<duration>120</duration>
				<voice>1</voice>
				<type>eighth</type>
				<stem>down</stem>
				<beam number="1">continue</beam>
				<notations>
					<technical>
						<string>1</string>
						<fret>2</fret>
					</technical>
				</notations>
			</note>
			<note>
				<pitch>
					<step>F</step>
					<alter>1</alter>
					<octave>4</octave>
				</pitch>
				<duration>120</duration>
				<voice>1</voice>
				<type>eighth</type>
				<stem>down</stem>
				<beam number="1">end</beam>
				<notations>
					<technical>
						<string>1</string>
						<fret>2</fret>
					</technical>
				</notations>
			</note>
			<note>
				<pitch>
					<step>E</step>
					<octave>4</octave>
				</pitch>
				<duration>120</duration>
				<voice>1</voice>
				<type>eighth</type>
				<stem>down</stem>
				<beam number="1">begin</beam>
				<notations>
					<technical>
						<string>1</string>
						<fret>0</fret>
					</technical>
				</notations>
			</note>
			<note>
				<pitch>
					<step>D</step>
					<octave>4</octave>
				</pitch>
				<duration>120</duration>
				<voice>1</voice>
				<type>eighth</type>
				<stem>down</stem>
				<beam number="1">end</beam>
				<notations>
					<technical>
						<string>2</string>
						<fret>0</fret>
					</technical>
				</notations>
			</note>
			<note>
				<pitch>
					<step>D</step>
					<octave>4</octave>
				</pitch>
				<duration>240</duration>
				<voice>1</voice>
				<type>quarter</type>
				<stem>down</stem>
				<notations>
					<technical>
						<string>2</string>
						<fret>0</fret>
					</technical>
				</notations>
			</note>
		</measure>
		<measure number="11">
			<note>
				<pitch>
					<step>A</step>
					<octave>4</octave>
				</pitch>
				<duration>360</duration>
				<voice>1</voice>
				<type>quarter</type>
				<dot/>
				<stem>down</stem>
				<notations>
					<technical>
						<string>1</string>
						<fret>5</fret>
					</technical>
				</notations>
			</note>
			<note>
				<pitch>
					<step>B</step>
					<octave>4</octave>
				</pitch>
				<duration>120</duration>
				<voice>1</voice>
				<type>eighth</type>
				<stem>down</stem>
				<notations>
					<technical>
						<string>1</string>
						<fret>7</fret>
					</technical>
				</notations>
			</note>
			<note>
				<pitch>
					<step>A</step>
					<octave>4</octave>
				</pitch>
				<duration>120</duration>
				<voice>1</voice>
				<type>eighth</type>
				<stem>down</stem>
				<beam number="1">begin</beam>
				<notations>
					<technical>
						<string>1</string>
						<fret>5</fret>
					</technical>
				</notations>
			</note>
			<note>
				<pitch>
					<step>G</step>
					<octave>4</octave>
				</pitch>
				<duration>120</duration>
				<voice>1</voice>
				<type>eighth</type>
				<stem>down</stem>
				<beam number="1">continue</beam>
				<notations>
					<technical>
						<string>2</string>
						<fret>5</fret>
					</technical>
				</notations>
			</note>
			<note>
				<pitch>
					<step>E</step>
					<octave>4</octave>
				</pitch>
				<duration>120</duration>
				<voice>1</voice>
				<type>eighth</type>
				<stem>down</stem>
				<beam number="1">continue</beam>
				<notations>
					<technical>
						<string>1</string>
						<fret>0</fret>
					</technical>
				</notations>
			</note>
			<note>
				<pitch>
					<step>D</step>
					<octave>4</octave>
				</pitch>
				<duration>120</duration>
				<voice>1</voice>
				<type>eighth</type>
				<stem>down</stem>
				<beam number="1">end</beam>
				<notations>
					<technical>
						<string>2</string>
						<fret>0</fret>
					</technical>
				</notations>
			</note>
		</measure>
		<measure number="12">
			<note>
				<pitch>
					<step>B</step>
					<octave>3</octave>
				</pitch>
				<duration>120</duration>
				<voice>1</voice>
				<type>eighth</type>
				<stem>down</stem>
				<beam number="1">begin</beam>
				<notations>
					<technical>
						<hammer-on type="start">H</hammer-on>
						<string>3</string>
						<fret>2</fret>
					</technical>
					<slur type="start" number="1"/>
				</notations>
			</note>
			<note>
				<pitch>
					<step>A</step>
					<octave>3</octave>
				</pitch>
				<duration>120</duration>
				<voice>1</voice>
				<type>eighth</type>
				<stem>down</stem>
				<beam number="1">continue</beam>
				<notations>
					<technical>
						<hammer-on type="stop"></hammer-on>
						<string>3</string>
						<fret>0</fret>
					</technical>
					<slur type="stop" number="1"/>
				</notations>
			</note>
			<note>
				<pitch>
					<step>B</step>
					<octave>3</octave>
				</pitch>
				<duration>120</duration>
				<voice>1</voice>
				<type>eighth</type>
				<stem>down</stem>
				<beam number="1">continue</beam>
				<notations>
					<technical>
						<string>3</string>
						<fret>2</fret>
					</technical>
				</notations>
			</note>
			<note>
				<pitch>
					<step>D</step>
					<octave>4</octave>
				</pitch>
				<duration>120</duration>
				<voice>1</voice>
				<type>eighth</type>
				<stem>down</stem>
				<beam number="1">end</beam>
				<notations>
					<technical>
						<string>2</string>
						<fret>0</fret>
					</technical>
				</notations>
			</note>
			<note>
				<pitch>
					<step>E</step>
					<octave>4</octave>
				</pitch>
				<duration>120</duration>
				<voice>1</voice>
				<type>eighth</type>
				<stem>down</stem>
				<beam number="1">begin</beam>
				<notations>
					<technical>
						<string>1</string>
						<fret>0</fret>
					</technical>
				</notations>
			</note>
			<note>
				<pitch>
					<step>D</step>
					<octave>4</octave>
				</pitch>
				<duration>120</duration>
				<voice>1</voice>
				<type>eighth</type>
				<stem>down</stem>
				<beam number="1">end</beam>
				<notations>
					<technical>
						<string>2</string>
						<fret>0</fret>
					</technical>
				</notations>
			</note>
			<note>
				<pitch>
					<step>D</step>
					<octave>4</octave>
				</pitch>
				<duration>240</duration>
				<voice>1</voice>
				<type>quarter</type>
				<stem>down</stem>
				<notations>
					<technical>
						<string>2</string>
						<fret>0</fret>
					</technical>
				</notations>
			</note>
		</measure>
		<measure number="13">
			<note>
				<grace/>
				<pitch>
					<step>G</step>
					<octave>4</octave>
				</pitch>
				<type>eighth</type>
				<stem>down</stem>
				<notations>
					<technical>
						<string>1</string>
						<fret>3</fret>
					</technical>
				</notations>
			</note>
			<note>
				<pitch>
					<step>A</step>
					<octave>4</octave>
				</pitch>
				<duration>360</duration>
				<voice>1</voice>
				<type>quarter</type>
				<dot/>
				<stem>down</stem>
				<notations>
					<technical>
						<string>1</string>
						<fret>5</fret>
					</technical>
				</notations>
			</note>
			<note>
				<pitch>
					<step>A</step>
					<octave>4</octave>
				</pitch>
				<duration>120</duration>
				<voice>1</voice>
				<type>eighth</type>
				<stem>down</stem>
				<notations>
					<technical>
						<string>1</string>
						<fret>5</fret>
					</technical>
				</notations>
			</note>
			<note>
				<pitch>
					<step>A</step>
					<octave>4</octave>
				</pitch>
				<duration>240</duration>
				<voice>1</voice>
				<type>quarter</type>
				<stem>down</stem>
				<notations>
					<technical>
						<string>1</string>
						<fret>5</fret>
					</technical>
				</notations>
			</note>
			<note>
				<pitch>
					<step>E</step>
					<octave>4</octave>
				</pitch>
				<duration>120</duration>
				<voice>1</voice>
				<type>eighth</type>
				<stem>down</stem>
				<beam number="1">begin</beam>
				<notations>
					<technical>
						<pull-off type="start">Po</pull-off>
						<string>1</string>
						<fret>0</fret>
					</technical>
					<slur type="start" number="1"/>
				</notations>
			</note>
			<note>
				<pitch>
					<step>F</step>
					<alter>1</alter>
					<octave>4</octave>
				</pitch>
				<duration>120</duration>
				<voice>1</voice>
				<type>eighth</type>
				<stem>down</stem>
				<beam number="1">end</beam>
				<notations>
					<technical>
						<pull-off type="stop"></pull-off>
						<string>1</string>
						<fret>2</fret>
					</technical>
					<slur type="stop" number="1"/>
				</notations>
			</note>
		</measure>
		<measure number="14">
			<note>
				<pitch>
					<step>A</step>
					<octave>4</octave>
				</pitch>
				<duration>120</duration>
				<voice>1</voice>
				<type>eighth</type>
				<stem>down</stem>
				<beam number="1">begin</beam>
				<notations>
					<technical>
						<pull-off type="start">Po</pull-off>
						<string>1</string>
						<fret>5</fret>
					</technical>
					<slur type="start" number="1"/>
				</notations>
			</note>
			<note>
				<pitch>
					<step>E</step>
					<octave>4</octave>
				</pitch>
				<duration>120</duration>
				<voice>1</voice>
				<type>eighth</type>
				<stem>down</stem>
				<beam number="1">continue</beam>
				<notations>
					<technical>
						<pull-off type="stop"></pull-off>
						<string>1</string>
						<fret>0</fret>
					</technical>
					<slur type="stop" number="1"/>
				</notations>
			</note>
			<note>
				<pitch>
					<step>F</step>
					<alter>1</alter>
					<octave>4</octave>
				</pitch>
				<duration>120</duration>
				<voice>1</voice>
				<type>eighth</type>
				<stem>down</stem>
				<beam number="1">continue</beam>
				<notations>
					<technical>
						<string>1</string>
						<fret>2</fret>
					</technical>
				</notations>
			</note>
			<note>
				<pitch>
					<step>F</step>
					<alter>1</alter>
					<octave>4</octave>
				</pitch>
				<duration>120</duration>
				<voice>1</voice>
				<type>eighth</type>
				<stem>down</stem>
				<beam number="1">end</beam>
				<notations>
					<technical>
						<string>1</string>
						<fret>2</fret>
					</technical>
				</notations>
			</note>
			<note>
				<pitch>
					<step>E</step>
					<octave>4</octave>
				</pitch>
				<duration>120</duration>
				<voice>1</voice>
				<type>eighth</type>
				<stem>down</stem>
				<beam number="1">begin</beam>
				<notations>
					<technical>
						<string>1</string>
						<fret>0</fret>
					</technical>
				</notations>
			</note>
			<note>
				<pitch>
					<step>D</step>
					<octave>4</octave>
				</pitch>
				<duration>120</duration>
				<voice>1</voice>
				<type>eighth</type>
				<stem>down</stem>
				<beam number="1">end</beam>
				<notations>
					<technical>
						<string>2</string>
						<fret>0</fret>
					</technical>
				</notations>
			</note>
			<note>
				<pitch>
					<step>D</step>
					<octave>4</octave>
				</pitch>
				<duration>240</duration>
				<voice>1</voice>
				<type>quarter</type>
				<stem>down</stem>
				<notations>
					<technical>
						<string>2</string>
						<fret>0</fret>
					</technical>
				</notations>
			</note>
		</measure>
		<measure number="15">
			<note>
				<pitch>
					<step>A</step>
					<octave>4</octave>
				</pitch>
				<duration>360</duration>
				<voice>1</voice>
				<type>quarter</type>
				<dot/>
				<stem>down</stem>
				<notations>
					<technical>
						<string>1</string>
						<fret>5</fret>
					</technical>
				</notations>
			</note>
			<note>
				<pitch>
					<step>B</step>
					<octave>4</octave>
				</pitch>
				<duration>120</duration>
				<voice>1</voice>
				<type>eighth</type>
				<stem>down</stem>
				<notations>
					<technical>
						<string>1</string>
						<fret>7</fret>
					</technical>
				</notations>
			</note>
			<note>
				<pitch>
					<step>A</step>
					<octave>4</octave>
				</pitch>
				<duration>120</duration>
				<voice>1</voice>
				<type>eighth</type>
				<stem>down</stem>
				<beam number="1">begin</beam>
				<notations>
					<technical>
						<string>1</string>
						<fret>5</fret>
					</technical>
				</notations>
			</note>
			<note>
				<pitch>
					<step>G</step>
					<octave>4</octave>
				</pitch>
				<duration>120</duration>
				<voice>1</voice>
				<type>eighth</type>
				<stem>down</stem>
				<beam number="1">continue</beam>
				<notations>
					<technical>
						<string>2</string>
						<fret>5</fret>
					</technical>
				</notations>
			</note>
			<note>
				<pitch>
					<step>E</step>
					<octave>4</octave>
				</pitch>
				<duration>120</duration>
				<voice>1</voice>
				<type>eighth</type>
				<stem>down</stem>
				<beam number="1">continue</beam>
				<notations>
					<technical>
						<string>1</string>
						<fret>0</fret>
					</technical>
				</notations>
			</note>
			<note>
				<pitch>
					<step>D</step>
					<octave>4</octave>
				</pitch>
				<duration>120</duration>
				<voice>1</voice>
				<type>eighth</type>
				<stem>down</stem>
				<beam number="1">end</beam>
				<notations>
					<technical>
						<string>2</string>
						<fret>0</fret>
					</technical>
				</notations>
			</note>
		</measure>
		<measure number="16">
			<barline location="right">
				<repeat direction="backward"/>
			</barline>
			<note>
				<pitch>
					<step>B</step>
					<octave>3</octave>
				</pitch>
				<duration>120</duration>
				<voice>1</voice>
				<type>eighth</type>
				<stem>down</stem>
				<beam number="1">begin</beam>
				<notations>
					<technical>
						<pull-off type="start">Po</pull-off>
						<string>3</string>
						<fret>2</fret>
					</technical>
					<slur type="start" number="1"/>
				</notations>
			</note>
			<note>
				<pitch>
					<step>A</step>
					<octave>3</octave>
				</pitch>
				<duration>120</duration>
				<voice>1</voice>
				<type>eighth</type>
				<stem>down</stem>
				<beam number="1">continue</beam>
				<notations>
					<technical>
						<pull-off type="stop"></pull-off>
						<string>3</string>
						<fret>0</fret>
					</technical>
					<slur type="stop" number="1"/>
				</notations>
			</note>
			<note>
				<pitch>
					<step>B</step>
					<octave>3</octave>
				</pitch>
				<duration>120</duration>
				<voice>1</voice>
				<type>eighth</type>
				<stem>down</stem>
				<beam number="1">continue</beam>
				<notations>
					<technical>
						<string>3</string>
						<fret>2</fret>
					</technical>
				</notations>
			</note>
			<note>
				<pitch>
					<step>D</step>
					<octave>4</octave>
				</pitch>
				<duration>120</duration>
				<voice>1</voice>
				<type>eighth</type>
				<stem>down</stem>
				<beam number="1">end</beam>
				<notations>
					<technical>
						<string>2</string>
						<fret>0</fret>
					</technical>
				</notations>
			</note>
			<note>
				<pitch>
					<step>E</step>
					<octave>4</octave>
				</pitch>
				<duration>120</duration>
				<voice>1</voice>
				<type>eighth</type>
				<stem>down</stem>
				<beam number="1">begin</beam>
				<notations>
					<technical>
						<string>1</string>
						<fret>0</fret>
					</technical>
				</notations>
			</note>
			<note>
				<pitch>
					<step>D</step>
					<octave>4</octave>
				</pitch>
				<duration>120</duration>
				<voice>1</voice>
				<type>eighth</type>
				<stem>down</stem>
				<beam number="1">continue</beam>
				<notations>
					<technical>
						<string>2</string>
						<fret>0</fret>
					</technical>
				</notations>
			</note>
			<note>
				<pitch>
					<step>B</step>
					<octave>3</octave>
				</pitch>
				<duration>120</duration>
				<voice>1</voice>
				<type>eighth</type>
				<stem>down</stem>
				<beam number="1">continue</beam>
				<notations>
					<technical>
						<pull-off type="start">Po</pull-off>
						<string>3</string>
						<fret>2</fret>
					</technical>
					<slur type="start" number="1"/>
				</notations>
			</note>
			<note>
				<pitch>
					<step>A</step>
					<octave>3</octave>
				</pitch>
				<duration>120</duration>
				<voice>1</voice>
				<type>eighth</type>
				<stem>down</stem>
				<beam number="1">end</beam>
				<notations>
					<technical>
						<pull-off type="stop"></pull-off>
						<string>3</string>
						<fret>0</fret>
					</technical>
					<slur type="stop" number="1"/>
				</notations>
			</note>
		</measure>
	</part>
</score-partwise>
