<svg xmlns="http://www.w3.org/2000/svg" viewBox="0 0 3168 1344">
  <!-- Pure #000/#fff so a CSS invert() flips the banner exactly (no tint) -->
  <rect width="3168" height="1344" fill="#000000"/>
  <g transform="translate(0.000000,1344.000000) scale(0.100000,-0.100000)" fill="#ffffff" stroke="none">
<path d="M7389 13039 c-199 -16 -387 -124 -486 -277 -53 -82 -73 -151 -73
-252 0 -76 4 -95 28 -141 48 -93 150 -144 240 -119 137 36 181 203 79 298 -33
31 -89 39 -122 18 -18 -12 -25 -13 -26 -4 -6 66 44 171 108 228 126 111 347
163 533 126 153 -30 317 -126 416 -242 51 -60 53 -82 3 -40 -108 91 -286 129
-420 90 -113 -33 -220 -128 -260 -232 -33 -84 -32 -198 2 -272 35 -75 70 -114
131 -144 98 -49 200 -29 268 51 29 35 31 43 28 96 -5 67 -27 104 -81 130 -30
15 -43 16 -76 7 -49 -13 -91 -60 -91 -102 0 -27 -2 -29 -17 -17 -41 35 -57
155 -29 223 16 39 74 99 116 121 123 63 302 25 415 -89 157 -159 189 -423 78
-656 -47 -99 -167 -220 -265 -268 -113 -55 -213 -75 -347 -70 -134 6 -230 32
-376 104 -80 40 -230 138 -180 119 115 -46 166 -57 270 -62 324 -15 539 145
580 431 l7 49 -54 -47 c-29 -27 -63 -68 -76 -92 -33 -64 -128 -156 -192 -186
-132 -61 -286 -69 -430 -23 -196 63 -354 167 -635 419 -268 242 -452 344 -697
391 -102 19 -310 19 -420 0 -257 -45 -492 -177 -703 -397 -207 -215 -328 -442
-401 -754 -26 -108 -28 -136 -28 -304 0 -125 5 -206 15 -250 l15 -65 41 -3
c39 -3 267 23 282 32 4 3 4 40 0 83 -11 110 6 341 31 438 101 380 374 678 721
786 61 20 95 24 194 23 103 0 130 -4 193 -26 101 -36 174 -83 236 -149 130
-140 153 -324 59 -472 -30 -47 -43 -37 -43 32 0 141 -193 224 -355 152 -154
-68 -246 -273 -201 -448 56 -221 215 -343 445 -343 164 0 280 49 402 170 60
59 85 93 117 160 92 190 103 393 32 605 -69 206 -207 373 -381 459 -129 64
-209 79 -379 73 -185 -7 -293 -40 -480 -147 l-55 -32 35 31 c19 17 84 56 145
87 148 74 260 98 430 91 136 -6 221 -27 324 -83 106 -58 148 -95 337 -296 435
-465 714 -654 1048 -713 219 -38 439 -1 617 105 134 79 249 220 374 455 127
240 212 363 334 485 131 130 308 220 433 220 64 0 139 -33 185 -81 95 -101 86
-267 -20 -353 -34 -27 -47 -31 -97 -31 -67 0 -83 9 -52 31 34 23 47 82 29 126
-20 48 -57 71 -112 70 -114 -1 -166 -123 -104 -243 51 -100 198 -145 338 -103
75 22 160 107 190 188 27 73 30 181 7 257 -30 101 -131 200 -236 229 -238 68
-523 -60 -713 -320 l-18 -25 5 30 c28 160 29 176 18 252 -7 43 -19 84 -27 92
-12 13 -19 10 -49 -22 -57 -61 -77 -130 -87 -307 -11 -186 -23 -272 -44 -324
-22 -52 -27 -41 -14 30 18 93 6 264 -25 359 -46 146 -175 328 -293 416 l-32
24 612 -2 c344 -1 660 -7 722 -13 358 -35 627 -152 695 -303 47 -101 10 -176
-104 -212 -18 -5 -18 -7 4 -30 53 -57 180 -72 238 -28 40 30 65 79 66 130 1
42 2 44 26 37 100 -27 208 -20 296 20 55 25 110 76 208 190 33 38 81 84 108
103 54 39 59 50 23 59 -39 10 -76 -9 -192 -97 -133 -101 -196 -132 -283 -137
-94 -6 -133 9 -261 94 -139 93 -212 131 -309 160 l-75 23 6055 0 c6032 0 6055
0 5986 -20 -97 -28 -152 -56 -309 -158 -148 -96 -180 -107 -280 -99 -74 6
-145 42 -277 141 -115 86 -152 104 -190 92 -31 -10 -24 -22 28 -54 28 -17 81
-70 132 -132 94 -114 156 -161 237 -185 69 -20 189 -20 236 -1 l35 15 0 -49
c1 -92 70 -159 163 -159 46 0 116 29 144 60 16 18 16 19 -23 29 -58 16 -102
69 -102 124 1 156 187 285 511 356 162 35 304 41 932 44 601 2 607 2 580 -17
-47 -32 -151 -147 -201 -221 -58 -86 -107 -206 -123 -299 -11 -68 -8 -264 6
-316 6 -25 6 -25 -9 2 -27 46 -44 147 -51 303 -9 217 -27 282 -94 354 -25 27
-34 31 -46 21 -37 -31 -43 -198 -11 -317 8 -29 10 -53 6 -53 -5 0 -24 22 -44
49 -117 159 -304 278 -476 303 -286 42 -506 -159 -460 -420 15 -87 49 -150
111 -206 66 -59 133 -80 235 -74 118 8 198 68 225 170 32 117 -62 220 -168
185 -81 -26 -108 -133 -47 -185 14 -13 23 -26 19 -30 -4 -4 -33 -7 -65 -7 -50
0 -63 4 -97 31 -114 92 -120 252 -14 355 103 100 243 104 413 12 190 -103 338
-279 525 -621 106 -194 142 -249 218 -330 226 -242 555 -320 914 -216 163 48
314 132 501 281 87 69 250 229 490 479 152 159 233 216 378 268 83 29 94 31
242 31 131 0 167 -4 235 -23 100 -28 247 -101 300 -148 44 -39 30 -34 -59 20
-140 84 -299 126 -480 126 -215 0 -370 -63 -516 -210 -130 -131 -214 -302
-241 -496 -41 -291 106 -594 341 -707 95 -45 144 -56 252 -57 222 0 388 124
444 333 47 178 -32 373 -182 450 -162 83 -374 -4 -374 -154 0 -26 -4 -50 -10
-54 -13 -8 -55 60 -76 123 -24 77 -15 189 22 268 84 179 322 305 549 291 266
-17 541 -194 724 -468 137 -205 203 -469 188 -760 l-5 -107 36 -6 c68 -11 281
-30 286 -25 2 2 12 51 21 108 23 135 16 373 -15 506 -80 355 -253 650 -505
863 -232 195 -441 287 -714 312 -350 32 -649 -85 -986 -386 -66 -59 -156 -137
-200 -174 -328 -274 -636 -359 -884 -243 -64 30 -165 128 -196 189 -10 21 -26
47 -34 57 -14 17 -13 17 22 2 108 -45 245 12 303 127 94 186 14 408 -184 505
-74 37 -79 38 -186 38 -101 0 -116 -3 -174 -29 -35 -16 -84 -44 -109 -62 -26
-18 -49 -31 -51 -29 -8 7 57 83 115 135 66 58 179 119 276 149 219 67 495 8
625 -133 52 -57 82 -124 82 -182 l0 -32 -30 15 c-94 46 -200 -74 -169 -192 14
-51 73 -109 127 -126 96 -28 208 30 252 132 19 46 22 66 18 150 -3 88 -7 103
-42 175 -75 153 -239 277 -419 319 -58 13 -1004 15 -8504 18 -4641 1 -8472 -1
-8514 -4z m16648 -455 c53 -25 104 -79 123 -128 17 -45 12 -133 -10 -176 -27
-54 -40 -58 -40 -15 0 27 -8 44 -28 65 -92 92 -241 -2 -224 -141 2 -15 19 -46
39 -70 l37 -44 -38 35 -38 35 7 -55 c15 -117 69 -224 150 -299 119 -109 326
-155 527 -117 64 13 96 22 173 51 36 13 -88 -73 -156 -109 -36 -20 -115 -52
-175 -72 -137 -47 -284 -57 -408 -29 -237 52 -432 240 -476 458 -17 86 -15
235 5 303 76 262 327 408 532 308z M3606 12980 c-177 -31 -346 -219 -391 -435
-26 -123 -21 -168 50 -495 64 -295 89 -495 78 -626 -5 -64 -8 -73 -20 -61 -8
7 -21 58 -29 113 -17 116 -52 248 -95 349 -63 152 -116 205 -269 270 -200 85
-295 163 -387 321 -29 49 -57 96 -61 104 -7 11 -19 -5 -49 -65 -90 -179 -125
-341 -105 -486 15 -106 85 -254 172 -362 73 -92 271 -272 398 -362 44 -31 53
-42 50 -64 -7 -59 -90 -30 -240 86 -120 92 -207 173 -255 237 -143 188 -191
234 -328 313 -147 85 -334 140 -507 150 -167 9 -188 -7 -188 -150 0 -169 121
-517 229 -660 20 -27 89 -89 154 -139 145 -112 257 -229 340 -356 101 -154
120 -217 67 -217 -20 0 -40 21 -103 105 -213 287 -408 446 -607 496 -102 26
-259 15 -380 -25 -93 -31 -210 -89 -240 -117 -12 -12 -12 -14 5 -14 33 0 143
-57 205 -106 100 -78 180 -195 250 -366 54 -131 121 -187 321 -267 95 -37 173
-58 275 -72 79 -11 114 -23 114 -38 0 -16 -48 -21 -212 -22 -139 0 -191 5
-342 30 -217 38 -353 41 -440 11 -137 -47 -227 -124 -287 -246 -37 -74 -49
-158 -27 -187 12 -17 16 -16 59 11 158 100 291 105 674 21 189 -41 433 -25
642 42 197 63 354 159 488 300 156 165 222 359 185 549 -14 74 -11 75 152 76
152 1 190 9 291 59 178 90 327 290 410 550 63 197 72 258 72 480 0 150 -5 225
-19 300 -28 152 -61 274 -101 376 -37 90 -37 93 -21 127 21 43 27 38 99 -72
89 -134 160 -186 254 -186 198 1 282 229 167 450 -103 197 -301 304 -498 270z
M27928 12975 c-130 -33 -231 -107 -307 -225 -53 -81 -75 -150 -75 -235 -1 -84
15 -134 57 -182 62 -70 176 -94 262 -54 45 20 124 100 150 152 10 19 31 54 48
78 l30 44 19 -22 c24 -31 23 -39 -16 -145 -70 -186 -113 -400 -123 -611 -18
-396 153 -846 391 -1025 128 -97 250 -133 426 -128 l115 3 -4 -122 c-4 -136 6
-193 50 -291 77 -173 245 -335 457 -441 236 -119 570 -164 817 -111 383 83
519 80 665 -15 65 -42 76 -36 74 41 -3 119 -121 287 -244 347 -130 63 -259 68
-500 20 -95 -19 -168 -27 -303 -30 -193 -6 -267 0 -267 22 0 18 16 23 118 35
108 14 300 77 407 133 96 52 137 101 190 228 91 220 237 379 399 434 31 11 56
22 56 25 0 15 -152 91 -235 119 -378 124 -657 -8 -998 -471 -63 -86 -84 -108
-103 -108 -51 0 -38 58 44 190 91 147 175 236 374 396 138 111 184 168 244
303 84 192 141 417 131 522 -10 113 -49 135 -207 118 -193 -21 -356 -73 -499
-158 -114 -69 -173 -122 -259 -231 -129 -163 -221 -249 -392 -364 -114 -77
-160 -86 -160 -33 0 18 15 36 57 68 160 120 368 320 433 414 45 65 97 180 116
255 22 85 14 246 -16 345 -23 74 -109 265 -119 265 -3 0 -17 -21 -31 -47 -112
-213 -193 -285 -453 -402 -129 -59 -160 -87 -212 -195 -60 -124 -92 -228 -117
-376 -20 -120 -30 -150 -49 -150 -16 0 -9 242 11 381 11 75 43 237 70 360 55
250 62 343 34 458 -47 190 -171 347 -314 402 -68 26 -172 32 -242 14z M15809
11657 c-69 -83 -139 -192 -155 -239 -28 -81 -23 -183 14 -300 55 -173 54 -201
-7 -219 -72 -21 -80 -15 -143 112 -88 178 -183 263 -311 276 -103 11 -216 -53
-253 -142 -18 -44 -18 -128 0 -163 38 -72 134 -120 186 -92 18 10 18 12 -6 48
-32 46 -27 86 16 125 61 55 169 25 242 -66 50 -64 85 -133 134 -267 21 -58 77
-181 124 -275 48 -93 106 -228 130 -298 42 -126 44 -128 69 -122 14 4 26 7 27
8 0 1 18 52 38 112 21 61 73 181 117 267 43 87 102 214 129 284 89 223 140
305 217 354 91 58 186 32 200 -53 5 -30 1 -45 -16 -68 -30 -41 -19 -52 46 -47
89 8 143 62 151 152 12 142 -116 257 -268 243 -128 -11 -227 -100 -317 -285
l-57 -114 -50 6 c-61 7 -89 33 -80 75 3 14 20 69 36 121 42 132 48 244 18 323
-33 87 -167 277 -195 276 -5 0 -22 -15 -36 -32z M4930 10964 c-71 -131 -391
-196 -815 -165 -319 23 -515 -28 -675 -176 -109 -100 -167 -213 -191 -371
l-12 -82 -48 0 c-119 0 -288 -91 -379 -203 -60 -74 -101 -156 -132 -262 -22
-78 -23 -90 -20 -418 3 -390 -1 -417 -75 -564 -54 -105 -51 -123 19 -123 143
0 326 103 407 228 70 110 83 198 67 447 -8 118 -7 132 9 148 27 28 45 5 45
-58 0 -121 68 -255 183 -362 79 -73 155 -118 232 -138 127 -32 150 -18 143 94
-6 92 -35 170 -124 331 -34 63 -68 137 -75 163 -17 71 -6 167 26 233 59 121
206 228 327 241 77 8 181 -31 332 -122 197 -119 224 -130 334 -130 82 0 95 2
109 20 31 42 -20 221 -96 337 -105 160 -258 262 -415 277 -73 6 -88 18 -60 46
21 21 106 18 321 -10 122 -17 152 -18 214 -7 134 23 271 119 339 237 67 117
119 341 91 393 -17 32 -64 30 -81 -4z M26690 10965 c-12 -32 4 -158 32 -240
67 -202 179 -324 346 -375 81 -25 152 -25 320 0 134 20 236 25 266 14 9 -3 16
-16 16 -29 0 -20 -6 -23 -68 -28 -126 -10 -242 -75 -351 -194 -102 -110 -188
-315 -167 -396 9 -37 46 -50 131 -44 87 5 167 38 329 135 155 94 212 116 301
116 60 1 80 -4 138 -33 88 -43 178 -130 215 -208 23 -50 27 -70 26 -148 0 -99
-7 -118 -99 -280 -117 -208 -147 -382 -68 -401 68 -17 219 42 314 123 130 111
193 217 210 358 13 101 23 120 46 90 13 -17 14 -40 7 -150 -16 -254 -4 -337
67 -447 81 -126 263 -227 410 -228 66 0 69 19 16 128 -73 151 -72 145 -72 547
-1 408 -3 426 -88 590 -90 176 -282 305 -453 305 l-42 0 -12 82 c-15 107 -41
172 -101 263 -90 134 -212 221 -374 266 -92 26 -235 30 -510 15 -246 -14 -470
16 -592 77 -27 14 -68 46 -91 71 -50 54 -87 61 -102 21z M14340 10935 c-407
-70 -832 -321 -1110 -657 -185 -223 -524 -412 -806 -449 -183 -24 -326 25
-364 125 -23 60 22 140 86 152 42 8 43 23 3 62 -67 66 -178 64 -258 -4 -53
-46 -75 -105 -69 -187 6 -76 33 -131 88 -181 84 -76 195 -102 390 -93 226 11
427 83 675 242 30 19 30 19 14 0 -9 -11 -53 -67 -100 -125 -115 -144 -338
-397 -445 -504 -302 -303 -590 -467 -890 -507 -273 -36 -534 81 -634 285 -39
78 -52 194 -30 262 38 118 174 203 279 174 80 -21 158 -120 133 -167 -6 -10
-26 -33 -46 -50 -94 -86 -57 -208 62 -208 98 0 199 99 239 235 35 120 11 284
-53 359 l-33 38 101 -34 c267 -89 369 -100 506 -54 l83 28 -81 7 c-141 12
-239 35 -480 116 -318 106 -396 122 -585 122 -118 0 -166 -4 -225 -20 -190
-51 -350 -135 -471 -249 -152 -144 -240 -333 -257 -554 l-7 -93 -63 87 c-109
149 -117 172 -118 312 0 131 -9 161 -49 171 -41 10 -82 -14 -105 -60 -46 -96
-6 -260 91 -370 43 -49 36 -52 -23 -8 -378 276 -927 375 -1498 271 -340 -62
-708 -230 -988 -452 -174 -137 -433 -397 -548 -550 -25 -34 -49 -62 -53 -61
-3 1 -31 -19 -61 -44 -30 -25 -88 -61 -127 -80 -67 -31 -79 -34 -147 -30 -66
3 -80 7 -128 41 -62 42 -90 46 -112 15 -21 -29 -20 -64 3 -114 52 -114 174
-154 296 -95 71 33 130 93 210 214 32 48 60 85 62 83 2 -2 -23 -46 -55 -97
-32 -52 -91 -151 -130 -221 -110 -198 -199 -326 -281 -409 -90 -89 -150 -122
-239 -127 -85 -6 -161 30 -203 96 -45 71 -35 172 20 202 33 17 41 11 41 -31 0
-121 173 -136 199 -18 16 70 -35 156 -107 180 -58 19 -146 7 -194 -27 -129
-92 -143 -291 -28 -417 67 -73 130 -101 231 -101 69 -1 84 3 149 36 l72 37
-18 -27 c-10 -15 -54 -74 -98 -132 -149 -194 -273 -299 -410 -349 -61 -21 -88
-25 -191 -25 -102 0 -129 3 -177 23 -172 68 -262 193 -262 361 1 161 104 290
232 290 47 0 102 -10 102 -19 0 -3 -19 -14 -41 -25 -133 -61 -106 -262 41
-311 102 -34 209 21 256 130 24 56 23 158 -3 216 -101 227 -418 252 -606 49
-29 -31 -64 -80 -79 -110 -99 -206 -33 -485 147 -618 127 -93 217 -123 375
-123 228 -1 408 76 575 248 135 139 287 375 530 822 70 129 150 271 178 315
93 150 249 381 297 441 61 77 108 118 56 50 -126 -167 -195 -297 -261 -485
-72 -208 -109 -391 -140 -705 -29 -283 -58 -386 -129 -460 -37 -40 -45 -43
-88 -43 -27 1 -48 3 -48 6 0 2 11 17 25 34 41 49 33 118 -16 143 -38 20 -77
19 -118 -3 -51 -28 -73 -74 -69 -148 5 -82 38 -132 109 -168 187 -93 373 68
429 369 22 118 19 118 55 9 113 -344 343 -587 591 -624 142 -22 264 35 309
144 47 111 -52 237 -161 207 -38 -11 -94 -56 -94 -77 0 -6 -10 -24 -22 -39
-20 -25 -25 -27 -82 -23 -81 5 -142 36 -217 109 -141 140 -241 362 -279 627
-35 236 24 602 127 792 25 48 25 42 -8 -80 -75 -279 5 -593 175 -690 92 -54
103 -35 47 82 -154 319 -104 722 131 1053 81 114 242 267 368 350 284 187 666
295 1045 295 299 -1 563 -62 844 -196 222 -106 391 -243 515 -418 69 -97 130
-161 146 -151 5 3 -5 44 -22 92 -38 111 -47 211 -23 282 21 64 96 148 176 197
35 22 59 44 59 54 0 45 -81 66 -139 35 -16 -8 -47 -35 -70 -61 -37 -42 -41
-44 -41 -23 1 60 34 172 76 259 38 77 61 109 123 170 159 157 370 243 596 244
233 2 343 -53 414 -204 45 -95 40 -108 -19 -46 -27 29 -76 66 -107 82 -52 26
-68 29 -153 29 -88 0 -101 -3 -162 -33 -216 -106 -287 -363 -166 -604 180
-359 717 -456 1183 -214 183 95 370 247 587 478 73 78 155 165 181 193 l48 50
-40 -82 c-104 -210 -279 -488 -401 -638 -71 -87 -219 -230 -283 -274 -125 -85
-277 -140 -311 -112 -7 6 -19 31 -25 54 -17 72 -71 100 -136 73 -45 -19 -80
-89 -70 -138 10 -44 67 -102 127 -128 44 -19 65 -22 144 -18 81 3 100 8 166
40 100 50 185 116 303 239 141 145 280 335 359 489 36 70 66 133 66 138 0 9
41 77 56 91 2 2 -14 -48 -36 -111 -72 -208 -93 -315 -94 -468 -1 -126 1 -139
26 -192 44 -94 112 -109 145 -31 14 35 14 46 0 128 -21 118 -32 323 -22 411
l8 69 19 -110 c42 -251 137 -445 294 -599 177 -174 386 -262 675 -285 122 -10
3946 -14 3864 -4 -76 9 -161 28 -287 64 l-136 39 -1359 0 -1359 0 -125 -35
c-163 -46 -274 -65 -368 -64 -42 1 -65 4 -51 6 491 78 955 275 1266 536 187
157 365 379 468 585 248 495 148 1074 -243 1409 -212 182 -418 277 -691 318
-114 18 -307 18 -410 0z m592 -184 c155 -44 170 -56 75 -57 -107 -2 -189 -50
-202 -119 -10 -53 5 -59 69 -29 110 50 262 42 391 -21 69 -33 160 -109 218
-180 62 -77 141 -238 162 -335 23 -100 30 -303 16 -415 -21 -159 -113 -392
-188 -473 l-24 -27 26 53 c40 83 58 167 59 277 0 166 -37 296 -118 409 -96
135 -209 206 -327 206 -123 0 -192 -63 -194 -176 0 -81 53 -124 88 -70 39 59
148 73 234 30 124 -61 198 -206 210 -409 6 -116 -14 -255 -51 -345 -51 -127
-173 -278 -320 -397 -117 -93 -436 -289 -436 -267 0 4 31 39 69 79 151 159
222 346 207 550 -14 203 -87 321 -248 403 -47 23 -93 42 -104 42 -47 1 -46 18
3 34 109 36 233 148 289 261 81 164 45 400 -79 511 -68 62 -139 88 -237 89
-136 0 -214 -42 -269 -144 -69 -130 -20 -280 105 -321 73 -24 159 12 196 83
19 39 21 40 34 22 89 -121 -26 -322 -211 -370 -321 -83 -615 156 -615 500 0
133 52 285 119 349 l30 29 -20 -54 c-43 -112 -44 -228 -3 -314 19 -40 100
-135 116 -135 7 0 7 4 0 13 -22 27 -42 124 -42 204 0 137 52 256 159 363 138
138 293 191 551 187 130 -2 157 -6 262 -36z m-1157 -153 c-49 -57 -100 -168
-130 -281 -30 -112 -34 -264 -9 -361 43 -166 170 -327 319 -403 86 -44 172
-73 217 -73 15 0 28 -3 27 -7 0 -5 -26 -26 -58 -49 -108 -77 -168 -204 -159
-338 8 -122 67 -212 173 -262 64 -30 170 -33 230 -5 196 89 135 375 -72 336
-50 -9 -103 -63 -103 -104 0 -42 -12 -39 -39 10 -19 33 -22 52 -19 99 5 76 38
126 109 165 50 28 62 30 154 30 91 0 105 -3 158 -29 196 -100 245 -359 115
-608 -102 -196 -342 -374 -613 -454 -130 -38 -351 -45 -478 -15 -112 27 -206
67 -304 130 -69 44 -158 121 -141 121 4 0 35 -18 70 -39 248 -155 519 -114
614 94 76 166 -1 335 -153 335 -77 0 -143 -57 -143 -123 0 -36 13 -56 25 -37
12 20 73 11 104 -16 53 -45 54 -117 1 -178 -61 -69 -245 -78 -339 -17 l-24 15
29 9 c43 14 74 47 74 78 0 39 -19 51 -63 37 -76 -23 -221 28 -308 109 -98 92
-133 199 -134 413 0 115 5 167 23 254 59 273 172 505 332 679 72 78 126 116
66 46 -115 -134 -185 -407 -165 -641 18 -209 94 -346 224 -404 142 -62 260
-31 312 84 30 63 27 125 -7 173 -24 33 -85 55 -125 45 -38 -10 -87 -61 -85
-88 4 -47 0 -58 -20 -58 -63 0 -128 73 -163 184 -31 99 -31 321 1 447 41 168
121 336 220 468 51 67 265 271 285 271 5 0 -8 -19 -28 -42z M16953 10939
c-121 -18 -291 -67 -375 -108 -181 -86 -376 -242 -489 -390 -114 -151 -187
-349 -209 -573 -37 -374 129 -769 474 -1127 97 -99 192 -179 301 -251 111 -72
395 -210 547 -264 336 -121 536 -156 885 -156 l171 0 12 53 c19 79 78 235 116
303 91 165 324 417 484 523 189 125 389 207 630 258 115 25 143 27 355 27 213
0 240 -2 359 -27 161 -35 345 -94 454 -147 253 -122 479 -343 600 -586 36 -72
104 -264 122 -346 l13 -58 874 0 873 0 0 55 0 55 -257 1 -258 1 70 17 c149 37
247 78 340 145 27 19 142 127 255 239 113 112 234 223 269 246 209 141 429
199 658 172 318 -37 553 -180 663 -404 48 -97 64 -176 57 -272 -7 -95 -39
-173 -94 -235 -59 -66 -118 -100 -187 -107 -77 -8 -138 27 -172 100 -29 62
-30 89 -5 142 22 48 44 69 95 90 44 19 43 33 -5 58 -24 13 -49 17 -86 14 -68
-5 -117 -42 -150 -114 -22 -47 -24 -65 -21 -131 12 -223 202 -342 469 -292 66
13 68 12 114 -14 139 -82 225 -227 225 -382 0 -99 -13 -150 -67 -263 -38 -79
-59 -108 -127 -177 -66 -66 -99 -90 -170 -124 -48 -23 -90 -48 -93 -55 -21
-55 312 -813 371 -845 18 -9 26 -22 26 -39 0 -26 0 -26 88 -26 75 0 95 -4 144
-28 135 -67 216 -233 206 -427 -6 -100 -32 -168 -103 -260 -100 -130 -261
-217 -443 -240 -224 -29 -516 96 -760 324 l-65 61 -1423 3 -1422 2 -45 -78
c-246 -425 -673 -705 -1169 -762 -149 -18 -442 -8 -572 19 -240 49 -418 130
-622 282 -172 129 -310 282 -411 457 l-48 82 -445 -3 c-429 -4 -448 -5 -520
-26 -103 -32 -203 -86 -246 -133 -112 -124 -134 -309 -56 -463 30 -61 138
-168 215 -214 218 -129 398 -131 570 -7 52 38 137 61 183 50 16 -3 60 -22 98
-41 63 -32 76 -35 131 -31 111 9 194 68 230 163 23 58 17 163 -13 221 -11 22
-80 103 -153 181 l-132 141 -81 7 c-45 3 -97 10 -116 15 -30 7 -24 8 36 9 39
1 105 4 146 7 l75 7 58 -89 c108 -167 219 -282 399 -418 312 -236 622 -338
1031 -339 408 -2 645 66 1037 296 251 147 417 207 578 207 167 0 301 -76 300
-172 -1 -27 -2 -30 -11 -15 -14 24 -62 47 -100 47 -37 0 -98 -55 -100 -91 -3
-71 13 -112 61 -153 57 -47 188 -29 247 35 54 59 72 174 39 254 l-16 40 56
-60 c99 -106 200 -294 239 -446 22 -84 16 -198 -13 -255 -28 -55 -80 -98 -141
-119 -45 -14 -51 -20 -51 -44 0 -87 131 -115 237 -50 58 36 122 117 139 177
37 126 5 253 -105 416 l-52 77 89 -45 c153 -77 250 -95 382 -72 150 27 255 92
475 297 178 165 342 272 455 298 110 25 219 5 288 -55 48 -41 54 -64 16 -64
-40 0 -63 -17 -73 -58 -20 -74 25 -151 98 -167 70 -15 160 42 181 116 39 137
-36 271 -197 351 -246 123 -454 41 -853 -337 -85 -80 -182 -164 -215 -186
-109 -72 -230 -94 -370 -68 -58 11 -190 58 -182 65 2 2 40 -1 85 -7 99 -13
164 -2 261 47 129 65 209 187 198 302 -11 110 -81 194 -172 208 -84 12 -155
-34 -155 -100 0 -42 16 -61 70 -84 57 -24 72 -42 72 -85 0 -43 -21 -83 -64
-123 -45 -43 -82 -60 -157 -74 -121 -22 -214 5 -342 98 -108 78 -210 132 -329
174 -91 31 -101 33 -240 33 -186 0 -265 -21 -349 -95 -31 -27 -57 -47 -59 -45
-3 2 21 32 53 67 48 53 128 166 199 281 l16 27 1358 0 1357 -1 85 -75 c163
-145 321 -237 500 -292 75 -23 103 -26 230 -26 107 0 162 4 209 17 149 40 259
99 359 192 82 76 133 144 182 246 40 82 56 145 146 554 57 260 75 319 127 420
46 89 139 190 200 219 64 29 148 40 224 27 184 -31 304 -152 336 -335 34 -201
-131 -391 -288 -331 l-45 17 42 21 c118 60 108 241 -15 298 -147 66 -297 -48
-297 -225 0 -74 25 -138 76 -195 79 -88 193 -125 310 -101 250 51 406 287 360
545 -40 233 -214 398 -464 442 -79 14 -104 15 -165 5 -186 -31 -334 -166 -420
-382 -37 -94 -74 -273 -91 -444 -16 -156 -30 -199 -38 -123 -8 68 -71 189
-131 250 -69 70 -182 129 -246 129 -53 0 -112 -26 -154 -68 -35 -34 -44 -28
-13 11 l23 28 -102 201 c-83 165 -225 479 -225 498 0 3 31 26 69 51 83 55 187
151 227 208 l29 42 12 -68 c17 -91 45 -147 100 -195 179 -157 453 -65 453 153
0 86 -57 147 -138 147 -35 0 -49 -6 -74 -30 -36 -36 -33 -72 8 -106 32 -26 28
-54 -9 -72 -67 -32 -151 20 -188 116 -20 54 -21 68 -15 252 6 176 5 203 -13
273 -27 104 -63 168 -136 243 -66 67 -146 114 -197 114 l-33 1 25 20 c142 114
203 244 204 434 1 55 -3 113 -7 128 -6 21 -5 27 4 22 18 -11 3 29 -48 134 -39
81 -59 108 -152 201 -58 60 -101 106 -96 103 49 -30 146 -118 191 -176 63 -81
99 -147 121 -221 8 -28 43 -112 78 -186 77 -162 109 -257 181 -540 143 -558
256 -777 477 -929 120 -82 235 -115 392 -114 140 1 240 31 349 104 151 101
222 252 214 454 -7 155 -60 261 -173 347 -78 60 -145 81 -250 82 -83 1 -96 -2
-157 -32 -110 -54 -169 -144 -170 -258 -1 -128 74 -225 191 -248 81 -15 191
58 206 137 15 80 -21 157 -86 187 -38 16 -40 19 -22 29 34 18 97 23 138 12 60
-16 110 -63 147 -139 30 -60 33 -75 32 -152 -1 -109 -27 -180 -94 -253 -138
-151 -376 -181 -590 -74 -85 42 -213 167 -267 262 -73 127 -148 349 -279 824
-50 181 -81 260 -153 380 -270 454 -624 684 -1091 707 -214 11 -375 -23 -567
-120 -108 -55 -169 -97 -253 -179 -373 -361 -406 -390 -535 -454 -236 -118
-527 -134 -763 -43 -243 94 -445 330 -482 565 -13 79 -6 143 21 223 36 105 80
160 200 253 95 72 153 137 139 155 -15 18 -55 22 -107 13 -99 -19 -205 -91
-269 -185 l-39 -57 -6 50 c-33 261 -286 479 -636 547 -493 95 -1173 -154
-1903 -698 -353 -263 -561 -466 -698 -683 -31 -49 -57 -58 -135 -48 -103 14
-160 52 -178 117 -8 32 -6 46 10 82 23 54 50 70 107 63 36 -4 44 -1 49 14 14
42 -25 101 -82 125 -129 55 -253 -53 -241 -209 7 -83 43 -151 112 -215 64 -58
132 -85 218 -86 32 -1 58 -3 58 -5 0 -2 -14 -42 -32 -87 l-31 -84 -41 0 c-69
0 -256 19 -346 36 -311 57 -595 226 -733 435 -118 178 -133 430 -34 561 76 99
176 144 305 136 89 -5 143 -29 190 -82 52 -60 64 -133 33 -202 -21 -47 -41
-65 -41 -37 0 10 -9 33 -20 51 -58 95 -192 95 -250 0 -14 -23 -20 -51 -20 -89
0 -179 228 -263 392 -143 123 89 157 274 80 432 -27 55 -124 155 -162 167 -32
10 -23 25 14 25 47 0 159 36 231 73 79 42 192 155 238 237 61 111 82 197 81
335 0 93 -5 137 -22 198 -26 90 -78 200 -131 272 -33 47 -29 44 74 -46 169
-148 249 -256 336 -460 66 -152 91 -264 92 -409 1 -136 -14 -213 -57 -298 -32
-64 -89 -114 -124 -110 -24 3 -28 8 -32 48 -7 56 -12 64 -54 84 -94 45 -176
-15 -176 -128 0 -61 19 -104 63 -143 69 -61 159 -66 266 -17 150 68 231 242
231 497 0 205 -69 437 -161 542 -52 59 -15 39 42 -22 148 -162 224 -312 265
-522 23 -116 20 -308 -6 -421 -18 -76 -20 -94 -9 -101 22 -13 50 12 85 76 106
191 95 481 -27 715 -19 36 -35 68 -37 72 -2 4 20 -8 50 -28 113 -77 269 -145
433 -191 134 -37 321 -43 434 -14 46 11 103 32 126 45 112 66 170 199 134 307
-46 137 -214 191 -319 102 -39 -32 -39 -59 -1 -66 52 -11 83 -47 88 -103 7
-67 -13 -103 -74 -136 -211 -115 -620 -3 -944 258 -37 29 -113 104 -170 166
-57 62 -135 142 -174 177 -244 223 -560 389 -865 456 -90 19 -367 28 -457 14z
m297 -169 c137 -28 227 -76 321 -170 154 -154 202 -342 135 -529 -9 -24 -15
-46 -12 -48 2 -2 28 23 58 55 102 111 116 247 43 427 -6 16 -2 14 22 -8 97
-91 147 -310 108 -476 -44 -184 -158 -315 -326 -371 -54 -19 -80 -21 -170 -18
-91 4 -114 8 -170 35 -75 35 -128 85 -159 150 -32 68 -26 164 12 210 8 10 15
3 32 -30 11 -23 37 -52 56 -65 30 -20 45 -23 100 -20 103 5 161 63 176 172 16
114 -75 248 -192 282 -72 21 -182 14 -248 -15 -64 -28 -147 -110 -182 -178
-28 -55 -29 -64 -29 -189 l0 -131 42 -85 c32 -64 58 -100 103 -141 55 -51 184
-127 216 -127 8 0 14 -4 14 -9 0 -4 -20 -11 -45 -14 -66 -9 -161 -62 -221
-121 -93 -94 -134 -206 -134 -367 0 -204 71 -363 244 -548 l41 -44 -100 53
c-207 109 -351 216 -492 363 -149 156 -207 295 -219 527 -13 226 69 415 209
484 87 44 164 33 223 -31 32 -35 34 -35 58 -20 31 21 46 72 36 127 -16 90 -89
140 -201 140 -91 0 -171 -40 -260 -131 -117 -120 -179 -283 -179 -472 0 -118
14 -188 54 -271 18 -36 29 -66 25 -66 -12 0 -87 122 -120 195 -17 38 -43 113
-57 165 -24 88 -26 111 -26 300 0 194 2 210 27 293 48 156 114 264 223 367
111 105 240 160 371 160 63 0 153 -22 191 -46 28 -18 42 -11 42 24 0 78 -88
135 -206 136 -40 1 -70 4 -68 8 5 8 97 37 217 68 101 26 290 26 417 0z m3506
-981 c43 -6 101 -19 130 -30 111 -42 201 -159 230 -301 17 -82 31 -103 63 -93
25 7 46 45 56 97 9 48 -17 137 -53 179 l-27 33 34 -20 c60 -34 141 -116 168
-168 35 -67 37 -161 5 -223 -36 -69 -111 -113 -193 -113 -21 0 -40 -4 -44 -10
-9 -15 15 -46 59 -74 75 -49 207 -26 267 46 l26 31 -8 -64 c-28 -226 104 -533
300 -696 85 -70 221 -137 346 -168 54 -14 101 -27 103 -30 3 -3 -160 -5 -362
-5 l-366 0 -9 23 c-5 12 -21 68 -36 124 -47 175 -151 369 -279 517 -67 78
-213 199 -313 259 -162 97 -381 175 -632 224 -123 24 -159 27 -366 27 -248 0
-328 -10 -516 -70 -45 -14 -83 -23 -85 -21 -7 7 197 131 361 220 310 168 626
277 755 262 117 -15 203 -65 251 -149 38 -67 39 -123 3 -165 -32 -38 -80 -49
-123 -26 -17 8 -36 13 -41 10 -37 -23 39 -120 105 -135 165 -38 293 167 210
336 -30 62 -77 102 -169 145 -36 17 -66 33 -66 35 0 8 141 4 216 -7z m-2678
-4578 c139 -38 199 -69 262 -138 93 -101 126 -221 87 -314 -19 -46 -78 -96
-123 -105 -77 -14 -146 7 -230 71 -90 69 -168 71 -234 5 -74 -74 -64 -155 20
-176 l45 -11 -34 -6 c-141 -29 -338 33 -446 139 -68 68 -98 130 -103 217 -4
60 -1 75 27 132 49 98 149 171 291 210 93 25 298 14 438 -24z m223 -48 l24
-28 -30 25 c-16 14 -32 26 -34 28 -2 1 0 2 6 2 5 0 20 -12 34 -27z M13375
10508 c-262 -158 -383 -210 -519 -224 -78 -8 -126 0 -160 27 l-26 21 20 33
c24 39 25 75 5 115 -29 56 -97 74 -161 44 -95 -45 -89 -213 9 -288 72 -55 124
-71 237 -71 90 0 117 4 190 29 158 53 235 99 345 205 55 54 125 117 155 141
75 60 76 60 65 59 -6 0 -77 -41 -160 -91z M18220 10543 c36 -32 108 -99 160
-150 78 -75 111 -99 180 -132 160 -75 233 -95 350 -95 93 -1 111 2 160 25 30
14 70 39 89 54 122 104 75 306 -67 292 -89 -9 -134 -91 -91 -167 23 -41 23
-42 4 -56 -59 -44 -184 -41 -327 6 -110 37 -172 68 -367 186 l-156 94 65 -57z
M1932 9560 c-66 -10 -177 -63 -198 -95 -29 -44 8 -99 122 -181 123 -88 254
-137 416 -154 95 -10 108 -14 108 -35 0 -58 -197 -70 -360 -22 -52 16 -158 60
-235 98 -117 58 -151 71 -210 77 -95 10 -194 -2 -293 -34 -156 -50 -262 -140
-336 -284 -41 -79 -104 -266 -93 -276 3 -3 32 4 66 16 79 26 192 27 287 1 38
-11 131 -46 205 -78 l134 -58 105 0 c94 0 117 4 225 38 145 47 280 103 364
152 94 55 127 28 49 -40 -56 -48 -160 -97 -403 -191 -252 -97 -337 -136 -483
-223 -247 -146 -388 -287 -482 -482 -55 -115 -73 -207 -67 -339 14 -305 204
-549 485 -621 255 -65 524 46 629 259 37 73 38 80 38 181 0 96 -3 112 -28 163
-35 72 -110 140 -185 168 -149 57 -327 -16 -346 -141 -10 -64 -19 -75 -53 -64
-68 24 -79 134 -24 250 74 159 264 287 621 420 246 91 355 152 513 286 116 99
245 256 194 236 -35 -13 -126 -18 -146 -8 -44 24 -43 43 4 140 65 134 79 193
79 346 1 72 -3 178 -8 238 l-8 107 -61 -6 c-89 -9 -179 15 -337 91 -145 68
-193 79 -288 65z M29620 9557 c-25 -7 -83 -33 -130 -59 -127 -69 -192 -88
-304 -88 l-94 0 -8 -77 c-4 -43 -8 -148 -8 -233 -1 -178 10 -234 74 -368 22
-46 40 -94 40 -107 0 -47 -76 -69 -158 -46 -17 5 -32 7 -32 4 0 -14 107 -137
175 -202 143 -136 309 -230 580 -331 360 -134 551 -279 606 -462 32 -104 9
-189 -54 -196 -22 -3 -27 2 -32 25 -15 68 -39 115 -73 143 -116 96 -305 72
-416 -51 -57 -63 -86 -140 -87 -228 -2 -218 146 -390 389 -452 232 -59 488 34
632 229 154 208 181 491 70 729 -132 285 -445 515 -965 708 -99 37 -221 87
-271 111 -95 46 -174 105 -174 130 0 30 32 25 98 -14 165 -98 456 -192 592
-192 68 0 108 12 293 89 189 78 317 93 430 51 32 -12 61 -19 64 -16 11 10 -46
184 -84 260 -48 97 -97 160 -165 211 -124 93 -322 146 -472 126 -67 -9 -102
-22 -221 -81 -189 -93 -289 -123 -425 -124 -114 -1 -160 14 -160 53 0 23 19
31 73 31 176 0 391 90 522 218 47 46 56 60 53 85 -8 84 -229 160 -358 124z
M23100 9285 c-48 -22 -87 -62 -100 -101 -9 -28 -8 -41 9 -79 l20 -45 36 21
c74 44 165 -7 165 -91 0 -34 -7 -47 -43 -84 -60 -60 -125 -81 -247 -81 -152 1
-289 51 -425 158 -102 79 -240 167 -299 189 -196 75 -394 -57 -396 -264 -1
-155 107 -280 244 -282 119 -1 200 109 151 204 -41 80 -175 48 -175 -42 0 -36
-19 -36 -53 0 -100 104 -16 262 139 262 68 0 149 -41 254 -129 47 -39 118 -96
158 -127 112 -87 191 -214 192 -307 0 -51 26 -47 57 8 44 78 42 171 -3 225
-30 35 -29 35 22 13 28 -11 79 -17 174 -20 116 -4 144 -2 199 16 191 60 278
211 225 390 -38 129 -195 215 -304 166z M6424 8841 c-32 -20 -64 -82 -64 -127
0 -31 25 -92 48 -117 63 -70 224 -97 348 -59 89 28 96 33 255 186 129 124 131
127 64 81 -180 -123 -366 -179 -485 -145 -62 18 -67 25 -46 60 49 83 -39 172
-120 121z M8590 8830 c-350 -44 -623 -170 -824 -380 -158 -165 -246 -345 -276
-561 -20 -141 -1 -262 59 -394 94 -202 283 -311 483 -277 168 29 268 131 268
272 0 33 -6 56 -21 74 -25 31 -49 33 -75 5 -52 -58 -161 -76 -239 -40 -193 90
-237 415 -92 673 128 226 352 380 630 433 100 19 320 19 408 1 274 -58 466
-233 529 -482 28 -107 27 -288 0 -403 -44 -182 -172 -357 -314 -426 -65 -32
-192 -65 -252 -65 l-24 0 0 349 c0 404 9 483 65 597 20 38 33 77 30 86 -3 8
-25 24 -47 34 l-41 18 -56 -61 c-118 -128 -245 -206 -406 -249 -80 -21 -80
-21 -83 -57 -3 -30 1 -36 20 -42 36 -11 86 -53 106 -88 15 -29 17 -79 20 -559
3 -502 2 -528 -15 -528 -34 -1 -200 -76 -270 -123 -211 -140 -348 -348 -405
-612 -21 -98 -16 -314 10 -419 70 -283 270 -527 534 -651 264 -124 621 -137
933 -34 364 121 669 430 795 807 93 278 86 614 -19 868 -104 253 -321 463
-577 559 l-86 33 73 38 c317 167 497 529 435 874 -57 315 -276 547 -626 664
-58 19 -148 42 -200 51 -118 19 -350 27 -450 15z m485 -1776 c207 -49 390
-206 504 -431 119 -238 134 -632 34 -931 -107 -321 -332 -551 -619 -634 -68
-19 -101 -23 -234 -22 -138 1 -164 3 -243 27 -295 90 -489 296 -543 575 -18
97 -18 226 2 315 45 208 212 407 397 476 95 35 87 68 87 -342 0 -219 -4 -387
-11 -422 -15 -82 -53 -152 -94 -177 -29 -16 -35 -26 -35 -54 l0 -34 248 0
c136 0 291 3 345 7 l97 6 0 32 c0 26 -7 36 -37 56 -45 29 -78 75 -100 143 -14
43 -18 108 -21 424 l-3 373 38 -16 c101 -42 170 -122 198 -230 26 -101 17
-173 -39 -306 -12 -28 22 -52 63 -44 221 40 345 319 252 565 -66 174 -242 313
-456 361 l-55 12 0 150 0 149 83 -7 c45 -3 109 -13 142 -21z M19590 8739
c-399 -75 -718 -310 -851 -627 -127 -306 -39 -647 199 -764 60 -30 75 -33 157
-33 99 0 145 17 197 72 57 60 77 168 39 214 -18 22 -22 23 -43 10 -59 -37 -80
-43 -124 -36 -67 10 -122 57 -163 139 -30 59 -36 81 -39 155 -15 322 233 613
592 696 223 52 433 32 610 -57 84 -42 202 -163 243 -248 87 -178 96 -420 23
-613 -32 -86 -114 -201 -183 -259 -86 -71 -157 -98 -295 -114 l-64 -7 5 389
c5 421 8 453 64 555 30 57 25 79 -23 102 l-35 17 -97 -98 c-82 -83 -111 -105
-188 -144 -50 -25 -126 -54 -167 -64 -70 -16 -77 -20 -83 -46 -3 -16 -4 -30
-2 -32 1 -1 25 -11 52 -21 38 -16 54 -29 70 -60 20 -39 21 -55 24 -551 l3
-511 -55 -12 c-62 -14 -195 -76 -264 -123 -321 -219 -456 -634 -330 -1015 97
-295 361 -534 684 -618 247 -64 597 -31 830 79 263 125 450 307 575 561 145
295 168 638 63 939 -84 243 -290 451 -541 548 -43 17 -80 32 -81 33 -2 2 20
16 50 31 90 46 162 100 229 172 143 155 208 324 209 535 1 428 -308 734 -820
812 -133 21 -340 18 -470 -6z m530 -1675 c452 -104 678 -687 488 -1258 -108
-327 -340 -548 -642 -612 -92 -19 -281 -19 -375 1 -365 77 -610 406 -570 765
17 152 69 267 171 376 83 88 172 140 291 168 l27 6 0 -332 c0 -430 -15 -505
-105 -554 -28 -15 -35 -24 -33 -44 l3 -25 333 -3 332 -2 0 28 c0 22 -9 34 -37
53 -48 30 -89 110 -103 199 -15 99 -13 660 3 660 6 0 35 -13 63 -30 143 -82
197 -261 128 -426 -8 -20 -13 -43 -10 -50 8 -22 75 -17 133 10 206 96 251 383
92 593 -73 98 -203 177 -341 209 l-78 18 0 139 0 140 83 -7 c45 -4 111 -14
147 -22z M15358 8698 c-22 -6 -66 -36 -110 -75 -40 -35 -109 -89 -153 -120
-113 -79 -112 -80 16 -14 124 65 205 91 281 91 72 0 158 -41 158 -76 0 -6 -16
-31 -35 -54 -46 -55 -48 -100 -5 -140 108 -101 278 18 256 180 -20 146 -232
255 -408 208z M16137 8700 c-124 -32 -207 -125 -207 -235 0 -105 68 -185 158
-185 112 0 156 81 91 169 -17 24 -29 52 -27 64 4 29 80 67 134 67 55 0 198
-42 292 -85 41 -19 77 -35 79 -35 3 0 -25 20 -60 43 -36 24 -97 73 -136 108
-40 35 -89 70 -109 77 -49 17 -168 24 -215 12z M10535 8385 c-66 -90 -140
-136 -266 -168 -51 -13 -54 -16 -57 -49 -3 -30 1 -36 29 -48 44 -20 67 -55 79
-119 14 -78 13 -1893 -1 -1946 -7 -24 -27 -55 -50 -77 -29 -27 -39 -45 -39
-68 l0 -30 264 0 c231 0 265 2 270 16 11 30 6 42 -28 62 -19 12 -45 40 -58 64
l-23 43 -3 1180 c-1 649 -6 1182 -10 1186 -4 3 -19 9 -33 13 -24 5 -32 -1 -74
-59z M23870 8432 c0 -5 -24 -35 -54 -68 -62 -69 -131 -109 -236 -140 -73 -21
-75 -23 -78 -55 -3 -31 1 -36 40 -54 27 -12 48 -31 57 -50 27 -57 32 -244 28
-1115 -3 -968 0 -926 -69 -984 -26 -23 -38 -41 -38 -60 l0 -26 258 2 257 3 3
26 c2 20 -4 32 -26 48 -55 39 -62 76 -62 326 l0 225 28 50 c15 27 30 50 33 50
4 0 30 -57 59 -127 158 -388 198 -479 260 -603 104 -204 191 -299 339 -369
159 -75 351 -62 351 23 0 31 -14 41 -78 56 -68 16 -136 62 -185 125 -58 76
-161 293 -325 690 -222 537 -209 500 -189 538 32 59 206 292 262 350 50 51
100 83 158 101 12 4 17 16 17 40 0 29 -4 37 -22 41 -13 3 -131 4 -263 3 l-240
-3 -3 -42 c-3 -41 -2 -43 26 -43 44 0 66 -31 59 -81 -6 -48 -117 -237 -217
-371 l-65 -87 -3 788 -2 789 -23 6 c-32 8 -57 7 -57 -2z M25385 8275 c95 -270
155 -360 285 -423 107 -52 230 -52 282 0 18 18 18 22 6 35 -8 8 -50 23 -92 33
-89 23 -144 50 -236 119 -63 47 -166 149 -224 221 -16 20 -25 26 -21 15z
M11000 8125 l0 -55 1298 0 1297 1 -90 24 c-49 12 -121 37 -158 54 l-69 31
-1139 0 -1139 0 0 -55z M25815 7955 c17 -8 39 -14 50 -14 11 0 0 7 -25 15 -56
17 -64 17 -25 -1z M14086 7758 c-56 -15 -129 -90 -149 -154 -9 -27 -19 -73
-23 -102 -4 -29 -9 -51 -13 -49 -83 46 -173 62 -259 47 -101 -17 -168 -54
-247 -134 -155 -156 -236 -431 -222 -755 11 -275 88 -496 220 -638 79 -84 144
-115 251 -121 76 -4 105 2 179 33 12 5 17 3 17 -8 0 -9 16 -66 36 -129 64
-206 85 -304 85 -414 1 -213 -59 -343 -193 -414 -57 -31 -70 -34 -148 -35
-110 0 -170 26 -239 101 -60 65 -85 133 -84 225 0 117 57 197 146 206 71 7
147 -60 147 -129 0 -22 5 -28 20 -28 93 0 150 138 101 245 -40 88 -117 128
-251 129 -83 1 -102 -2 -151 -25 -108 -51 -182 -143 -214 -264 -37 -143 5
-315 106 -438 44 -54 146 -123 225 -153 91 -35 246 -44 348 -20 168 40 335
175 415 336 95 194 95 375 0 705 -80 277 -84 336 -34 507 47 157 63 238 74
362 18 203 -22 416 -109 588 -27 55 -50 110 -50 122 1 31 33 97 64 128 15 14
51 38 81 52 63 29 75 48 75 111 0 39 -5 51 -32 76 -31 28 -85 50 -118 48 -8
-1 -33 -6 -54 -11z m-340 -434 c135 -64 196 -616 114 -1038 -25 -126 -57 -198
-103 -227 -37 -23 -88 -20 -119 8 -86 77 -135 357 -125 711 9 334 59 502 162
548 38 17 31 17 71 -2z M12527 7500 c-45 -12 -120 -49 -167 -84 -92 -70 -203
-258 -248 -424 -24 -91 -26 -110 -26 -322 0 -212 2 -231 27 -325 15 -55 48
-143 73 -195 122 -247 354 -360 584 -284 149 49 263 231 263 419 0 114 -34
184 -105 221 -94 49 -220 -47 -147 -112 57 -51 78 -187 40 -269 -67 -147 -245
-151 -324 -7 -32 59 -67 187 -67 248 0 38 5 46 59 96 59 55 145 125 396 321
l138 109 -6 121 c-3 67 -13 145 -20 174 -39 139 -131 254 -234 293 -65 24
-179 34 -236 20z m135 -180 c43 -33 61 -93 66 -221 6 -145 -4 -176 -77 -252
-47 -50 -163 -152 -235 -207 -19 -15 -19 -12 -12 120 12 227 57 441 107 514
44 65 105 83 151 46z M15728 7500 c-127 -22 -216 -72 -272 -153 -61 -88 -80
-182 -55 -272 15 -54 82 -120 138 -135 112 -30 226 45 219 144 -3 40 -10 47
-63 63 -19 5 -37 21 -49 43 -17 32 -17 38 -3 72 38 92 184 111 260 34 41 -40
57 -93 57 -182 -1 -131 -27 -160 -279 -319 -278 -175 -380 -316 -381 -527 0
-260 170 -442 399 -426 89 7 150 35 225 108 l64 61 6 -44 c4 -28 16 -53 32
-68 25 -24 28 -24 197 -21 179 4 187 6 187 49 0 15 -11 27 -37 40 -86 42 -93
90 -93 680 0 505 -2 536 -50 638 -81 170 -274 253 -502 215z m229 -1020 c-3
-176 -8 -235 -21 -271 -32 -88 -111 -140 -190 -125 -100 19 -154 177 -110 327
31 105 95 182 239 284 77 55 80 56 84 34 2 -13 1 -125 -2 -249z M16834 7496
c-84 -19 -138 -49 -196 -107 -149 -149 -148 -404 3 -587 24 -30 113 -110 197
-178 167 -137 220 -196 251 -279 23 -61 28 -156 11 -217 -49 -176 -320 -185
-386 -13 -39 103 8 195 100 195 27 0 48 -6 56 -15 47 -56 72 60 27 126 -59 87
-185 119 -282 71 -43 -20 -103 -81 -126 -125 -106 -204 44 -460 302 -517 77
-17 250 -8 309 15 212 85 327 296 287 527 -27 154 -102 269 -275 418 -253 220
-312 293 -312 390 0 59 35 120 80 142 47 24 117 23 158 -2 63 -39 78 -132 26
-166 -32 -21 -30 -39 5 -75 54 -53 144 -31 197 49 32 47 39 101 19 167 -34
118 -137 184 -298 191 -57 2 -115 -2 -153 -10z M17862 7495 c-119 -27 -208
-99 -265 -215 -30 -61 -32 -71 -32 -175 0 -108 1 -113 38 -188 48 -97 114
-169 285 -309 73 -61 151 -132 172 -159 113 -144 112 -351 -3 -427 -35 -23
-51 -27 -116 -27 -90 0 -130 19 -173 80 -74 106 -27 235 84 235 19 0 44 -7 57
-17 23 -15 25 -15 37 2 33 45 0 138 -64 180 -46 30 -122 48 -170 39 -90 -16
-182 -100 -208 -192 -60 -206 84 -423 314 -471 73 -15 216 -14 279 3 131 35
240 124 296 243 28 60 32 80 35 174 5 122 -9 184 -64 289 -47 90 -100 148
-287 313 -88 77 -174 161 -191 185 -60 84 -70 152 -33 222 29 55 75 80 144 80
46 0 58 -4 89 -33 26 -24 37 -43 41 -74 5 -37 2 -45 -26 -73 -30 -30 -30 -32
-16 -61 17 -33 48 -43 117 -40 34 1 96 55 114 98 48 113 -25 260 -151 306 -68
25 -221 31 -303 12z M21660 7499 c-200 -39 -359 -246 -419 -546 -78 -389 17
-825 220 -1007 82 -74 147 -100 259 -104 79 -3 105 0 153 18 187 70 319 277
371 580 18 108 21 322 5 436 -47 338 -221 581 -449 624 -60 11 -77 11 -140 -1z
m135 -183 c50 -33 94 -168 121 -371 20 -148 14 -490 -10 -632 -22 -128 -60
-242 -94 -283 -25 -29 -36 -35 -70 -35 -47 0 -83 28 -112 85 -64 127 -106 538
-81 795 32 323 95 477 189 461 19 -3 44 -12 57 -20z M22850 7499 c-263 -51
-450 -393 -450 -825 0 -391 129 -689 346 -795 65 -32 74 -34 179 -34 104 0
114 2 177 33 161 79 279 281 323 555 19 118 19 365 0 483 -51 318 -211 538
-423 583 -60 12 -88 13 -152 0z m136 -184 c82 -54 143 -380 131 -705 -11 -305
-67 -544 -139 -594 -39 -28 -86 -20 -123 18 -139 148 -159 971 -30 1226 39 76
98 97 161 55z M14680 7490 c-19 -5 -89 -14 -155 -21 -146 -14 -165 -21 -165
-53 0 -18 9 -29 38 -43 24 -12 44 -32 57 -58 19 -39 20 -60 20 -645 0 -672 3
-636 -67 -700 -22 -21 -29 -34 -26 -56 l3 -29 257 -3 c256 -2 257 -2 263 19 6
18 -1 29 -35 58 -76 63 -75 50 -78 556 -3 494 3 587 45 673 27 56 70 92 111
92 55 0 112 -56 112 -111 0 -13 -17 -37 -40 -59 -50 -46 -54 -87 -14 -119 55
-44 159 -17 226 57 116 128 69 362 -86 433 -47 21 -145 25 -197 7 -46 -15
-100 -55 -129 -94 -14 -19 -28 -34 -32 -34 -5 0 -8 27 -8 60 0 48 -4 61 -19
70 -22 11 -32 11 -81 0z M10833 7473 c-18 -7 -17 -73 1 -73 23 0 68 -42 84
-79 14 -31 17 -116 22 -626 l5 -590 26 -56 c60 -128 161 -192 304 -192 102 0
154 22 235 99 58 55 60 56 60 30 0 -43 26 -95 52 -101 13 -3 102 -4 198 -3
l175 3 3 25 c2 19 -5 30 -28 45 -17 11 -40 40 -53 65 l-22 45 -3 695 c-1 382
-5 701 -7 708 -4 10 -51 12 -212 10 l-208 -3 -3 -35 c-3 -32 1 -38 32 -53 73
-34 71 -18 71 -617 l0 -535 -25 -43 c-51 -90 -162 -129 -225 -80 -57 45 -57
37 -62 718 -2 344 -6 631 -8 638 -3 9 -52 12 -202 11 -109 0 -204 -3 -210 -6z
M4587 7306 c-74 -27 -107 -76 -107 -158 0 -102 70 -187 219 -266 48 -26 81
-50 81 -59 0 -24 -60 -11 -235 49 -125 42 -165 52 -241 56 -114 6 -165 -8
-339 -93 -71 -35 -160 -74 -197 -87 -38 -13 -68 -26 -68 -29 0 -3 19 -11 43
-18 23 -7 113 -48 199 -92 87 -43 184 -86 215 -94 113 -29 213 -15 448 65 121
41 190 51 183 28 -3 -7 -43 -33 -91 -58 -115 -61 -160 -99 -191 -162 -29 -59
-34 -120 -12 -172 33 -79 146 -119 214 -77 30 19 44 51 22 51 -14 0 -40 55
-40 85 0 61 64 146 151 201 24 14 79 39 123 54 45 15 113 43 151 62 76 39 216
90 280 104 l40 8 -40 6 c-33 6 -26 8 40 10 l80 3 -95 13 c-134 20 -182 36
-327 108 -71 35 -139 67 -153 71 -56 16 -163 80 -194 117 -61 71 -68 180 -14
209 19 10 19 11 1 31 -19 21 -73 48 -95 48 -7 -1 -30 -7 -51 -14z M26988 7294
c-39 -20 -54 -51 -30 -59 11 -3 24 -17 30 -31 46 -99 -57 -231 -223 -284 -22
-7 -89 -39 -150 -70 -128 -67 -209 -95 -319 -110 -44 -6 -82 -12 -84 -15 -3
-3 30 -6 74 -7 l79 -1 -60 -7 c-52 -5 -56 -7 -30 -13 17 -4 68 -16 114 -27 46
-11 129 -42 185 -69 56 -28 135 -62 176 -77 41 -15 93 -39 116 -54 49 -35 112
-102 124 -136 20 -53 8 -112 -29 -141 -14 -11 -12 -16 17 -43 39 -36 93 -40
151 -10 115 58 111 227 -7 330 -25 22 -83 59 -128 81 -150 74 -92 91 93 28
229 -78 355 -95 464 -63 30 9 113 46 184 83 72 37 160 78 198 92 37 13 67 26
67 29 0 3 -37 18 -82 34 -46 17 -128 53 -183 82 -155 80 -218 97 -334 92 -82
-4 -117 -12 -246 -56 -175 -60 -235 -72 -235 -49 0 9 33 33 81 59 141 75 213
164 212 265 0 32 -7 64 -20 85 -39 66 -141 97 -205 62z M6403 6679 c-61 -11
-121 -45 -143 -82 -36 -58 -22 -144 29 -191 26 -24 85 -25 110 -2 10 9 23 16
29 16 20 0 13 42 -10 67 -19 21 -20 26 -8 34 22 15 90 1 131 -26 44 -29 117
-137 152 -225 14 -36 56 -164 92 -285 117 -385 157 -480 308 -713 77 -119 108
-153 69 -75 -87 172 -150 529 -124 698 l10 60 2 -100 c2 -87 3 -95 11 -60 5
22 26 90 45 150 36 108 36 112 29 215 -4 58 -7 137 -6 177 2 62 0 74 -18 90
-12 9 -21 23 -21 31 0 7 -4 11 -9 8 -13 -8 -55 -190 -87 -371 -14 -82 -27
-152 -30 -154 -4 -5 -8 7 -28 92 -24 99 -107 305 -156 388 -74 124 -207 238
-304 258 -17 4 -50 4 -73 0z M5310 6650 c-174 -45 -311 -142 -377 -266 -157
-295 -3 -658 303 -713 141 -26 292 43 357 164 30 54 31 202 3 255 -57 108
-175 151 -275 100 -125 -63 -132 -233 -13 -294 l47 -24 -30 -12 c-89 -34 -149
-19 -221 54 -64 66 -89 131 -88 236 1 286 340 463 680 356 150 -48 307 -157
469 -328 112 -117 152 -178 75 -112 -64 54 -232 103 -313 90 -85 -14 -187
-100 -230 -194 -30 -65 -30 -171 0 -227 28 -54 100 -119 148 -135 49 -16 130
-8 163 17 90 67 96 174 13 230 -45 31 -92 30 -130 -3 -26 -22 -31 -33 -31 -70
0 -49 -11 -55 -35 -21 -49 69 -37 155 31 223 52 52 98 68 183 62 76 -6 161
-41 271 -113 97 -62 160 -123 283 -274 159 -195 172 -218 70 -119 -110 107
-159 132 -258 132 -136 1 -245 -81 -245 -184 0 -36 6 -53 25 -74 13 -14 30
-26 37 -26 8 0 33 20 57 44 116 118 259 124 434 18 66 -40 98 -71 222 -212 79
-91 198 -219 264 -285 67 -66 121 -123 121 -128 0 -5 -36 24 -80 65 -104 94
-198 157 -337 224 -143 70 -252 98 -349 91 -81 -6 -120 -23 -157 -67 -34 -40
-42 -68 -26 -97 11 -20 11 -28 0 -45 -18 -29 -16 -104 4 -134 34 -53 118 -82
144 -50 6 8 10 43 9 84 -2 82 12 110 68 137 48 23 130 16 233 -20 153 -52 261
-117 666 -400 110 -77 248 -168 308 -201 200 -115 445 -202 662 -235 l90 -14
-170 -6 c-190 -6 -240 -19 -365 -95 -104 -64 -158 -155 -116 -197 20 -19 19
-19 157 56 59 31 132 66 164 77 75 26 230 47 440 60 205 13 322 26 395 45 50
13 198 62 243 80 11 5 -1 -18 -31 -58 -60 -78 -76 -123 -75 -199 2 -107 69
-193 161 -205 39 -5 82 9 82 28 0 5 -17 26 -39 47 -46 44 -57 90 -41 167 22
106 115 218 273 327 183 128 423 355 542 513 98 130 151 215 217 348 l49 97
1103 0 1104 0 27 -36 27 -35 -55 -132 c-149 -355 -169 -649 -72 -1107 4 -18 0
-15 -11 10 -16 34 -39 137 -84 375 -74 387 -273 706 -517 827 -77 38 -93 42
-176 46 -124 5 -189 -18 -268 -97 -80 -79 -100 -161 -59 -240 44 -88 159 -111
224 -45 22 21 20 63 -4 99 -47 71 -8 125 90 125 131 0 303 -127 424 -313 81
-123 113 -199 206 -477 115 -348 158 -428 353 -668 32 -40 57 -75 54 -78 -5
-5 -94 96 -317 362 -298 355 -485 533 -740 704 -360 242 -822 355 -1210 295
-213 -32 -312 -80 -468 -225 -65 -59 -155 -139 -202 -176 -72 -59 -91 -80
-121 -141 -93 -181 -67 -376 66 -509 159 -160 420 -180 568 -44 116 105 141
280 56 383 -32 39 -138 97 -176 97 -37 0 -31 -56 17 -146 58 -109 52 -175 -23
-241 -85 -75 -214 -67 -311 18 -61 53 -93 110 -104 184 -29 180 69 350 292
504 206 142 452 203 726 180 114 -10 264 -36 350 -62 l45 -13 -103 -8 c-166
-11 -332 -62 -372 -114 -24 -30 -26 -75 -4 -92 18 -16 41 -9 244 74 299 122
373 120 606 -19 233 -139 521 -410 674 -635 18 -26 6 -19 -47 31 -93 87 -351
260 -478 320 -112 53 -249 98 -375 125 -116 25 -340 25 -429 0 -145 -39 -231
-106 -250 -194 -18 -88 31 -162 110 -162 52 0 73 11 139 78 69 69 151 108 259
124 284 42 723 -143 1146 -481 135 -107 261 -224 298 -276 14 -20 -1 -10 -43
28 -208 185 -494 335 -732 383 -150 30 -318 7 -433 -60 -48 -29 -116 -99 -141
-147 -22 -43 -30 -169 -15 -227 24 -88 111 -151 207 -152 59 0 105 26 141 79
61 91 -16 228 -124 219 -35 -3 -40 -1 -32 13 15 28 71 71 129 98 50 24 65 26
180 25 105 -1 139 -5 215 -28 231 -69 409 -183 808 -517 299 -251 635 -430
966 -514 453 -115 876 -75 1229 115 l74 40 -36 -49 c-48 -65 -66 -120 -66
-200 1 -106 49 -185 142 -232 124 -63 296 -11 349 106 23 50 24 83 3 135 -30
74 -117 106 -179 66 -31 -20 -31 -27 0 -64 31 -37 34 -87 6 -102 -50 -26 -126
3 -158 62 -11 22 -17 55 -18 98 0 111 38 176 204 344 250 255 352 428 418 706
34 145 42 378 19 503 -51 268 -180 525 -358 713 l-70 74 63 -33 c55 -28 71
-32 145 -32 68 0 87 4 111 21 80 60 95 151 34 206 -52 47 -92 30 -105 -45 -10
-52 -43 -72 -121 -71 -76 1 -112 17 -254 111 -227 151 -441 243 -567 243 l-64
0 0 -53 0 -53 73 -28 c186 -73 356 -240 357 -353 l0 -31 -30 15 c-87 43 -163
-55 -114 -148 18 -35 82 -68 132 -69 114 -1 194 144 148 270 -7 20 -27 57 -45
83 -17 26 -27 47 -21 47 20 0 195 -182 240 -249 59 -88 109 -200 126 -284 20
-93 19 -250 -1 -328 -57 -220 -221 -325 -321 -206 -23 27 -25 37 -20 81 11 90
-39 140 -114 117 -140 -42 -158 -239 -32 -353 58 -52 117 -72 202 -66 175 13
330 159 385 364 16 58 22 232 11 297 l-6 32 16 -35 c62 -134 72 -443 20 -595
-85 -248 -234 -396 -443 -440 -37 -8 -88 -15 -113 -15 -69 0 -160 48 -160 85
0 1 11 6 25 9 67 17 73 116 11 173 -29 27 -44 33 -78 33 -128 0 -191 -127
-142 -289 34 -115 197 -220 344 -221 57 0 148 27 240 71 71 35 101 58 182 139
99 99 107 95 25 -16 -102 -139 -232 -256 -350 -315 -32 -17 -101 -42 -155 -57
-89 -25 -112 -27 -267 -26 -155 0 -178 3 -258 27 -232 71 -414 221 -512 420
-54 112 -68 182 -62 317 5 132 27 207 82 283 96 130 288 189 420 128 30 -14
44 -25 35 -28 -88 -27 -140 -84 -140 -154 1 -150 202 -237 316 -137 84 74 104
196 49 296 -39 72 -121 145 -193 172 -72 28 -209 37 -283 20 -143 -33 -287
-145 -356 -276 -81 -152 -96 -382 -36 -556 46 -132 106 -230 203 -328 152
-155 335 -254 534 -289 96 -17 261 -13 351 8 44 11 82 18 84 15 6 -6 -96 -49
-186 -78 -340 -107 -632 -96 -878 32 -99 52 -241 194 -283 282 -68 147 -67
279 4 392 33 52 28 72 -16 76 -73 6 -150 -81 -171 -193 -14 -76 -4 -164 26
-240 14 -32 23 -61 21 -63 -7 -7 -55 82 -101 190 -74 172 -98 278 -99 438 -1
117 2 144 22 201 55 159 169 259 268 235 l27 -7 -36 -30 c-61 -51 -48 -112 30
-140 90 -31 194 65 195 180 0 114 -84 179 -217 168 -79 -6 -151 -43 -223 -116
-205 -208 -241 -519 -102 -880 45 -115 79 -162 229 -315 135 -138 147 -155 61
-88 -224 176 -402 397 -520 644 -107 224 -133 447 -69 584 12 25 32 52 44 60
21 13 27 13 60 0 21 -9 53 -16 71 -16 29 0 37 5 50 34 58 120 -94 230 -231
167 -49 -22 -121 -98 -145 -154 -50 -114 -52 -302 -6 -462 54 -183 215 -474
341 -612 31 -35 53 -63 48 -63 -14 0 -132 126 -252 267 -103 123 -125 153
-102 138 6 -3 -5 27 -24 67 -42 92 -107 296 -134 420 -43 198 -52 501 -21 681
l11 64 33 -33 c33 -33 103 -61 130 -51 8 3 22 17 31 31 15 23 15 31 -14 133
-39 137 -52 251 -50 422 l1 136 -1204 3 -1204 2 -36 -77 c-224 -478 -644 -854
-1103 -987 -286 -83 -614 -72 -925 30 -133 44 -310 129 -414 199 -284 189
-524 513 -603 812 -36 137 -38 338 -5 462 27 98 48 141 108 223 24 33 44 66
44 73 0 23 -43 43 -70 33 -71 -26 -186 -168 -229 -282 -58 -155 -44 -429 33
-641 13 -35 19 -62 15 -59 -18 11 -7 -9 53 -99 33 -51 51 -83 38 -72 -26 23
-118 145 -334 444 -332 460 -712 893 -921 1049 -88 66 -267 155 -365 182 -98
26 -246 26 -350 0z M1380 6614 c-209 -55 -375 -235 -426 -460 -33 -152 -3
-337 78 -471 130 -216 355 -349 973 -578 187 -69 283 -115 398 -192 62 -41 99
-84 85 -99 -3 -3 -50 20 -104 50 -202 113 -330 151 -484 144 -118 -6 -206 -31
-405 -117 -183 -80 -310 -97 -426 -55 -23 7 -46 14 -52 14 -18 0 0 -87 32
-156 98 -209 283 -368 476 -409 150 -32 240 -13 448 90 198 98 308 128 454
123 59 -2 107 -8 114 -15 19 -19 -33 -63 -73 -63 -60 0 -212 -37 -280 -68
-116 -53 -239 -147 -310 -236 l-40 -51 33 -28 c57 -47 137 -80 211 -85 110 -8
201 25 341 123 77 54 151 85 201 85 40 0 41 5 52 156 11 164 -21 311 -91 426
-19 31 -35 61 -35 67 0 16 55 41 93 41 52 0 183 -37 238 -66 63 -35 123 -86
161 -138 l30 -41 -7 35 c-12 62 -57 193 -88 255 -71 142 -196 282 -370 411
-179 134 -286 184 -654 305 -292 96 -376 134 -454 207 -97 89 -135 201 -85
250 22 22 63 7 82 -31 41 -80 98 -111 205 -111 68 -1 84 3 145 34 119 61 181
174 172 309 -12 164 -136 297 -325 346 -72 19 -240 18 -313 -1z M30033 6616
c-142 -35 -270 -138 -313 -253 -29 -77 -25 -186 8 -255 68 -139 239 -217 384
-174 58 16 95 49 130 115 32 58 91 26 90 -49 -1 -55 -37 -114 -112 -183 -80
-75 -154 -108 -463 -212 -142 -47 -294 -101 -336 -119 -235 -99 -503 -316
-627 -506 -53 -81 -105 -207 -128 -308 l-14 -63 63 69 c95 102 242 172 362
172 42 0 93 -17 93 -31 0 -4 -18 -45 -40 -91 -62 -130 -75 -191 -74 -358 0
-192 1 -196 65 -209 61 -13 135 -49 198 -95 53 -39 148 -88 205 -106 97 -31
262 8 330 79 35 37 31 45 -72 142 -141 132 -294 207 -472 231 -66 8 -100 18
-113 31 -43 43 12 61 163 54 132 -6 228 -35 401 -122 160 -81 220 -98 334 -99
205 -2 381 105 520 315 67 99 113 220 96 248 -7 11 -17 10 -57 -5 -62 -24
-196 -24 -275 -1 -30 9 -100 36 -155 61 -55 24 -142 58 -194 76 -219 75 -432
44 -683 -100 -92 -53 -107 -58 -107 -37 0 22 60 73 146 125 84 50 151 79 539
232 400 158 581 263 700 408 110 132 156 257 156 420 0 181 -57 320 -180 443
-84 84 -161 128 -272 154 -77 18 -224 18 -296 1z M24982 6590 c-63 -29 -54
-47 43 -88 119 -49 235 -133 321 -229 40 -45 76 -95 80 -110 22 -99 28 -110
90 -175 57 -58 114 -151 114 -185 0 -6 5 -15 11 -19 9 -5 11 23 7 107 -9 203
-88 378 -238 530 -71 72 -101 94 -182 134 -117 58 -179 67 -246 35z M14875
5351 c-27 -4 -43 -9 -35 -10 8 0 67 -24 130 -51 l115 -50 760 0 760 0 55 26
c30 15 91 39 135 55 l80 29 -826 0 c-454 0 -893 2 -975 4 -82 2 -171 1 -199
-3z M16943 5340 c-152 -40 -306 -113 -502 -239 -135 -87 -166 -101 -227 -101
-63 0 -109 24 -124 63 -6 18 -16 42 -21 55 -18 45 -93 15 -119 -48 -28 -67 33
-157 122 -180 56 -16 120 -5 193 32 l59 30 -70 -74 c-118 -124 -208 -273 -277
-458 -128 -342 -104 -722 65 -1053 67 -130 131 -213 303 -387 154 -156 189
-209 206 -309 13 -71 0 -129 -40 -173 -22 -25 -37 -32 -81 -36 -44 -4 -56 -2
-67 13 -19 26 -16 62 7 100 l20 32 -21 19 c-24 22 -77 24 -114 4 -59 -32 -82
-137 -46 -208 25 -48 44 -65 111 -96 40 -19 72 -26 116 -26 118 0 203 49 250
146 23 47 26 63 22 118 -6 72 -41 156 -90 219 l-33 41 45 -27 c127 -78 329
-146 511 -173 87 -12 159 -15 309 -12 225 6 352 28 575 103 310 103 513 220
833 480 365 295 493 383 664 457 297 129 577 121 669 -19 25 -38 24 -40 -16
-35 -47 6 -88 -13 -126 -56 -28 -32 -31 -40 -27 -89 7 -87 75 -143 173 -143
121 0 203 84 213 220 8 121 -39 213 -147 287 -170 117 -408 118 -696 2 -160
-64 -378 -198 -492 -302 -92 -85 -58 -34 45 64 241 233 438 359 727 464 393
142 736 201 942 162 107 -21 181 -58 263 -134 76 -70 109 -87 154 -77 106 22
144 140 74 229 -36 46 -132 101 -220 126 -115 33 -347 33 -523 1 -343 -64
-694 -178 -895 -293 -88 -49 -216 -134 -225 -149 -3 -5 -11 -10 -16 -10 -17 0
81 120 176 216 86 86 210 180 278 209 30 13 24 14 -78 15 -135 0 -136 -1 -288
-148 -156 -152 -285 -295 -537 -595 -120 -144 -267 -311 -325 -372 -109 -113
-105 -101 26 70 127 166 239 390 280 560 26 106 30 263 10 345 -29 120 -99
204 -194 236 -98 32 -181 1 -212 -80 -32 -84 18 -156 88 -127 61 25 81 24 115
-4 67 -56 83 -232 37 -411 -50 -196 -238 -518 -404 -690 -56 -59 -242 -214
-256 -214 -3 0 48 52 114 116 117 113 122 119 187 246 103 204 132 304 141
498 13 270 -53 437 -250 630 -114 112 -143 129 -217 129 -105 1 -198 -68 -207
-153 -5 -40 -2 -48 24 -75 32 -32 73 -47 99 -37 19 7 15 60 -7 114 -13 32 -13
35 10 53 14 11 39 19 62 19 102 0 187 -80 278 -261 78 -157 94 -221 94 -369 0
-140 -20 -251 -74 -407 -39 -113 -126 -309 -134 -301 -3 2 7 33 22 68 48 119
40 271 -19 345 -39 50 -151 85 -164 50 -3 -7 5 -29 19 -47 39 -54 52 -98 51
-178 -1 -206 -144 -406 -369 -516 -153 -74 -219 -88 -440 -88 -174 0 -199 2
-297 26 -119 30 -254 80 -284 104 -19 15 -19 16 1 9 143 -46 355 -54 493 -17
275 74 506 264 621 514 57 121 75 203 75 333 0 184 -49 317 -161 436 -78 83
-168 131 -287 155 -137 28 -285 -10 -380 -97 -118 -107 -141 -256 -59 -367 70
-94 228 -95 306 -3 33 40 41 68 35 132 -6 64 -51 114 -112 127 l-41 8 50 24
c41 21 65 25 135 25 109 0 186 -33 259 -109 87 -93 121 -189 121 -344 0 -161
-50 -298 -159 -435 -212 -266 -562 -380 -911 -296 -112 27 -269 104 -351 172
-80 67 -215 218 -248 278 -23 43 -22 42 38 -23 78 -85 180 -153 296 -197 80
-31 101 -35 185 -35 82 -1 103 3 152 26 120 56 186 150 196 278 5 80 -12 127
-62 165 -90 69 -216 18 -216 -87 0 -41 34 -88 65 -88 41 0 -11 -52 -74 -75
-55 -19 -149 -19 -221 0 -207 55 -353 210 -420 445 -44 156 -36 413 18 570
l19 55 -5 -111 c-6 -141 9 -226 58 -332 50 -106 127 -189 213 -228 52 -24 75
-29 142 -29 70 0 87 4 134 30 123 68 169 195 114 313 -36 76 -139 107 -189 57
-23 -23 -25 -31 -19 -76 9 -63 -6 -102 -50 -129 -39 -24 -73 -25 -123 -4 -140
58 -212 288 -168 534 31 171 113 318 257 463 90 89 128 113 89 55 -72 -109
-77 -222 -14 -298 49 -58 118 -75 187 -46 52 22 72 51 72 108 0 42 -4 53 -28
74 -30 25 -75 31 -108 14 -48 -26 -4 118 58 186 94 104 274 194 416 210 38 4
79 16 106 32 24 14 80 38 125 53 l81 28 -225 0 c-188 0 -237 -3 -297 -19z
M2589 4815 c-4 -3 13 -45 37 -93 24 -48 51 -114 59 -147 20 -79 20 -307 -1
-460 -19 -141 -14 -325 11 -425 44 -174 168 -342 303 -413 79 -42 173 -67 250
-67 l52 0 0 -47 c0 -83 28 -185 76 -282 81 -165 231 -294 404 -349 123 -40
316 -52 490 -32 292 33 312 34 405 18 110 -19 184 -47 263 -98 52 -33 62 -37
73 -24 36 43 13 208 -46 332 -46 97 -137 192 -222 233 -126 60 -296 76 -416
39 -138 -43 -216 -44 -231 -5 -7 18 -4 20 74 40 151 39 240 115 315 270 49
102 65 166 65 265 0 83 -5 99 -38 111 -43 16 -118 -14 -222 -91 -188 -138
-282 -177 -403 -167 -120 10 -235 85 -286 186 -33 64 -54 168 -47 235 8 78 36
137 137 287 84 123 119 201 119 265 0 50 -28 64 -125 64 -93 -1 -179 -26 -269
-80 -70 -42 -166 -132 -190 -178 -23 -45 -56 -176 -56 -224 0 -39 -19 -52 -37
-25 -4 6 -8 109 -8 227 0 199 -2 220 -24 280 -63 177 -177 285 -352 333 -65
19 -152 31 -160 22z M29003 4805 c-144 -31 -282 -135 -341 -255 -57 -117 -66
-172 -59 -377 5 -128 3 -190 -5 -208 -19 -42 -35 -30 -43 33 -20 173 -66 252
-201 348 -102 73 -186 107 -275 112 -152 9 -182 -13 -158 -113 16 -69 45 -124
124 -233 93 -130 119 -189 123 -283 16 -322 -287 -509 -568 -352 -25 14 -88
58 -140 97 -112 84 -172 116 -216 116 -61 0 -81 -46 -69 -159 13 -130 77 -282
152 -362 64 -68 127 -106 218 -129 97 -25 109 -34 75 -62 -21 -17 -33 -19 -80
-13 -30 4 -89 18 -130 31 -52 16 -98 24 -150 24 -279 0 -478 -149 -544 -406
-19 -75 -20 -182 -2 -207 12 -16 19 -14 97 27 170 90 313 112 534 82 370 -49
592 -22 766 92 179 117 292 305 307 512 l7 85 75 6 c158 13 266 64 369 175
128 137 185 301 185 534 0 74 -6 176 -14 225 -8 50 -14 153 -14 230 0 163 13
228 74 352 22 44 40 84 40 87 0 10 -71 5 -137 -9z M1715 3763 c-88 -14 -207
-52 -355 -113 -261 -109 -330 -112 -498 -24 -46 24 -90 44 -98 44 -38 0 -28
-133 17 -230 84 -181 219 -270 408 -270 95 0 192 24 357 90 181 72 268 93 395
94 77 1 110 -3 123 -13 9 -8 13 -18 8 -23 -4 -4 -55 -17 -113 -28 -137 -26
-234 -62 -322 -120 -96 -64 -139 -111 -241 -268 -135 -206 -237 -296 -418
-372 -43 -18 -78 -36 -78 -41 0 -14 84 -80 145 -114 109 -60 155 -70 310 -70
132 1 146 3 235 33 176 61 324 165 543 384 136 136 167 162 167 140 0 -13
-119 -204 -162 -260 -75 -96 -210 -215 -339 -297 -242 -153 -343 -243 -444
-398 -123 -190 -206 -425 -230 -654 -6 -58 -5 -64 19 -88 22 -22 33 -25 99
-25 209 0 473 90 687 233 103 69 243 213 386 397 141 180 231 269 334 329 88
50 93 52 98 28 3 -14 -39 -60 -147 -163 -227 -219 -303 -330 -353 -518 -31
-117 -31 -309 1 -422 25 -90 80 -197 104 -202 11 -2 29 25 61 93 85 180 174
279 369 414 59 40 123 92 143 114 48 53 113 193 159 342 48 154 56 175 66 175
25 0 2 -143 -62 -385 -27 -103 -31 -138 -32 -245 -1 -203 48 -346 153 -451
153 -154 381 -182 553 -68 167 110 217 367 98 503 -44 50 -138 70 -204 42 -66
-27 -126 -115 -127 -182 0 -18 -8 -42 -19 -55 -18 -22 -19 -22 -44 -6 -15 9
-32 27 -38 39 -19 35 -3 150 41 308 73 255 91 341 97 456 13 245 -61 485 -201
656 -66 79 -134 131 -229 171 -68 29 -80 31 -199 32 l-127 0 6 116 c7 138 -10
228 -63 340 -117 243 -345 424 -635 505 -76 20 -121 26 -234 29 -77 2 -153 1
-170 -2z M29697 3755 c-354 -67 -638 -286 -750 -578 -31 -80 -32 -87 -32 -243
l0 -161 -96 5 c-164 8 -284 -36 -402 -147 -166 -157 -257 -384 -257 -647 0
-140 19 -253 82 -473 34 -122 51 -202 55 -262 6 -84 5 -86 -24 -119 -38 -42
-59 -36 -68 22 -9 55 -40 126 -68 157 -29 31 -94 61 -135 61 -18 0 -49 -7 -70
-15 -214 -90 -167 -446 75 -568 103 -53 234 -59 347 -17 132 50 232 160 283
313 25 75 27 95 27 237 0 143 -3 164 -33 274 -62 228 -85 372 -59 364 14 -5
24 -30 61 -153 33 -109 92 -250 129 -308 37 -58 92 -107 211 -188 166 -113
273 -237 348 -403 20 -46 40 -76 49 -76 22 0 64 73 97 165 26 75 27 90 28 245
0 145 -3 174 -23 240 -52 166 -156 308 -372 511 -109 102 -135 138 -112 153 4
2 44 -16 87 -41 101 -58 236 -192 365 -363 121 -159 213 -256 320 -336 214
-162 527 -273 738 -262 109 5 117 25 87 204 -35 202 -117 411 -226 573 -89
134 -166 204 -388 353 -226 152 -330 248 -430 397 -69 104 -115 190 -107 198
3 3 79 -66 168 -154 237 -232 374 -327 558 -385 65 -20 95 -23 220 -22 133 0
151 3 215 28 75 29 178 91 214 130 l22 24 -125 61 c-114 55 -135 70 -214 149
-60 59 -116 129 -174 217 -101 155 -180 233 -294 292 -85 44 -151 66 -247 83
-77 14 -127 29 -127 40 0 21 64 33 153 27 113 -7 221 -34 386 -97 156 -60 269
-90 335 -90 67 0 165 24 225 54 102 52 216 220 228 338 7 66 -2 108 -21 108
-8 0 -45 -18 -83 -40 -38 -22 -98 -47 -133 -56 -100 -26 -166 -11 -400 86
-178 74 -288 100 -440 105 -85 3 -150 0 -203 -10z M15836 3540 c-14 -82 -77
-264 -122 -350 -24 -47 -76 -128 -114 -180 -85 -115 -104 -161 -98 -232 5 -44
11 -57 42 -85 67 -62 119 -41 213 86 2 2 5 2 8 -1 10 -10 -18 -127 -63 -258
-74 -219 -66 -292 65 -562 42 -87 79 -158 82 -157 9 1 138 267 162 334 17 46
22 85 23 165 0 97 -3 115 -42 240 -23 74 -45 160 -48 190 -5 55 -5 55 13 30
32 -46 82 -88 112 -95 57 -12 116 37 127 106 10 59 -14 115 -101 243 -125 184
-190 325 -238 516 l-14 55 -7 -45z M16984 3298 c-53 -84 -148 -147 -226 -150
-24 -1 13 -5 82 -9 69 -4 180 -5 248 -2 113 6 125 8 138 28 17 26 6 65 -29
104 -29 32 -114 71 -154 71 -28 0 -37 -7 -59 -42z M14583 3306 c-22 -7 -55
-23 -71 -34 -39 -28 -67 -87 -55 -115 8 -18 19 -20 114 -22 57 -2 165 -5 239
-9 122 -6 131 -5 94 7 -71 24 -168 101 -201 162 -13 22 -70 27 -120 11z M5607
2545 c-82 -22 -155 -66 -212 -126 -63 -66 -101 -140 -116 -227 -27 -155 68
-343 204 -403 111 -48 249 -20 306 62 14 21 30 38 34 39 4 0 15 -16 23 -36 12
-29 13 -46 5 -85 -68 -316 -512 -474 -884 -314 -43 18 -104 48 -134 67 -73 43
-218 185 -273 267 -61 92 -125 233 -154 339 -28 105 -51 266 -44 313 l5 31
-81 -7 c-45 -3 -114 -8 -155 -10 -57 -3 -77 -8 -84 -21 -15 -26 -1 -347 18
-434 72 -328 256 -639 487 -824 155 -124 371 -232 566 -283 75 -19 132 -26
252 -30 209 -7 336 14 594 101 217 73 308 91 404 81 137 -15 229 -71 278 -171
74 -152 -8 -312 -154 -301 -70 5 -112 43 -119 109 -4 37 -1 49 21 75 31 36 31
37 10 57 -10 11 -34 16 -68 16 -181 0 -226 -250 -69 -379 64 -53 134 -73 238
-69 76 2 100 8 157 35 84 40 141 97 181 181 30 62 32 75 32 172 -1 86 -5 116
-24 163 -47 120 -166 226 -298 267 -78 24 -200 26 -288 5 -78 -19 -84 -18 -55
2 13 9 74 62 134 116 137 123 193 168 277 223 264 172 611 192 827 48 155
-103 245 -265 245 -439 0 -184 -111 -326 -266 -342 -145 -15 -269 94 -224 198
l15 34 1 -34 c1 -45 34 -96 71 -111 40 -17 120 -8 153 16 36 26 67 91 67 140
0 64 -43 139 -98 172 -92 53 -229 28 -303 -56 -56 -64 -72 -113 -67 -211 5
-105 26 -149 98 -214 75 -68 142 -91 266 -91 96 -1 103 1 175 36 118 58 203
155 251 283 18 51 22 81 22 195 0 119 -2 142 -23 195 -63 158 -188 292 -344
369 -231 113 -437 114 -712 2 -85 -35 -2 15 148 89 161 79 292 125 432 151
113 21 347 15 445 -11 140 -37 312 -138 374 -220 75 -98 97 -215 55 -297 -18
-36 -19 -42 -6 -55 38 -38 156 48 178 129 14 53 5 121 -21 165 -10 18 -18 33
-15 33 13 0 138 -110 176 -156 92 -110 124 -211 117 -370 -5 -119 -35 -192
-107 -264 -72 -71 -129 -95 -231 -95 -75 0 -91 3 -132 27 -61 37 -88 81 -88
146 0 62 12 72 39 33 65 -90 191 -42 191 74 0 104 -105 165 -223 131 -98 -28
-152 -109 -152 -226 1 -98 33 -168 111 -239 183 -168 520 -95 663 144 73 121
101 305 66 438 -23 90 -79 190 -147 263 -75 80 -52 71 51 -19 177 -157 292
-325 345 -510 66 -226 33 -353 -95 -365 -51 -5 -51 -5 -45 -35 20 -99 129
-140 226 -86 67 37 100 107 100 214 0 71 -17 167 -45 250 l-7 20 17 -20 c9
-11 50 -88 91 -171 121 -247 204 -359 322 -437 89 -59 154 -82 227 -82 58 1
135 27 135 46 0 4 -15 15 -34 24 -65 31 -119 89 -275 299 -87 116 -187 240
-222 276 -66 67 -192 172 -381 318 -60 46 -108 86 -108 88 0 14 200 -131 369
-266 493 -394 757 -545 1045 -595 110 -19 181 -19 271 0 198 42 333 181 352
361 23 220 -217 362 -365 215 -66 -66 -64 -181 4 -241 32 -27 47 -34 97 -42
31 -5 -32 -81 -90 -109 -44 -22 -60 -24 -183 -23 -117 1 -147 4 -225 28 -216
66 -359 154 -815 505 -692 533 -925 682 -1220 778 -580 189 -1031 135 -1520
-185 -142 -93 -293 -218 -488 -406 -175 -169 -240 -217 -357 -265 -244 -102
-499 -113 -716 -32 -30 12 -64 28 -75 36 -17 13 -15 13 16 1 109 -44 204 -60
350 -60 127 0 157 3 243 27 182 50 316 126 439 251 175 176 245 438 183 681
-9 33 -33 98 -55 144 -70 146 -214 266 -365 306 -71 18 -172 18 -238 0z
M25905 2550 c-115 -24 -195 -71 -289 -170 -147 -156 -209 -393 -160 -613 20
-90 89 -234 148 -309 144 -181 413 -309 681 -325 118 -7 211 6 338 47 96 30
95 16 -2 -21 -110 -41 -182 -53 -311 -52 -159 1 -313 38 -466 112 -95 47 -113
61 -280 220 -443 419 -689 576 -1059 671 -404 104 -896 19 -1330 -229 -223
-128 -492 -318 -871 -617 -326 -257 -475 -358 -644 -438 -133 -62 -224 -86
-355 -93 -150 -8 -211 10 -277 78 -27 27 -48 52 -48 56 0 5 17 8 38 8 130 2
180 189 76 287 -38 35 -74 48 -132 48 -63 -1 -120 -28 -164 -79 -71 -84 -76
-200 -14 -327 117 -235 397 -304 751 -184 238 80 433 205 885 565 163 130 277
215 335 250 50 31 11 -3 -180 -156 -244 -195 -334 -287 -507 -519 -148 -199
-219 -277 -282 -307 -20 -9 -36 -20 -36 -24 0 -17 98 -44 152 -43 72 1 134 24
220 81 110 72 174 158 313 423 103 197 123 223 89 115 -61 -191 -31 -340 79
-396 101 -52 217 1 217 99 0 29 -1 30 -37 26 -47 -6 -95 21 -120 68 -12 24
-17 54 -15 113 4 218 118 434 348 662 119 118 175 156 91 62 -72 -79 -142
-217 -163 -319 -27 -131 2 -285 76 -400 43 -67 138 -153 202 -183 208 -98 456
-31 544 148 34 72 38 178 8 245 -58 127 -218 167 -319 79 -56 -49 -59 -119 -9
-178 46 -55 127 -49 168 14 24 36 36 23 36 -39 0 -77 -45 -132 -134 -162 -139
-47 -312 31 -385 175 -100 195 -54 417 123 595 44 46 91 88 103 94 l22 12 -19
-42 c-38 -84 -21 -166 48 -238 52 -53 95 -71 118 -49 12 12 11 21 -8 59 -91
182 100 424 402 510 56 16 114 23 225 27 253 9 412 -30 694 -168 101 -49 182
-92 179 -94 -2 -2 -46 12 -98 31 -231 87 -432 83 -638 -12 -252 -116 -396
-325 -396 -574 1 -249 142 -448 359 -506 183 -49 398 51 451 209 22 66 15 176
-14 233 -80 156 -277 202 -388 90 -63 -62 -79 -137 -45 -212 57 -126 231 -131
271 -8 6 19 9 44 5 56 -4 18 -2 16 11 -6 22 -40 14 -109 -17 -143 -87 -93
-248 -94 -352 -3 -128 113 -152 317 -60 508 41 84 151 190 243 235 104 51 177
68 296 68 240 1 448 -93 693 -313 57 -51 128 -113 157 -137 30 -25 53 -46 51
-47 -2 -2 -27 3 -57 11 -30 8 -94 15 -141 15 -140 0 -245 -41 -346 -134 -174
-161 -189 -411 -35 -577 178 -193 475 -174 578 37 48 97 31 206 -39 256 -44
31 -135 37 -159 11 -17 -18 -17 -21 7 -53 31 -42 32 -87 2 -131 -45 -67 -122
-79 -198 -30 -59 37 -83 86 -83 166 1 150 128 265 311 282 95 9 198 -12 423
-87 240 -80 345 -100 525 -100 212 0 372 38 571 135 493 240 809 760 803 1322
-2 145 6 137 -136 144 -67 4 -138 10 -157 13 l-36 7 6 -44 c9 -61 -21 -251
-56 -356 -89 -272 -275 -496 -505 -606 -382 -184 -826 -55 -920 268 -17 58
-15 106 5 137 8 12 15 9 40 -22 45 -55 128 -92 206 -92 53 0 75 6 131 35 125
63 189 186 181 349 -3 74 -9 98 -37 155 -91 183 -303 286 -506 245z M10841
628 c-30 -21 -72 -44 -93 -50 -21 -6 -38 -14 -38 -18 0 -11 215 -105 310 -134
47 -15 134 -37 195 -49 l110 -21 4470 -4 c3150 -2 4504 0 4584 8 195 18 383
68 549 145 50 24 92 46 92 49 0 2 -25 16 -55 30 -30 13 -71 37 -91 52 -29 23
-39 26 -52 16 -141 -100 -262 -136 -522 -152 -257 -17 -8901 -8 -8998 9 -174
29 -302 74 -372 130 l-35 27 -54 -38z"/>
</g>
</svg>
