<svg xmlns="http://www.w3.org/2000/svg" viewBox="0 0 934 1128">
  <!-- Pure #000/#fff so a CSS invert() flips the plaque exactly (no tint) -->
  <rect width="934" height="1128" fill="#000000"/>
  <g transform="translate(0.000000,1128.000000) scale(0.100000,-0.100000)" fill="#ffffff" stroke="none">
<path d="M3422 11132 c-138 -299 -154 -586 -51 -905 60 -187 196 -427 339
-602 92 -111 292 -301 460 -436 85 -68 214 -181 286 -251 l130 -127 125 122
c68 67 216 199 329 293 369 308 560 533 714 842 174 347 182 743 22 1061 -22
42 -41 70 -46 65 -5 -5 -32 -65 -60 -134 -28 -69 -96 -212 -152 -318 -151
-291 -183 -382 -219 -601 -20 -124 -39 -164 -81 -169 -15 -2 -31 5 -44 19 -22
24 -24 70 -11 297 l8 142 -113 0 c-62 0 -118 -4 -124 -8 -7 -4 -14 -78 -19
-207 -4 -110 -12 -216 -19 -235 -10 -32 -15 -35 -53 -38 -36 -3 -44 1 -60 24
-16 24 -18 57 -22 246 l-3 218 -159 0 c-93 0 -160 -4 -164 -10 -3 -5 -8 -101
-11 -212 -7 -238 -14 -268 -67 -268 -68 0 -74 22 -85 310 l-7 175 -125 0 -125
0 1 -45 c0 -25 4 -115 8 -201 10 -171 6 -203 -24 -219 -55 -29 -93 31 -115
182 -20 130 -47 248 -75 318 -12 30 -73 162 -136 292 -64 131 -134 284 -158
340 -23 56 -47 103 -53 105 -5 2 -24 -27 -41 -65z M807 11039 c-279 -30 -470
-203 -579 -523 -52 -154 -70 -270 -71 -456 -1 -236 30 -385 109 -520 176 -301
603 -415 1079 -288 107 29 204 69 430 178 105 51 228 105 275 120 128 43 290
64 440 56 229 -11 389 -46 723 -157 136 -46 213 -67 219 -61 7 7 -15 55 -63
139 -163 288 -234 455 -294 688 -54 209 -94 526 -95 743 0 61 -3 82 -13 82
-20 0 -180 -112 -277 -193 -47 -40 -154 -137 -238 -217 -365 -346 -524 -484
-662 -577 -75 -51 -229 -129 -339 -173 -313 -124 -556 -126 -676 -5 -61 61
-79 121 -73 249 8 155 54 256 117 256 44 0 55 -23 62 -127 5 -71 11 -101 26
-121 67 -92 273 -94 403 -4 177 123 233 410 122 632 -93 188 -362 308 -625
279z M6217 11003 c-4 -3 -7 -62 -7 -129 0 -254 -61 -589 -157 -854 -53 -148
-166 -382 -258 -534 -36 -60 -64 -117 -63 -125 5 -22 26 -18 193 35 212 67
466 131 600 150 73 11 180 17 275 17 247 0 372 -35 680 -188 211 -105 452
-182 646 -205 362 -44 695 106 822 370 66 137 93 257 99 445 6 190 -10 318
-62 483 -35 110 -101 234 -171 318 -70 86 -204 160 -345 189 -90 19 -266 19
-346 0 -249 -59 -412 -255 -413 -495 0 -188 79 -339 214 -405 97 -47 248 -54
327 -14 45 23 59 54 59 137 0 90 22 136 68 140 73 7 114 -84 116 -253 1 -101
-1 -114 -26 -161 -31 -60 -73 -98 -142 -130 -169 -79 -515 -9 -827 167 -155
87 -258 171 -574 464 -356 330 -468 427 -612 528 -86 61 -86 61 -96 50z M140
8023 c0 -38 3 -105 6 -149 l7 -81 68 -7 c93 -8 220 -50 271 -89 103 -78 144
-187 160 -422 12 -187 3 -1083 -12 -1160 -26 -131 -112 -245 -251 -332 -116
-73 -114 -62 -15 -122 155 -94 226 -182 264 -328 15 -61 17 -131 16 -708 -1
-705 -3 -743 -62 -869 -63 -135 -170 -196 -375 -215 l-72 -6 0 -150 0 -150
1360 -3 c917 -2 1402 1 1490 8 518 43 912 194 1178 449 174 168 267 334 323
578 21 94 30 407 15 514 -33 225 -137 452 -278 609 -97 108 -312 254 -472 321
-42 18 -123 46 -181 64 -58 17 -104 36 -103 41 1 5 43 25 95 45 116 44 154 64
246 129 153 108 278 247 360 400 159 295 162 690 9 1005 -189 387 -577 608
-1193 680 -109 13 -339 15 -1491 15 l-1363 0 0 -67z m2350 -413 c210 -22 322
-72 451 -200 95 -94 140 -173 181 -316 21 -71 23 -100 23 -279 0 -179 -2 -208
-23 -280 -72 -250 -219 -400 -469 -479 -140 -44 -196 -48 -552 -47 -184 1
-337 4 -340 7 -3 2 -6 362 -8 799 l-2 795 187 3 c103 1 248 3 322 5 74 1 178
-3 230 -8z m118 -2096 c181 -28 324 -86 449 -180 158 -121 252 -308 284 -568
16 -124 5 -358 -20 -462 -79 -322 -303 -524 -644 -579 -71 -12 -188 -15 -509
-15 l-418 0 0 910 0 910 263 3 c328 4 477 -1 595 -19z M4832 7943 l3 -148 60
-7 c240 -26 360 -115 411 -305 23 -88 37 -503 30 -928 -7 -392 -11 -445 -47
-540 -28 -76 -130 -180 -242 -245 -42 -25 -77 -48 -77 -52 0 -3 39 -30 86 -59
163 -100 223 -176 261 -326 15 -60 17 -142 18 -708 0 -674 -3 -736 -46 -851
-23 -62 -85 -135 -143 -169 -51 -30 -138 -53 -237 -63 l-74 -7 -3 -152 -3
-153 1375 0 c1380 0 1523 3 1726 37 487 80 835 258 1063 544 106 132 188 323
222 513 20 115 20 352 0 476 -75 461 -387 794 -903 965 -79 26 -140 50 -135
54 4 4 42 20 83 36 215 81 373 193 506 359 128 160 208 366 224 577 27 354
-83 666 -312 885 -189 181 -423 294 -740 359 -274 55 -269 55 -1746 55 l-1363
0 3 -147z m2468 -350 c264 -53 462 -245 529 -514 41 -161 36 -415 -10 -567
-68 -221 -224 -378 -449 -451 -136 -43 -222 -51 -581 -51 l-339 0 0 800 0 800
258 3 c335 5 500 -1 592 -20z m39 -2084 c224 -43 367 -112 487 -234 168 -172
249 -457 224 -791 -11 -151 -32 -230 -93 -354 -43 -89 -63 -117 -131 -186 -69
-68 -97 -88 -186 -131 -190 -93 -264 -103 -782 -103 l-408 0 0 910 0 910 238
3 c352 5 531 -1 651 -24z M4438 2211 c-80 -82 -204 -195 -275 -251 -168 -136
-420 -389 -503 -507 -140 -200 -230 -384 -278 -566 -24 -92 -27 -119 -26 -277
0 -162 2 -182 28 -265 33 -108 97 -240 116 -240 8 0 54 90 117 230 56 127 134
293 172 370 83 167 84 169 117 360 32 189 37 200 89 200 59 0 69 -27 55 -152
-6 -54 -13 -137 -17 -185 l-6 -88 127 0 126 0 0 199 c0 226 2 231 71 231 36 0
41 -3 55 -35 7 -19 14 -65 14 -102 0 -37 3 -119 7 -180 l6 -113 159 0 158 0 1
133 c1 258 14 301 89 295 54 -5 62 -30 57 -182 -3 -71 -2 -156 1 -189 l5 -60
120 6 c66 3 122 8 125 11 3 3 -3 70 -12 148 -21 186 -21 230 2 251 21 19 54
22 82 7 23 -13 35 -55 50 -180 20 -172 37 -225 145 -450 56 -118 135 -286 175
-372 40 -87 77 -158 82 -158 15 0 85 159 112 252 87 304 29 622 -176 956 -114
187 -304 391 -573 617 -172 145 -218 189 -359 348 -43 48 -82 87 -85 87 -4 0
-73 -67 -153 -149z M1003 2110 c-56 -12 -135 -46 -217 -94 -458 -271 -522
-1166 -109 -1536 62 -55 187 -120 266 -139 258 -62 532 34 656 228 90 141 110
358 46 498 -30 66 -104 145 -159 172 -68 31 -162 44 -232 32 -101 -19 -137
-59 -159 -175 -17 -89 -27 -106 -61 -106 -54 0 -92 87 -101 232 -7 113 7 165
63 227 106 118 283 131 542 40 109 -39 283 -125 387 -194 117 -75 194 -145
545 -490 173 -171 345 -334 382 -363 75 -59 175 -122 195 -122 10 0 13 34 13
153 0 228 22 381 86 602 65 223 179 485 294 681 62 104 74 150 45 174 -19 16
-31 12 -190 -49 -138 -53 -269 -89 -425 -118 -136 -26 -517 -26 -609 0 -35 9
-165 66 -290 126 -370 178 -514 220 -766 226 -88 2 -179 0 -202 -5z M7895
2079 c-221 -21 -404 -80 -695 -223 -291 -143 -424 -166 -753 -131 -227 25
-472 92 -639 176 -71 36 -96 37 -108 5 -13 -34 -1 -69 71 -204 130 -244 191
-387 248 -585 61 -208 85 -364 97 -624 4 -94 11 -153 17 -153 22 0 146 75 222
135 103 80 218 187 430 396 343 339 525 468 810 574 377 141 641 75 662 -164
7 -72 -21 -233 -50 -291 -18 -37 -27 -46 -53 -48 -41 -4 -50 10 -63 97 -14 86
-39 137 -84 168 -43 29 -128 47 -189 39 -216 -29 -343 -200 -325 -436 15 -194
122 -347 300 -430 291 -136 632 -70 802 155 64 84 129 222 162 340 25 94 27
113 27 300 0 174 -3 210 -22 277 -74 269 -205 439 -417 544 -146 71 -293 98
-450 83z"/>
</g>
</svg>
